STARTFONT 2.1
FONT -memleek-leggie-medium-r-normal--12----c-60-CP437-0
SIZE 12 75 75
FONTBOUNDINGBOX 6 12 0 -2
COMMENT "Generated by fontforge, http://fontforge.sourceforge.net"
STARTPROPERTIES 18
AVERAGE_WIDTH 60
CAP_HEIGHT 7
CHARSET_ENCODING "0"
CHARSET_REGISTRY "CP437"
COMMENT "Please visit https://memleek.org/leggie"
COPYRIGHT "2012-2018 W. Kerr. Licensed under CC BY 4.0"
DEFAULT_CHAR 65535
FAMILY_NAME "leggie"
FONT "leggie"
FONT_ASCENT 10
FONT_DESCENT 2
FOUNDRY "memleek"
PIXEL_SIZE 12
SETWIDTH_NAME "Normal"
SLANT "R"
SPACING "C"
WEIGHT_NAME "Medium"
X_HEIGHT 5
ENDPROPERTIES
CHARS 1763
STARTCHAR SPACE
ENCODING 32
SWIDTH 480 0
DWIDTH 6 0
BBX 1 1 5 -2
BITMAP
00
ENDCHAR
STARTCHAR EXCLAMATION
ENCODING 33
SWIDTH 480 0
DWIDTH 6 0
BBX 1 7 3 0
BITMAP
80
80
80
80
80
00
80
ENDCHAR
STARTCHAR QUOTATION
ENCODING 34
SWIDTH 480 0
DWIDTH 6 0
BBX 3 3 2 5
BITMAP
A0
A0
A0
ENDCHAR
STARTCHAR NUMBER
ENCODING 35
SWIDTH 480 0
DWIDTH 6 0
BBX 5 7 1 0
BITMAP
50
50
F8
50
F8
50
50
ENDCHAR
STARTCHAR DOLLAR
ENCODING 36
SWIDTH 480 0
DWIDTH 6 0
BBX 5 9 1 -1
BITMAP
10
78
80
80
70
08
08
F0
40
ENDCHAR
STARTCHAR PERCENT
ENCODING 37
SWIDTH 480 0
DWIDTH 6 0
BBX 5 7 1 0
BITMAP
40
A8
50
20
50
A8
10
ENDCHAR
STARTCHAR AMPERSAND
ENCODING 38
SWIDTH 480 0
DWIDTH 6 0
BBX 5 7 1 0
BITMAP
60
90
90
60
88
90
68
ENDCHAR
STARTCHAR APOSTROPHE
ENCODING 39
SWIDTH 480 0
DWIDTH 6 0
BBX 1 3 3 5
BITMAP
80
80
80
ENDCHAR
STARTCHAR LEFT
ENCODING 40
SWIDTH 480 0
DWIDTH 6 0
BBX 2 11 3 -2
BITMAP
40
80
80
80
80
80
80
80
80
80
40
ENDCHAR
STARTCHAR RIGHT
ENCODING 41
SWIDTH 480 0
DWIDTH 6 0
BBX 2 11 2 -2
BITMAP
80
40
40
40
40
40
40
40
40
40
80
ENDCHAR
STARTCHAR ASTERISK
ENCODING 42
SWIDTH 480 0
DWIDTH 6 0
BBX 5 5 1 1
BITMAP
50
20
F8
20
50
ENDCHAR
STARTCHAR PLUS
ENCODING 43
SWIDTH 480 0
DWIDTH 6 0
BBX 5 5 1 1
BITMAP
20
20
F8
20
20
ENDCHAR
STARTCHAR COMMA
ENCODING 44
SWIDTH 480 0
DWIDTH 6 0
BBX 2 2 2 -1
BITMAP
40
80
ENDCHAR
STARTCHAR HYPHEN-MINUS
ENCODING 45
SWIDTH 480 0
DWIDTH 6 0
BBX 5 1 1 3
BITMAP
F8
ENDCHAR
STARTCHAR FULL
ENCODING 46
SWIDTH 480 0
DWIDTH 6 0
BBX 1 1 3 0
BITMAP
80
ENDCHAR
STARTCHAR SOLIDUS
ENCODING 47
SWIDTH 480 0
DWIDTH 6 0
BBX 5 10 1 -2
BITMAP
08
08
10
10
20
20
40
40
80
80
ENDCHAR
STARTCHAR DIGIT
ENCODING 48
SWIDTH 480 0
DWIDTH 6 0
BBX 5 7 1 0
BITMAP
70
88
98
A8
C8
88
70
ENDCHAR
STARTCHAR DIGIT
ENCODING 49
SWIDTH 480 0
DWIDTH 6 0
BBX 3 7 2 0
BITMAP
20
60
A0
20
20
20
20
ENDCHAR
STARTCHAR DIGIT
ENCODING 50
SWIDTH 480 0
DWIDTH 6 0
BBX 5 7 1 0
BITMAP
F0
08
08
10
20
40
F8
ENDCHAR
STARTCHAR DIGIT
ENCODING 51
SWIDTH 480 0
DWIDTH 6 0
BBX 5 7 1 0
BITMAP
F0
08
08
30
08
08
F0
ENDCHAR
STARTCHAR DIGIT
ENCODING 52
SWIDTH 480 0
DWIDTH 6 0
BBX 5 7 1 0
BITMAP
08
18
28
48
F8
08
08
ENDCHAR
STARTCHAR DIGIT
ENCODING 53
SWIDTH 480 0
DWIDTH 6 0
BBX 5 7 1 0
BITMAP
F8
80
F0
08
08
08
F0
ENDCHAR
STARTCHAR DIGIT
ENCODING 54
SWIDTH 480 0
DWIDTH 6 0
BBX 5 7 1 0
BITMAP
70
80
F0
88
88
88
70
ENDCHAR
STARTCHAR DIGIT
ENCODING 55
SWIDTH 480 0
DWIDTH 6 0
BBX 5 7 1 0
BITMAP
F8
08
08
10
20
20
20
ENDCHAR
STARTCHAR DIGIT
ENCODING 56
SWIDTH 480 0
DWIDTH 6 0
BBX 5 7 1 0
BITMAP
70
88
88
70
88
88
70
ENDCHAR
STARTCHAR DIGIT
ENCODING 57
SWIDTH 480 0
DWIDTH 6 0
BBX 5 7 1 0
BITMAP
70
88
88
88
78
08
70
ENDCHAR
STARTCHAR COLON
ENCODING 58
SWIDTH 480 0
DWIDTH 6 0
BBX 1 5 3 0
BITMAP
80
00
00
00
80
ENDCHAR
STARTCHAR SEMICOLON
ENCODING 59
SWIDTH 480 0
DWIDTH 6 0
BBX 2 6 2 -1
BITMAP
40
00
00
00
40
80
ENDCHAR
STARTCHAR LESS-THAN
ENCODING 60
SWIDTH 480 0
DWIDTH 6 0
BBX 5 9 1 -1
BITMAP
08
10
20
40
80
40
20
10
08
ENDCHAR
STARTCHAR EQUALS
ENCODING 61
SWIDTH 480 0
DWIDTH 6 0
BBX 5 3 1 2
BITMAP
F8
00
F8
ENDCHAR
STARTCHAR GREATER-THAN
ENCODING 62
SWIDTH 480 0
DWIDTH 6 0
BBX 5 9 1 -1
BITMAP
80
40
20
10
08
10
20
40
80
ENDCHAR
STARTCHAR QUESTION
ENCODING 63
SWIDTH 480 0
DWIDTH 6 0
BBX 5 7 1 0
BITMAP
F0
08
08
10
20
00
20
ENDCHAR
STARTCHAR COMMERCIAL
ENCODING 64
SWIDTH 480 0
DWIDTH 6 0
BBX 5 8 1 -1
BITMAP
70
88
B8
C8
C8
B0
80
70
ENDCHAR
STARTCHAR LATIN
ENCODING 65
SWIDTH 480 0
DWIDTH 6 0
BBX 5 7 1 0
BITMAP
70
88
88
88
F8
88
88
ENDCHAR
STARTCHAR LATIN
ENCODING 66
SWIDTH 480 0
DWIDTH 6 0
BBX 5 7 1 0
BITMAP
F0
88
88
F0
88
88
F0
ENDCHAR
STARTCHAR LATIN
ENCODING 67
SWIDTH 480 0
DWIDTH 6 0
BBX 5 7 1 0
BITMAP
78
80
80
80
80
80
78
ENDCHAR
STARTCHAR LATIN
ENCODING 68
SWIDTH 480 0
DWIDTH 6 0
BBX 5 7 1 0
BITMAP
F0
88
88
88
88
88
F0
ENDCHAR
STARTCHAR LATIN
ENCODING 69
SWIDTH 480 0
DWIDTH 6 0
BBX 5 7 1 0
BITMAP
F8
80
80
E0
80
80
F8
ENDCHAR
STARTCHAR LATIN
ENCODING 70
SWIDTH 480 0
DWIDTH 6 0
BBX 5 7 1 0
BITMAP
F8
80
80
E0
80
80
80
ENDCHAR
STARTCHAR LATIN
ENCODING 71
SWIDTH 480 0
DWIDTH 6 0
BBX 5 7 1 0
BITMAP
78
80
80
98
88
88
78
ENDCHAR
STARTCHAR LATIN
ENCODING 72
SWIDTH 480 0
DWIDTH 6 0
BBX 5 7 1 0
BITMAP
88
88
88
F8
88
88
88
ENDCHAR
STARTCHAR LATIN
ENCODING 73
SWIDTH 480 0
DWIDTH 6 0
BBX 3 7 2 0
BITMAP
E0
40
40
40
40
40
E0
ENDCHAR
STARTCHAR LATIN
ENCODING 74
SWIDTH 480 0
DWIDTH 6 0
BBX 5 7 1 0
BITMAP
08
08
08
08
08
88
70
ENDCHAR
STARTCHAR LATIN
ENCODING 75
SWIDTH 480 0
DWIDTH 6 0
BBX 5 7 1 0
BITMAP
88
90
A0
C0
A0
90
88
ENDCHAR
STARTCHAR LATIN
ENCODING 76
SWIDTH 480 0
DWIDTH 6 0
BBX 5 7 1 0
BITMAP
80
80
80
80
80
80
F8
ENDCHAR
STARTCHAR LATIN
ENCODING 77
SWIDTH 480 0
DWIDTH 6 0
BBX 5 7 1 0
BITMAP
88
D8
A8
88
88
88
88
ENDCHAR
STARTCHAR LATIN
ENCODING 78
SWIDTH 480 0
DWIDTH 6 0
BBX 5 7 1 0
BITMAP
88
88
C8
A8
98
88
88
ENDCHAR
STARTCHAR LATIN
ENCODING 79
SWIDTH 480 0
DWIDTH 6 0
BBX 5 7 1 0
BITMAP
70
88
88
88
88
88
70
ENDCHAR
STARTCHAR LATIN
ENCODING 80
SWIDTH 480 0
DWIDTH 6 0
BBX 5 7 1 0
BITMAP
F0
88
88
88
F0
80
80
ENDCHAR
STARTCHAR LATIN
ENCODING 81
SWIDTH 480 0
DWIDTH 6 0
BBX 5 7 1 0
BITMAP
70
88
88
88
88
90
68
ENDCHAR
STARTCHAR LATIN
ENCODING 82
SWIDTH 480 0
DWIDTH 6 0
BBX 5 7 1 0
BITMAP
F0
88
88
88
F0
90
88
ENDCHAR
STARTCHAR LATIN
ENCODING 83
SWIDTH 480 0
DWIDTH 6 0
BBX 5 7 1 0
BITMAP
78
80
80
70
08
08
F0
ENDCHAR
STARTCHAR LATIN
ENCODING 84
SWIDTH 480 0
DWIDTH 6 0
BBX 5 7 1 0
BITMAP
F8
20
20
20
20
20
20
ENDCHAR
STARTCHAR LATIN
ENCODING 85
SWIDTH 480 0
DWIDTH 6 0
BBX 5 7 1 0
BITMAP
88
88
88
88
88
88
70
ENDCHAR
STARTCHAR LATIN
ENCODING 86
SWIDTH 480 0
DWIDTH 6 0
BBX 5 7 1 0
BITMAP
88
88
88
88
50
50
20
ENDCHAR
STARTCHAR LATIN
ENCODING 87
SWIDTH 480 0
DWIDTH 6 0
BBX 5 7 1 0
BITMAP
88
88
88
88
A8
D8
88
ENDCHAR
STARTCHAR X
ENCODING 88
SWIDTH 480 0
DWIDTH 6 0
BBX 5 5 1 0
BITMAP
F8
A8
D8
A8
F8
ENDCHAR
STARTCHAR LATIN
ENCODING 89
SWIDTH 480 0
DWIDTH 6 0
BBX 5 7 1 0
BITMAP
88
88
50
20
20
20
20
ENDCHAR
STARTCHAR LATIN
ENCODING 90
SWIDTH 480 0
DWIDTH 6 0
BBX 5 7 1 0
BITMAP
F8
08
10
20
40
80
F8
ENDCHAR
STARTCHAR LEFT
ENCODING 91
SWIDTH 480 0
DWIDTH 6 0
BBX 2 11 3 -2
BITMAP
C0
80
80
80
80
80
80
80
80
80
C0
ENDCHAR
STARTCHAR REVERSE
ENCODING 92
SWIDTH 480 0
DWIDTH 6 0
BBX 5 10 1 -2
BITMAP
80
80
40
40
20
20
10
10
08
08
ENDCHAR
STARTCHAR RIGHT
ENCODING 93
SWIDTH 480 0
DWIDTH 6 0
BBX 2 11 2 -2
BITMAP
C0
40
40
40
40
40
40
40
40
40
C0
ENDCHAR
STARTCHAR CIRCUMFLEX
ENCODING 94
SWIDTH 480 0
DWIDTH 6 0
BBX 5 3 1 5
BITMAP
20
50
88
ENDCHAR
STARTCHAR LOW
ENCODING 95
SWIDTH 480 0
DWIDTH 6 0
BBX 5 1 1 -1
BITMAP
F8
ENDCHAR
STARTCHAR GRAVE
ENCODING 96
SWIDTH 480 0
DWIDTH 6 0
BBX 3 3 2 5
BITMAP
80
40
20
ENDCHAR
STARTCHAR LATIN
ENCODING 97
SWIDTH 480 0
DWIDTH 6 0
BBX 5 5 1 0
BITMAP
70
08
78
88
78
ENDCHAR
STARTCHAR LATIN
ENCODING 98
SWIDTH 480 0
DWIDTH 6 0
BBX 5 8 1 0
BITMAP
80
80
80
F0
88
88
88
F0
ENDCHAR
STARTCHAR LATIN
ENCODING 99
SWIDTH 480 0
DWIDTH 6 0
BBX 5 5 1 0
BITMAP
78
80
80
80
78
ENDCHAR
STARTCHAR LATIN
ENCODING 100
SWIDTH 480 0
DWIDTH 6 0
BBX 5 8 1 0
BITMAP
08
08
08
78
88
88
88
78
ENDCHAR
STARTCHAR LATIN
ENCODING 101
SWIDTH 480 0
DWIDTH 6 0
BBX 5 5 1 0
BITMAP
70
88
F8
80
70
ENDCHAR
STARTCHAR LATIN
ENCODING 102
SWIDTH 480 0
DWIDTH 6 0
BBX 3 8 2 0
BITMAP
60
80
80
C0
80
80
80
80
ENDCHAR
STARTCHAR LATIN
ENCODING 103
SWIDTH 480 0
DWIDTH 6 0
BBX 5 7 1 -2
BITMAP
78
88
88
88
78
08
30
ENDCHAR
STARTCHAR LATIN
ENCODING 104
SWIDTH 480 0
DWIDTH 6 0
BBX 5 8 1 0
BITMAP
80
80
80
F0
88
88
88
88
ENDCHAR
STARTCHAR LATIN
ENCODING 105
SWIDTH 480 0
DWIDTH 6 0
BBX 2 7 2 0
BITMAP
40
00
C0
40
40
40
40
ENDCHAR
STARTCHAR LATIN
ENCODING 106
SWIDTH 480 0
DWIDTH 6 0
BBX 2 9 2 -2
BITMAP
40
00
C0
40
40
40
40
40
80
ENDCHAR
STARTCHAR LATIN
ENCODING 107
SWIDTH 480 0
DWIDTH 6 0
BBX 4 8 2 0
BITMAP
80
80
80
90
A0
C0
A0
90
ENDCHAR
STARTCHAR LATIN
ENCODING 108
SWIDTH 480 0
DWIDTH 6 0
BBX 3 8 2 0
BITMAP
80
80
80
80
80
80
80
60
ENDCHAR
STARTCHAR LATIN
ENCODING 109
SWIDTH 480 0
DWIDTH 6 0
BBX 5 5 1 0
BITMAP
D0
A8
A8
A8
88
ENDCHAR
STARTCHAR LATIN
ENCODING 110
SWIDTH 480 0
DWIDTH 6 0
BBX 5 5 1 0
BITMAP
F0
88
88
88
88
ENDCHAR
STARTCHAR LATIN
ENCODING 111
SWIDTH 480 0
DWIDTH 6 0
BBX 5 5 1 0
BITMAP
70
88
88
88
70
ENDCHAR
STARTCHAR LATIN
ENCODING 112
SWIDTH 480 0
DWIDTH 6 0
BBX 5 7 1 -2
BITMAP
F0
88
88
88
F0
80
80
ENDCHAR
STARTCHAR LATIN
ENCODING 113
SWIDTH 480 0
DWIDTH 6 0
BBX 5 7 1 -2
BITMAP
78
88
88
88
78
08
08
ENDCHAR
STARTCHAR LATIN
ENCODING 114
SWIDTH 480 0
DWIDTH 6 0
BBX 5 5 1 0
BITMAP
B8
C0
80
80
80
ENDCHAR
STARTCHAR LATIN
ENCODING 115
SWIDTH 480 0
DWIDTH 6 0
BBX 5 5 1 0
BITMAP
78
80
70
08
F0
ENDCHAR
STARTCHAR LATIN
ENCODING 116
SWIDTH 480 0
DWIDTH 6 0
BBX 4 8 1 0
BITMAP
40
40
40
E0
40
40
40
30
ENDCHAR
STARTCHAR LATIN
ENCODING 117
SWIDTH 480 0
DWIDTH 6 0
BBX 5 5 1 0
BITMAP
88
88
88
88
78
ENDCHAR
STARTCHAR LATIN
ENCODING 118
SWIDTH 480 0
DWIDTH 6 0
BBX 5 5 1 0
BITMAP
88
88
50
50
20
ENDCHAR
STARTCHAR LATIN
ENCODING 119
SWIDTH 480 0
DWIDTH 6 0
BBX 5 5 1 0
BITMAP
88
88
A8
D8
88
ENDCHAR
STARTCHAR LATIN
ENCODING 120
SWIDTH 480 0
DWIDTH 6 0
BBX 5 5 1 0
BITMAP
88
50
20
50
88
ENDCHAR
STARTCHAR LATIN
ENCODING 121
SWIDTH 480 0
DWIDTH 6 0
BBX 5 7 1 -2
BITMAP
88
88
88
88
78
08
30
ENDCHAR
STARTCHAR LATIN
ENCODING 122
SWIDTH 480 0
DWIDTH 6 0
BBX 5 5 1 0
BITMAP
F8
10
20
40
F8
ENDCHAR
STARTCHAR LEFT
ENCODING 123
SWIDTH 480 0
DWIDTH 6 0
BBX 3 11 2 -2
BITMAP
20
40
40
40
40
80
40
40
40
40
20
ENDCHAR
STARTCHAR VERTICAL
ENCODING 124
SWIDTH 480 0
DWIDTH 6 0
BBX 1 12 3 -2
BITMAP
80
80
80
80
80
80
80
80
80
80
80
80
ENDCHAR
STARTCHAR RIGHT
ENCODING 125
SWIDTH 480 0
DWIDTH 6 0
BBX 3 11 2 -2
BITMAP
80
40
40
40
40
20
40
40
40
40
80
ENDCHAR
STARTCHAR TILDE
ENCODING 126
SWIDTH 480 0
DWIDTH 6 0
BBX 6 2 0 2
BITMAP
64
98
ENDCHAR
STARTCHAR LATIN
ENCODING 128
SWIDTH 480 0
DWIDTH 6 0
BBX 5 9 1 -2
BITMAP
78
80
80
80
80
80
78
10
20
ENDCHAR
STARTCHAR LATIN
ENCODING 129
SWIDTH 480 0
DWIDTH 6 0
BBX 5 7 1 0
BITMAP
50
00
88
88
88
88
78
ENDCHAR
STARTCHAR LATIN
ENCODING 130
SWIDTH 480 0
DWIDTH 6 0
BBX 5 8 1 0
BITMAP
10
20
00
70
88
F8
80
70
ENDCHAR
STARTCHAR LATIN
ENCODING 131
SWIDTH 480 0
DWIDTH 6 0
BBX 5 8 1 0
BITMAP
20
50
00
70
08
78
88
78
ENDCHAR
STARTCHAR LATIN
ENCODING 132
SWIDTH 480 0
DWIDTH 6 0
BBX 5 7 1 0
BITMAP
50
00
70
08
78
88
78
ENDCHAR
STARTCHAR LATIN
ENCODING 133
SWIDTH 480 0
DWIDTH 6 0
BBX 5 8 1 0
BITMAP
40
20
00
70
08
78
88
78
ENDCHAR
STARTCHAR LATIN
ENCODING 134
SWIDTH 480 0
DWIDTH 6 0
BBX 5 9 1 0
BITMAP
20
50
20
00
70
08
78
88
78
ENDCHAR
STARTCHAR LATIN
ENCODING 135
SWIDTH 480 0
DWIDTH 6 0
BBX 5 7 1 -2
BITMAP
78
80
80
80
78
10
20
ENDCHAR
STARTCHAR LATIN
ENCODING 136
SWIDTH 480 0
DWIDTH 6 0
BBX 5 8 1 0
BITMAP
20
50
00
70
88
F8
80
70
ENDCHAR
STARTCHAR LATIN
ENCODING 137
SWIDTH 480 0
DWIDTH 6 0
BBX 5 7 1 0
BITMAP
50
00
70
88
F8
80
70
ENDCHAR
STARTCHAR LATIN
ENCODING 138
SWIDTH 480 0
DWIDTH 6 0
BBX 5 8 1 0
BITMAP
40
20
00
70
88
F8
80
70
ENDCHAR
STARTCHAR LATIN
ENCODING 139
SWIDTH 480 0
DWIDTH 6 0
BBX 3 7 2 0
BITMAP
A0
00
C0
40
40
40
40
ENDCHAR
STARTCHAR LATIN
ENCODING 140
SWIDTH 480 0
DWIDTH 6 0
BBX 3 8 2 0
BITMAP
40
A0
00
C0
40
40
40
40
ENDCHAR
STARTCHAR LATIN
ENCODING 141
SWIDTH 480 0
DWIDTH 6 0
BBX 2 8 2 0
BITMAP
80
40
00
C0
40
40
40
40
ENDCHAR
STARTCHAR LATIN
ENCODING 142
SWIDTH 480 0
DWIDTH 6 0
BBX 5 9 1 0
BITMAP
50
00
70
88
88
88
F8
88
88
ENDCHAR
STARTCHAR LATIN
ENCODING 143
SWIDTH 480 0
DWIDTH 6 0
BBX 5 10 1 0
BITMAP
20
50
20
70
88
88
88
F8
88
88
ENDCHAR
STARTCHAR LATIN
ENCODING 144
SWIDTH 480 0
DWIDTH 6 0
BBX 5 10 1 0
BITMAP
10
20
00
F8
80
80
E0
80
80
F8
ENDCHAR
STARTCHAR LATIN
ENCODING 145
SWIDTH 480 0
DWIDTH 6 0
BBX 6 5 0 0
BITMAP
68
14
7C
90
6C
ENDCHAR
STARTCHAR LATIN
ENCODING 146
SWIDTH 480 0
DWIDTH 6 0
BBX 5 7 1 0
BITMAP
78
A0
A0
B0
E0
A0
B8
ENDCHAR
STARTCHAR LATIN
ENCODING 147
SWIDTH 480 0
DWIDTH 6 0
BBX 5 8 1 0
BITMAP
20
50
00
70
88
88
88
70
ENDCHAR
STARTCHAR LATIN
ENCODING 148
SWIDTH 480 0
DWIDTH 6 0
BBX 5 7 1 0
BITMAP
50
00
70
88
88
88
70
ENDCHAR
STARTCHAR LATIN
ENCODING 149
SWIDTH 480 0
DWIDTH 6 0
BBX 5 8 1 0
BITMAP
40
20
00
70
88
88
88
70
ENDCHAR
STARTCHAR LATIN
ENCODING 150
SWIDTH 480 0
DWIDTH 6 0
BBX 5 8 1 0
BITMAP
20
50
00
88
88
88
88
78
ENDCHAR
STARTCHAR LATIN
ENCODING 151
SWIDTH 480 0
DWIDTH 6 0
BBX 5 8 1 0
BITMAP
40
20
00
88
88
88
88
78
ENDCHAR
STARTCHAR LATIN
ENCODING 152
SWIDTH 480 0
DWIDTH 6 0
BBX 5 9 1 -2
BITMAP
50
00
88
88
88
88
78
08
30
ENDCHAR
STARTCHAR LATIN
ENCODING 153
SWIDTH 480 0
DWIDTH 6 0
BBX 5 9 1 0
BITMAP
50
00
70
88
88
88
88
88
70
ENDCHAR
STARTCHAR LATIN
ENCODING 154
SWIDTH 480 0
DWIDTH 6 0
BBX 5 9 1 0
BITMAP
50
00
88
88
88
88
88
88
70
ENDCHAR
STARTCHAR CENT
ENCODING 155
SWIDTH 480 0
DWIDTH 6 0
BBX 5 7 1 -1
BITMAP
10
78
80
80
80
78
20
ENDCHAR
STARTCHAR POUND
ENCODING 156
SWIDTH 480 0
DWIDTH 6 0
BBX 5 7 1 0
BITMAP
30
40
40
E0
40
40
F8
ENDCHAR
STARTCHAR YEN
ENCODING 157
SWIDTH 480 0
DWIDTH 6 0
BBX 5 7 1 0
BITMAP
88
88
50
20
70
20
20
ENDCHAR
STARTCHAR PESETA
ENCODING 158
SWIDTH 480 0
DWIDTH 6 0
BBX 5 8 1 0
BITMAP
10
D0
B0
B8
B0
D0
90
88
ENDCHAR
STARTCHAR LATIN
ENCODING 159
SWIDTH 480 0
DWIDTH 6 0
BBX 5 10 1 -2
BITMAP
18
20
20
70
20
20
20
20
20
C0
ENDCHAR
STARTCHAR LATIN
ENCODING 160
SWIDTH 480 0
DWIDTH 6 0
BBX 5 8 1 0
BITMAP
10
20
00
70
08
78
88
78
ENDCHAR
STARTCHAR LATIN
ENCODING 161
SWIDTH 480 0
DWIDTH 6 0
BBX 3 8 2 0
BITMAP
20
40
00
C0
40
40
40
40
ENDCHAR
STARTCHAR LATIN
ENCODING 162
SWIDTH 480 0
DWIDTH 6 0
BBX 5 8 1 0
BITMAP
10
20
00
70
88
88
88
70
ENDCHAR
STARTCHAR LATIN
ENCODING 163
SWIDTH 480 0
DWIDTH 6 0
BBX 5 8 1 0
BITMAP
10
20
00
88
88
88
88
78
ENDCHAR
STARTCHAR LATIN
ENCODING 164
SWIDTH 480 0
DWIDTH 6 0
BBX 5 8 1 0
BITMAP
50
A0
00
F0
88
88
88
88
ENDCHAR
STARTCHAR LATIN
ENCODING 165
SWIDTH 480 0
DWIDTH 6 0
BBX 5 10 1 0
BITMAP
28
50
00
88
88
C8
A8
98
88
88
ENDCHAR
STARTCHAR FEMININE
ENCODING 166
SWIDTH 480 0
DWIDTH 6 0
BBX 5 5 1 3
BITMAP
70
08
78
88
78
ENDCHAR
STARTCHAR MASCULINE
ENCODING 167
SWIDTH 480 0
DWIDTH 6 0
BBX 5 5 1 3
BITMAP
70
88
88
88
70
ENDCHAR
STARTCHAR INVERTED
ENCODING 168
SWIDTH 480 0
DWIDTH 6 0
BBX 5 7 1 -2
BITMAP
20
00
20
40
80
80
78
ENDCHAR
STARTCHAR REVERSED
ENCODING 169
SWIDTH 480 0
DWIDTH 6 0
BBX 5 2 1 2
BITMAP
F8
80
ENDCHAR
STARTCHAR NOT
ENCODING 170
SWIDTH 480 0
DWIDTH 6 0
BBX 5 2 1 2
BITMAP
F8
08
ENDCHAR
STARTCHAR VULGAR
ENCODING 171
SWIDTH 480 0
DWIDTH 6 0
BBX 5 11 1 -2
BITMAP
40
C0
40
40
40
70
08
08
10
20
78
ENDCHAR
STARTCHAR VULGAR
ENCODING 172
SWIDTH 480 0
DWIDTH 6 0
BBX 5 11 1 -2
BITMAP
40
C0
40
40
40
48
18
28
78
08
08
ENDCHAR
STARTCHAR INVERTED
ENCODING 173
SWIDTH 480 0
DWIDTH 6 0
BBX 1 7 3 -2
BITMAP
80
00
80
80
80
80
80
ENDCHAR
STARTCHAR LEFT-POINTING
ENCODING 174
SWIDTH 480 0
DWIDTH 6 0
BBX 5 5 1 1
BITMAP
28
50
A0
50
28
ENDCHAR
STARTCHAR RIGHT-POINTING
ENCODING 175
SWIDTH 480 0
DWIDTH 6 0
BBX 5 5 1 1
BITMAP
A0
50
28
50
A0
ENDCHAR
STARTCHAR LIGHT
ENCODING 176
SWIDTH 480 0
DWIDTH 6 0
BBX 6 11 0 -1
BITMAP
48
00
24
00
90
00
48
00
24
00
90
ENDCHAR
STARTCHAR MEDIUM
ENCODING 177
SWIDTH 480 0
DWIDTH 6 0
BBX 6 12 0 -2
BITMAP
54
A8
54
A8
54
A8
54
A8
54
A8
54
A8
ENDCHAR
STARTCHAR DARK
ENCODING 178
SWIDTH 480 0
DWIDTH 6 0
BBX 6 12 0 -2
BITMAP
B4
FC
D8
FC
6C
FC
B4
FC
D8
FC
6C
FC
ENDCHAR
STARTCHAR BOX
ENCODING 179
SWIDTH 480 0
DWIDTH 6 0
BBX 1 12 3 -2
BITMAP
80
80
80
80
80
80
80
80
80
80
80
80
ENDCHAR
STARTCHAR BOX
ENCODING 180
SWIDTH 480 0
DWIDTH 6 0
BBX 4 12 0 -2
BITMAP
10
10
10
10
10
F0
10
10
10
10
10
10
ENDCHAR
STARTCHAR BOX
ENCODING 181
SWIDTH 480 0
DWIDTH 6 0
BBX 4 12 0 -2
BITMAP
10
10
10
10
F0
10
F0
10
10
10
10
10
ENDCHAR
STARTCHAR BOX
ENCODING 182
SWIDTH 480 0
DWIDTH 6 0
BBX 5 12 0 -2
BITMAP
28
28
28
28
28
E8
28
28
28
28
28
28
ENDCHAR
STARTCHAR BOX
ENCODING 183
SWIDTH 480 0
DWIDTH 6 0
BBX 5 7 0 -2
BITMAP
C0
28
28
28
28
28
28
ENDCHAR
STARTCHAR BOX
ENCODING 184
SWIDTH 480 0
DWIDTH 6 0
BBX 4 8 0 -2
BITMAP
E0
00
E0
10
10
10
10
10
ENDCHAR
STARTCHAR BOX
ENCODING 185
SWIDTH 480 0
DWIDTH 6 0
BBX 5 12 0 -2
BITMAP
28
28
28
28
C8
08
C8
28
28
28
28
28
ENDCHAR
STARTCHAR BOX
ENCODING 186
SWIDTH 480 0
DWIDTH 6 0
BBX 3 12 2 -2
BITMAP
A0
A0
A0
A0
A0
A0
A0
A0
A0
A0
A0
A0
ENDCHAR
STARTCHAR BOX
ENCODING 187
SWIDTH 480 0
DWIDTH 6 0
BBX 5 8 0 -2
BITMAP
E0
10
C8
28
28
28
28
28
ENDCHAR
STARTCHAR BOX
ENCODING 188
SWIDTH 480 0
DWIDTH 6 0
BBX 5 7 0 3
BITMAP
28
28
28
28
C8
10
E0
ENDCHAR
STARTCHAR BOX
ENCODING 189
SWIDTH 480 0
DWIDTH 6 0
BBX 5 6 0 4
BITMAP
28
28
28
28
28
C0
ENDCHAR
STARTCHAR BOX
ENCODING 190
SWIDTH 480 0
DWIDTH 6 0
BBX 4 7 0 3
BITMAP
10
10
10
10
E0
00
E0
ENDCHAR
STARTCHAR BOX
ENCODING 191
SWIDTH 480 0
DWIDTH 6 0
BBX 4 7 0 -2
BITMAP
E0
10
10
10
10
10
10
ENDCHAR
STARTCHAR BOX
ENCODING 192
SWIDTH 480 0
DWIDTH 6 0
BBX 3 6 3 4
BITMAP
80
80
80
80
80
60
ENDCHAR
STARTCHAR BOX
ENCODING 193
SWIDTH 480 0
DWIDTH 6 0
BBX 6 6 0 4
BITMAP
10
10
10
10
10
FC
ENDCHAR
STARTCHAR BOX
ENCODING 194
SWIDTH 480 0
DWIDTH 6 0
BBX 6 7 0 -2
BITMAP
FC
10
10
10
10
10
10
ENDCHAR
STARTCHAR BOX
ENCODING 195
SWIDTH 480 0
DWIDTH 6 0
BBX 3 12 3 -2
BITMAP
80
80
80
80
80
E0
80
80
80
80
80
80
ENDCHAR
STARTCHAR BOX
ENCODING 196
SWIDTH 480 0
DWIDTH 6 0
BBX 6 1 0 4
BITMAP
FC
ENDCHAR
STARTCHAR BOX
ENCODING 197
SWIDTH 480 0
DWIDTH 6 0
BBX 6 12 0 -2
BITMAP
10
10
10
10
10
FC
10
10
10
10
10
10
ENDCHAR
STARTCHAR BOX
ENCODING 198
SWIDTH 480 0
DWIDTH 6 0
BBX 3 12 3 -2
BITMAP
80
80
80
80
E0
80
E0
80
80
80
80
80
ENDCHAR
STARTCHAR BOX
ENCODING 199
SWIDTH 480 0
DWIDTH 6 0
BBX 4 12 2 -2
BITMAP
A0
A0
A0
A0
A0
B0
A0
A0
A0
A0
A0
A0
ENDCHAR
STARTCHAR BOX
ENCODING 200
SWIDTH 480 0
DWIDTH 6 0
BBX 4 7 2 3
BITMAP
A0
A0
A0
A0
90
40
30
ENDCHAR
STARTCHAR BOX
ENCODING 201
SWIDTH 480 0
DWIDTH 6 0
BBX 4 8 2 -2
BITMAP
30
40
90
A0
A0
A0
A0
A0
ENDCHAR
STARTCHAR BOX
ENCODING 202
SWIDTH 480 0
DWIDTH 6 0
BBX 6 7 0 3
BITMAP
28
28
28
28
C4
00
FC
ENDCHAR
STARTCHAR BOX
ENCODING 203
SWIDTH 480 0
DWIDTH 6 0
BBX 6 8 0 -2
BITMAP
FC
00
C4
28
28
28
28
28
ENDCHAR
STARTCHAR BOX
ENCODING 204
SWIDTH 480 0
DWIDTH 6 0
BBX 4 12 2 -2
BITMAP
A0
A0
A0
A0
90
80
90
A0
A0
A0
A0
A0
ENDCHAR
STARTCHAR BOX
ENCODING 205
SWIDTH 480 0
DWIDTH 6 0
BBX 6 3 0 3
BITMAP
FC
00
FC
ENDCHAR
STARTCHAR BOX
ENCODING 206
SWIDTH 480 0
DWIDTH 6 0
BBX 6 12 0 -2
BITMAP
28
28
28
28
C4
10
C4
28
28
28
28
28
ENDCHAR
STARTCHAR BOX
ENCODING 207
SWIDTH 480 0
DWIDTH 6 0
BBX 6 7 0 3
BITMAP
10
10
10
10
FC
00
FC
ENDCHAR
STARTCHAR BOX
ENCODING 208
SWIDTH 480 0
DWIDTH 6 0
BBX 6 6 0 4
BITMAP
28
28
28
28
28
FC
ENDCHAR
STARTCHAR BOX
ENCODING 209
SWIDTH 480 0
DWIDTH 6 0
BBX 6 8 0 -2
BITMAP
FC
00
FC
10
10
10
10
10
ENDCHAR
STARTCHAR BOX
ENCODING 210
SWIDTH 480 0
DWIDTH 6 0
BBX 6 7 0 -2
BITMAP
FC
28
28
28
28
28
28
ENDCHAR
STARTCHAR BOX
ENCODING 211
SWIDTH 480 0
DWIDTH 6 0
BBX 4 6 2 4
BITMAP
A0
A0
A0
A0
A0
10
ENDCHAR
STARTCHAR BOX
ENCODING 212
SWIDTH 480 0
DWIDTH 6 0
BBX 3 7 3 3
BITMAP
80
80
80
80
60
00
60
ENDCHAR
STARTCHAR BOX
ENCODING 213
SWIDTH 480 0
DWIDTH 6 0
BBX 3 8 3 -2
BITMAP
60
00
60
80
80
80
80
80
ENDCHAR
STARTCHAR BOX
ENCODING 214
SWIDTH 480 0
DWIDTH 6 0
BBX 4 8 2 -2
BITMAP
10
A0
A0
A0
A0
A0
A0
A0
ENDCHAR
STARTCHAR BOX
ENCODING 215
SWIDTH 480 0
DWIDTH 6 0
BBX 6 12 0 -2
BITMAP
28
28
28
28
28
EC
28
28
28
28
28
28
ENDCHAR
STARTCHAR BOX
ENCODING 216
SWIDTH 480 0
DWIDTH 6 0
BBX 6 12 0 -2
BITMAP
10
10
10
10
FC
00
FC
10
10
10
10
10
ENDCHAR
STARTCHAR BOX
ENCODING 217
SWIDTH 480 0
DWIDTH 6 0
BBX 4 6 0 4
BITMAP
10
10
10
10
10
E0
ENDCHAR
STARTCHAR BOX
ENCODING 218
SWIDTH 480 0
DWIDTH 6 0
BBX 3 7 3 -2
BITMAP
60
80
80
80
80
80
80
ENDCHAR
STARTCHAR FULL
ENCODING 219
SWIDTH 480 0
DWIDTH 6 0
BBX 6 12 0 -2
BITMAP
FC
FC
FC
FC
FC
FC
FC
FC
FC
FC
FC
FC
ENDCHAR
STARTCHAR LOWER
ENCODING 220
SWIDTH 480 0
DWIDTH 6 0
BBX 6 6 0 -2
BITMAP
FC
FC
FC
FC
FC
FC
ENDCHAR
STARTCHAR LEFT
ENCODING 221
SWIDTH 480 0
DWIDTH 6 0
BBX 3 12 0 -2
BITMAP
E0
E0
E0
E0
E0
E0
E0
E0
E0
E0
E0
E0
ENDCHAR
STARTCHAR RIGHT
ENCODING 222
SWIDTH 480 0
DWIDTH 6 0
BBX 3 12 3 -2
BITMAP
E0
E0
E0
E0
E0
E0
E0
E0
E0
E0
E0
E0
ENDCHAR
STARTCHAR UPPER
ENCODING 223
SWIDTH 480 0
DWIDTH 6 0
BBX 6 6 0 4
BITMAP
FC
FC
FC
FC
FC
FC
ENDCHAR
STARTCHAR GREEK
ENCODING 224
SWIDTH 480 0
DWIDTH 6 0
BBX 5 5 1 0
BITMAP
68
90
90
90
68
ENDCHAR
STARTCHAR LATIN
ENCODING 225
SWIDTH 480 0
DWIDTH 6 0
BBX 5 8 1 0
BITMAP
60
90
90
A0
90
88
88
B0
ENDCHAR
STARTCHAR GREEK
ENCODING 226
SWIDTH 480 0
DWIDTH 6 0
BBX 5 7 1 0
BITMAP
F8
80
80
80
80
80
80
ENDCHAR
STARTCHAR GREEK
ENCODING 227
SWIDTH 480 0
DWIDTH 6 0
BBX 5 5 1 0
BITMAP
F8
50
50
50
98
ENDCHAR
STARTCHAR GREEK
ENCODING 228
SWIDTH 480 0
DWIDTH 6 0
BBX 5 7 1 0
BITMAP
F8
80
40
20
40
80
F8
ENDCHAR
STARTCHAR GREEK
ENCODING 229
SWIDTH 480 0
DWIDTH 6 0
BBX 5 5 1 0
BITMAP
78
90
88
88
70
ENDCHAR
STARTCHAR MICRO
ENCODING 230
SWIDTH 480 0
DWIDTH 6 0
BBX 5 7 1 -2
BITMAP
88
88
88
88
F0
80
80
ENDCHAR
STARTCHAR GREEK
ENCODING 231
SWIDTH 480 0
DWIDTH 6 0
BBX 5 5 1 0
BITMAP
F8
20
20
20
10
ENDCHAR
STARTCHAR GREEK
ENCODING 232
SWIDTH 480 0
DWIDTH 6 0
BBX 5 7 1 0
BITMAP
20
70
A8
A8
A8
70
20
ENDCHAR
STARTCHAR GREEK
ENCODING 233
SWIDTH 480 0
DWIDTH 6 0
BBX 5 7 1 0
BITMAP
70
88
88
F8
88
88
70
ENDCHAR
STARTCHAR GREEK
ENCODING 234
SWIDTH 480 0
DWIDTH 6 0
BBX 5 7 1 0
BITMAP
70
88
88
88
88
50
D8
ENDCHAR
STARTCHAR GREEK
ENCODING 235
SWIDTH 480 0
DWIDTH 6 0
BBX 5 8 1 0
BITMAP
70
80
40
70
88
88
88
70
ENDCHAR
STARTCHAR INFINITY
ENCODING 236
SWIDTH 480 0
DWIDTH 6 0
BBX 5 5 1 1
BITMAP
50
A8
A8
A8
50
ENDCHAR
STARTCHAR GREEK
ENCODING 237
SWIDTH 480 0
DWIDTH 6 0
BBX 5 7 1 -2
BITMAP
10
A8
A8
A8
70
20
20
ENDCHAR
STARTCHAR GREEK
ENCODING 238
SWIDTH 480 0
DWIDTH 6 0
BBX 5 5 1 0
BITMAP
78
80
60
80
78
ENDCHAR
STARTCHAR INTERSECTION
ENCODING 239
SWIDTH 480 0
DWIDTH 6 0
BBX 5 6 1 0
BITMAP
70
88
88
88
88
88
ENDCHAR
STARTCHAR IDENTICAL
ENCODING 240
SWIDTH 480 0
DWIDTH 6 0
BBX 5 5 1 1
BITMAP
F8
00
F8
00
F8
ENDCHAR
STARTCHAR PLUS-MINUS
ENCODING 241
SWIDTH 480 0
DWIDTH 6 0
BBX 5 7 1 0
BITMAP
20
20
F8
20
20
00
F8
ENDCHAR
STARTCHAR GREATER-THAN
ENCODING 242
SWIDTH 480 0
DWIDTH 6 0
BBX 5 7 1 0
BITMAP
80
60
18
60
80
00
F8
ENDCHAR
STARTCHAR LESS-THAN
ENCODING 243
SWIDTH 480 0
DWIDTH 6 0
BBX 5 7 1 0
BITMAP
08
30
C0
30
08
00
F8
ENDCHAR
STARTCHAR TOP
ENCODING 244
SWIDTH 480 0
DWIDTH 6 0
BBX 3 11 3 -2
BITMAP
60
80
80
80
80
80
80
80
80
80
80
ENDCHAR
STARTCHAR BOTTOM
ENCODING 245
SWIDTH 480 0
DWIDTH 6 0
BBX 3 11 1 -1
BITMAP
20
20
20
20
20
20
20
20
20
20
C0
ENDCHAR
STARTCHAR DIVISION
ENCODING 246
SWIDTH 480 0
DWIDTH 6 0
BBX 5 5 1 1
BITMAP
20
00
F8
00
20
ENDCHAR
STARTCHAR ALMOST
ENCODING 247
SWIDTH 480 0
DWIDTH 6 0
BBX 5 4 1 1
BITMAP
68
90
68
90
ENDCHAR
STARTCHAR DEGREE
ENCODING 248
SWIDTH 480 0
DWIDTH 6 0
BBX 3 3 2 4
BITMAP
40
A0
40
ENDCHAR
STARTCHAR BULLET
ENCODING 249
SWIDTH 480 0
DWIDTH 6 0
BBX 3 3 2 2
BITMAP
40
E0
40
ENDCHAR
STARTCHAR MIDDLE
ENCODING 250
SWIDTH 480 0
DWIDTH 6 0
BBX 1 1 3 3
BITMAP
80
ENDCHAR
STARTCHAR SQUARE
ENCODING 251
SWIDTH 480 0
DWIDTH 6 0
BBX 6 7 0 0
BITMAP
04
04
08
08
90
50
20
ENDCHAR
STARTCHAR SUPERSCRIPT
ENCODING 252
SWIDTH 480 0
DWIDTH 6 0
BBX 5 5 1 3
BITMAP
F0
88
88
88
88
ENDCHAR
STARTCHAR SUPERSCRIPT
ENCODING 253
SWIDTH 480 0
DWIDTH 6 0
BBX 5 7 1 3
BITMAP
F0
08
08
10
20
40
F8
ENDCHAR
STARTCHAR BLACK
ENCODING 254
SWIDTH 480 0
DWIDTH 6 0
BBX 5 5 1 1
BITMAP
F8
F8
F8
F8
F8
ENDCHAR
STARTCHAR NO-BREAK
ENCODING 255
SWIDTH 480 0
DWIDTH 6 0
BBX 1 1 5 -2
BITMAP
00
ENDCHAR
STARTCHAR CURRENCY
ENCODING -1
SWIDTH 480 0
DWIDTH 6 0
BBX 5 5 1 1
BITMAP
88
70
50
70
88
ENDCHAR
STARTCHAR BROKEN
ENCODING -1
SWIDTH 480 0
DWIDTH 6 0
BBX 1 12 3 -2
BITMAP
80
80
80
80
80
00
00
80
80
80
80
80
ENDCHAR
STARTCHAR SECTION
ENCODING -1
SWIDTH 480 0
DWIDTH 6 0
BBX 5 11 1 -2
BITMAP
78
80
80
70
88
88
88
70
08
08
F0
ENDCHAR
STARTCHAR DIAERESIS
ENCODING -1
SWIDTH 480 0
DWIDTH 6 0
BBX 3 1 2 8
BITMAP
A0
ENDCHAR
STARTCHAR COPYRIGHT
ENCODING -1
SWIDTH 480 0
DWIDTH 6 0
BBX 5 8 1 -1
BITMAP
70
88
B8
C8
C8
B8
88
70
ENDCHAR
STARTCHAR SOFT
ENCODING -1
SWIDTH 480 0
DWIDTH 6 0
BBX 3 1 2 3
BITMAP
E0
ENDCHAR
STARTCHAR REGISTERED
ENCODING -1
SWIDTH 480 0
DWIDTH 6 0
BBX 5 8 1 2
BITMAP
70
88
E8
D8
E8
D8
88
70
ENDCHAR
STARTCHAR MACRON
ENCODING -1
SWIDTH 480 0
DWIDTH 6 0
BBX 5 1 1 7
BITMAP
F8
ENDCHAR
STARTCHAR SUPERSCRIPT
ENCODING -1
SWIDTH 480 0
DWIDTH 6 0
BBX 5 7 1 3
BITMAP
F0
08
08
30
08
08
F0
ENDCHAR
STARTCHAR ACUTE
ENCODING -1
SWIDTH 480 0
DWIDTH 6 0
BBX 3 3 2 5
BITMAP
20
40
80
ENDCHAR
STARTCHAR PILCROW
ENCODING -1
SWIDTH 480 0
DWIDTH 6 0
BBX 5 8 1 0
BITMAP
78
E8
E8
E8
68
28
28
28
ENDCHAR
STARTCHAR CEDILLA
ENCODING -1
SWIDTH 480 0
DWIDTH 6 0
BBX 2 2 2 -2
BITMAP
40
80
ENDCHAR
STARTCHAR SUPERSCRIPT
ENCODING -1
SWIDTH 480 0
DWIDTH 6 0
BBX 3 7 2 3
BITMAP
20
60
A0
20
20
20
20
ENDCHAR
STARTCHAR VULGAR
ENCODING -1
SWIDTH 480 0
DWIDTH 6 0
BBX 5 11 1 -2
BITMAP
E0
10
60
10
10
E8
18
28
78
08
08
ENDCHAR
STARTCHAR LATIN
ENCODING -1
SWIDTH 480 0
DWIDTH 6 0
BBX 5 10 1 0
BITMAP
40
20
00
70
88
88
88
F8
88
88
ENDCHAR
STARTCHAR LATIN
ENCODING -1
SWIDTH 480 0
DWIDTH 6 0
BBX 5 10 1 0
BITMAP
10
20
00
70
88
88
88
F8
88
88
ENDCHAR
STARTCHAR LATIN
ENCODING -1
SWIDTH 480 0
DWIDTH 6 0
BBX 5 10 1 0
BITMAP
20
50
00
70
88
88
88
F8
88
88
ENDCHAR
STARTCHAR LATIN
ENCODING -1
SWIDTH 480 0
DWIDTH 6 0
BBX 5 10 1 0
BITMAP
28
50
00
70
88
88
88
F8
88
88
ENDCHAR
STARTCHAR LATIN
ENCODING -1
SWIDTH 480 0
DWIDTH 6 0
BBX 5 10 1 0
BITMAP
40
20
00
F8
80
80
E0
80
80
F8
ENDCHAR
STARTCHAR LATIN
ENCODING -1
SWIDTH 480 0
DWIDTH 6 0
BBX 5 10 1 0
BITMAP
20
50
00
F8
80
80
E0
80
80
F8
ENDCHAR
STARTCHAR LATIN
ENCODING -1
SWIDTH 480 0
DWIDTH 6 0
BBX 5 9 1 0
BITMAP
50
00
F8
80
80
E0
80
80
F8
ENDCHAR
STARTCHAR LATIN
ENCODING -1
SWIDTH 480 0
DWIDTH 6 0
BBX 3 10 2 0
BITMAP
80
40
00
E0
40
40
40
40
40
E0
ENDCHAR
STARTCHAR LATIN
ENCODING -1
SWIDTH 480 0
DWIDTH 6 0
BBX 3 10 2 0
BITMAP
20
40
00
E0
40
40
40
40
40
E0
ENDCHAR
STARTCHAR LATIN
ENCODING -1
SWIDTH 480 0
DWIDTH 6 0
BBX 3 10 2 0
BITMAP
40
A0
00
E0
40
40
40
40
40
E0
ENDCHAR
STARTCHAR LATIN
ENCODING -1
SWIDTH 480 0
DWIDTH 6 0
BBX 3 9 2 0
BITMAP
A0
00
E0
40
40
40
40
40
E0
ENDCHAR
STARTCHAR LATIN
ENCODING -1
SWIDTH 480 0
DWIDTH 6 0
BBX 6 7 0 0
BITMAP
78
44
44
F4
44
44
78
ENDCHAR
STARTCHAR LATIN
ENCODING -1
SWIDTH 480 0
DWIDTH 6 0
BBX 5 10 1 0
BITMAP
40
20
00
70
88
88
88
88
88
70
ENDCHAR
STARTCHAR LATIN
ENCODING -1
SWIDTH 480 0
DWIDTH 6 0
BBX 5 10 1 0
BITMAP
10
20
00
70
88
88
88
88
88
70
ENDCHAR
STARTCHAR LATIN
ENCODING -1
SWIDTH 480 0
DWIDTH 6 0
BBX 5 10 1 0
BITMAP
20
50
00
70
88
88
88
88
88
70
ENDCHAR
STARTCHAR LATIN
ENCODING -1
SWIDTH 480 0
DWIDTH 6 0
BBX 5 10 1 0
BITMAP
28
50
00
70
88
88
88
88
88
70
ENDCHAR
STARTCHAR MULTIPLICATION
ENCODING -1
SWIDTH 480 0
DWIDTH 6 0
BBX 5 5 1 1
BITMAP
88
50
20
50
88
ENDCHAR
STARTCHAR LATIN
ENCODING -1
SWIDTH 480 0
DWIDTH 6 0
BBX 5 7 1 0
BITMAP
78
98
98
A8
C8
C8
F0
ENDCHAR
STARTCHAR LATIN
ENCODING -1
SWIDTH 480 0
DWIDTH 6 0
BBX 5 10 1 0
BITMAP
40
20
00
88
88
88
88
88
88
70
ENDCHAR
STARTCHAR LATIN
ENCODING -1
SWIDTH 480 0
DWIDTH 6 0
BBX 5 10 1 0
BITMAP
10
20
00
88
88
88
88
88
88
70
ENDCHAR
STARTCHAR LATIN
ENCODING -1
SWIDTH 480 0
DWIDTH 6 0
BBX 5 10 1 0
BITMAP
20
50
00
88
88
88
88
88
88
70
ENDCHAR
STARTCHAR LATIN
ENCODING -1
SWIDTH 480 0
DWIDTH 6 0
BBX 5 10 1 0
BITMAP
10
20
00
88
88
50
20
20
20
20
ENDCHAR
STARTCHAR LATIN
ENCODING -1
SWIDTH 480 0
DWIDTH 6 0
BBX 5 7 1 0
BITMAP
80
F0
88
88
88
F0
80
ENDCHAR
STARTCHAR LATIN
ENCODING -1
SWIDTH 480 0
DWIDTH 6 0
BBX 5 8 1 0
BITMAP
28
50
00
70
08
78
88
78
ENDCHAR
STARTCHAR LATIN
ENCODING -1
SWIDTH 480 0
DWIDTH 6 0
BBX 5 9 1 0
BITMAP
50
20
50
08
78
88
88
88
70
ENDCHAR
STARTCHAR LATIN
ENCODING -1
SWIDTH 480 0
DWIDTH 6 0
BBX 5 8 1 0
BITMAP
28
50
00
70
88
88
88
70
ENDCHAR
STARTCHAR LATIN
ENCODING -1
SWIDTH 480 0
DWIDTH 6 0
BBX 5 5 1 0
BITMAP
78
98
A8
C8
F0
ENDCHAR
STARTCHAR LATIN
ENCODING -1
SWIDTH 480 0
DWIDTH 6 0
BBX 5 10 1 -2
BITMAP
10
20
00
88
88
88
88
78
08
30
ENDCHAR
STARTCHAR LATIN
ENCODING -1
SWIDTH 480 0
DWIDTH 6 0
BBX 5 9 1 -2
BITMAP
80
80
F0
88
88
88
F0
80
80
ENDCHAR
STARTCHAR LATIN
ENCODING -1
SWIDTH 480 0
DWIDTH 6 0
BBX 5 9 1 0
BITMAP
70
00
70
88
88
88
F8
88
88
ENDCHAR
STARTCHAR LATIN
ENCODING -1
SWIDTH 480 0
DWIDTH 6 0
BBX 5 7 1 0
BITMAP
70
00
70
08
78
88
78
ENDCHAR
STARTCHAR LATIN
ENCODING -1
SWIDTH 480 0
DWIDTH 6 0
BBX 5 10 1 0
BITMAP
88
70
00
70
88
88
88
F8
88
88
ENDCHAR
STARTCHAR LATIN
ENCODING -1
SWIDTH 480 0
DWIDTH 6 0
BBX 5 8 1 0
BITMAP
48
30
00
70
08
78
88
78
ENDCHAR
STARTCHAR LATIN
ENCODING -1
SWIDTH 480 0
DWIDTH 6 0
BBX 5 9 1 -2
BITMAP
70
88
88
88
F8
88
88
10
08
ENDCHAR
STARTCHAR LATIN
ENCODING -1
SWIDTH 480 0
DWIDTH 6 0
BBX 5 7 1 -2
BITMAP
70
08
78
88
78
10
08
ENDCHAR
STARTCHAR LATIN
ENCODING -1
SWIDTH 480 0
DWIDTH 6 0
BBX 5 10 1 0
BITMAP
10
20
00
78
80
80
80
80
80
78
ENDCHAR
STARTCHAR LATIN
ENCODING -1
SWIDTH 480 0
DWIDTH 6 0
BBX 5 8 1 0
BITMAP
10
20
00
78
80
80
80
78
ENDCHAR
STARTCHAR LATIN
ENCODING -1
SWIDTH 480 0
DWIDTH 6 0
BBX 5 10 1 0
BITMAP
20
50
00
78
80
80
80
80
80
78
ENDCHAR
STARTCHAR LATIN
ENCODING -1
SWIDTH 480 0
DWIDTH 6 0
BBX 5 8 1 0
BITMAP
20
50
00
78
80
80
80
78
ENDCHAR
STARTCHAR LATIN
ENCODING -1
SWIDTH 480 0
DWIDTH 6 0
BBX 5 9 1 0
BITMAP
20
00
78
80
80
80
80
80
78
ENDCHAR
STARTCHAR LATIN
ENCODING -1
SWIDTH 480 0
DWIDTH 6 0
BBX 5 7 1 0
BITMAP
20
00
78
80
80
80
78
ENDCHAR
STARTCHAR LATIN
ENCODING -1
SWIDTH 480 0
DWIDTH 6 0
BBX 5 10 1 0
BITMAP
50
20
00
78
80
80
80
80
80
78
ENDCHAR
STARTCHAR LATIN
ENCODING -1
SWIDTH 480 0
DWIDTH 6 0
BBX 5 8 1 0
BITMAP
50
20
00
78
80
80
80
78
ENDCHAR
STARTCHAR LATIN
ENCODING -1
SWIDTH 480 0
DWIDTH 6 0
BBX 5 10 1 0
BITMAP
50
20
00
F0
88
88
88
88
88
F0
ENDCHAR
STARTCHAR LATIN
ENCODING -1
SWIDTH 480 0
DWIDTH 6 0
BBX 5 10 1 0
BITMAP
08
10
00
08
08
78
88
88
88
78
ENDCHAR
STARTCHAR LATIN
ENCODING -1
SWIDTH 480 0
DWIDTH 6 0
BBX 6 7 0 0
BITMAP
78
44
44
F4
44
44
78
ENDCHAR
STARTCHAR LATIN
ENCODING -1
SWIDTH 480 0
DWIDTH 6 0
BBX 5 8 1 0
BITMAP
08
38
08
78
88
88
88
78
ENDCHAR
STARTCHAR LATIN
ENCODING -1
SWIDTH 480 0
DWIDTH 6 0
BBX 5 9 1 0
BITMAP
70
00
F8
80
80
E0
80
80
F8
ENDCHAR
STARTCHAR LATIN
ENCODING -1
SWIDTH 480 0
DWIDTH 6 0
BBX 5 7 1 0
BITMAP
70
00
70
88
F8
80
70
ENDCHAR
STARTCHAR LATIN
ENCODING -1
SWIDTH 480 0
DWIDTH 6 0
BBX 5 10 1 0
BITMAP
88
70
00
F8
80
80
E0
80
80
F8
ENDCHAR
STARTCHAR LATIN
ENCODING -1
SWIDTH 480 0
DWIDTH 6 0
BBX 5 8 1 0
BITMAP
88
70
00
70
88
F8
80
70
ENDCHAR
STARTCHAR LATIN
ENCODING -1
SWIDTH 480 0
DWIDTH 6 0
BBX 5 9 1 0
BITMAP
20
00
F8
80
80
E0
80
80
F8
ENDCHAR
STARTCHAR LATIN
ENCODING -1
SWIDTH 480 0
DWIDTH 6 0
BBX 5 7 1 0
BITMAP
20
00
70
88
F8
80
70
ENDCHAR
STARTCHAR LATIN
ENCODING -1
SWIDTH 480 0
DWIDTH 6 0
BBX 5 9 1 -2
BITMAP
F8
80
80
E0
80
80
F8
10
08
ENDCHAR
STARTCHAR LATIN
ENCODING -1
SWIDTH 480 0
DWIDTH 6 0
BBX 5 7 1 -2
BITMAP
70
88
F8
80
70
10
08
ENDCHAR
STARTCHAR LATIN
ENCODING -1
SWIDTH 480 0
DWIDTH 6 0
BBX 5 10 1 0
BITMAP
50
20
00
F8
80
80
E0
80
80
F8
ENDCHAR
STARTCHAR LATIN
ENCODING -1
SWIDTH 480 0
DWIDTH 6 0
BBX 5 8 1 0
BITMAP
50
20
00
70
88
F8
80
70
ENDCHAR
STARTCHAR LATIN
ENCODING -1
SWIDTH 480 0
DWIDTH 6 0
BBX 5 10 1 0
BITMAP
20
50
00
78
80
80
98
88
88
78
ENDCHAR
STARTCHAR LATIN
ENCODING -1
SWIDTH 480 0
DWIDTH 6 0
BBX 5 10 1 -2
BITMAP
20
50
00
78
88
88
88
78
08
30
ENDCHAR
STARTCHAR LATIN
ENCODING -1
SWIDTH 480 0
DWIDTH 6 0
BBX 5 10 1 0
BITMAP
48
30
00
78
80
80
98
88
88
78
ENDCHAR
STARTCHAR LATIN
ENCODING -1
SWIDTH 480 0
DWIDTH 6 0
BBX 5 10 1 -2
BITMAP
48
30
00
78
88
88
88
78
08
30
ENDCHAR
STARTCHAR LATIN
ENCODING -1
SWIDTH 480 0
DWIDTH 6 0
BBX 5 9 1 0
BITMAP
20
00
78
80
80
98
88
88
78
ENDCHAR
STARTCHAR LATIN
ENCODING -1
SWIDTH 480 0
DWIDTH 6 0
BBX 5 9 1 -2
BITMAP
20
00
78
88
88
88
78
08
30
ENDCHAR
STARTCHAR LATIN
ENCODING -1
SWIDTH 480 0
DWIDTH 6 0
BBX 5 9 1 -2
BITMAP
78
80
80
98
88
88
78
10
20
ENDCHAR
STARTCHAR LATIN
ENCODING -1
SWIDTH 480 0
DWIDTH 6 0
BBX 5 10 1 -2
BITMAP
10
20
00
78
88
88
88
78
08
30
ENDCHAR
STARTCHAR LATIN
ENCODING -1
SWIDTH 480 0
DWIDTH 6 0
BBX 5 10 1 0
BITMAP
20
50
00
88
88
88
F8
88
88
88
ENDCHAR
STARTCHAR LATIN
ENCODING -1
SWIDTH 480 0
DWIDTH 6 0
BBX 5 10 1 0
BITMAP
20
50
80
80
80
F0
88
88
88
88
ENDCHAR
STARTCHAR LATIN
ENCODING -1
SWIDTH 480 0
DWIDTH 6 0
BBX 5 7 1 0
BITMAP
88
F8
88
F8
88
88
88
ENDCHAR
STARTCHAR LATIN
ENCODING -1
SWIDTH 480 0
DWIDTH 6 0
BBX 5 8 1 0
BITMAP
80
E0
80
F0
88
88
88
88
ENDCHAR
STARTCHAR LATIN
ENCODING -1
SWIDTH 480 0
DWIDTH 6 0
BBX 4 10 2 0
BITMAP
50
A0
00
E0
40
40
40
40
40
E0
ENDCHAR
STARTCHAR LATIN
ENCODING -1
SWIDTH 480 0
DWIDTH 6 0
BBX 4 8 1 0
BITMAP
50
A0
00
60
20
20
20
20
ENDCHAR
STARTCHAR LATIN
ENCODING -1
SWIDTH 480 0
DWIDTH 6 0
BBX 3 9 2 0
BITMAP
E0
00
E0
40
40
40
40
40
E0
ENDCHAR
STARTCHAR LATIN
ENCODING -1
SWIDTH 480 0
DWIDTH 6 0
BBX 2 7 2 0
BITMAP
C0
00
C0
40
40
40
40
ENDCHAR
STARTCHAR LATIN
ENCODING -1
SWIDTH 480 0
DWIDTH 6 0
BBX 5 10 1 0
BITMAP
88
70
00
70
20
20
20
20
20
70
ENDCHAR
STARTCHAR LATIN
ENCODING -1
SWIDTH 480 0
DWIDTH 6 0
BBX 4 8 1 0
BITMAP
90
60
00
60
20
20
20
20
ENDCHAR
STARTCHAR LATIN
ENCODING -1
SWIDTH 480 0
DWIDTH 6 0
BBX 3 9 2 -2
BITMAP
E0
40
40
40
40
40
E0
40
20
ENDCHAR
STARTCHAR LATIN
ENCODING -1
SWIDTH 480 0
DWIDTH 6 0
BBX 3 9 2 -2
BITMAP
40
00
C0
40
40
40
40
40
20
ENDCHAR
STARTCHAR LATIN
ENCODING -1
SWIDTH 480 0
DWIDTH 6 0
BBX 3 9 2 0
BITMAP
40
00
E0
40
40
40
40
40
E0
ENDCHAR
STARTCHAR LATIN
ENCODING -1
SWIDTH 480 0
DWIDTH 6 0
BBX 2 5 2 0
BITMAP
C0
40
40
40
40
ENDCHAR
STARTCHAR LATIN
ENCODING -1
SWIDTH 480 0
DWIDTH 6 0
BBX 5 7 1 0
BITMAP
E8
48
48
48
48
48
F0
ENDCHAR
STARTCHAR LATIN
ENCODING -1
SWIDTH 480 0
DWIDTH 6 0
BBX 5 9 1 -2
BITMAP
48
00
D8
48
48
48
48
08
10
ENDCHAR
STARTCHAR LATIN
ENCODING -1
SWIDTH 480 0
DWIDTH 6 0
BBX 5 10 1 0
BITMAP
10
28
00
08
08
08
08
08
88
70
ENDCHAR
STARTCHAR LATIN
ENCODING -1
SWIDTH 480 0
DWIDTH 6 0
BBX 3 10 2 -2
BITMAP
40
A0
00
C0
40
40
40
40
40
80
ENDCHAR
STARTCHAR LATIN
ENCODING -1
SWIDTH 480 0
DWIDTH 6 0
BBX 5 9 1 -2
BITMAP
88
90
A0
C0
A0
90
88
20
40
ENDCHAR
STARTCHAR LATIN
ENCODING -1
SWIDTH 480 0
DWIDTH 6 0
BBX 4 10 2 -2
BITMAP
80
80
80
90
A0
C0
A0
90
20
40
ENDCHAR
STARTCHAR LATIN
ENCODING -1
SWIDTH 480 0
DWIDTH 6 0
BBX 4 5 2 0
BITMAP
90
A0
C0
A0
90
ENDCHAR
STARTCHAR LATIN
ENCODING -1
SWIDTH 480 0
DWIDTH 6 0
BBX 5 10 1 0
BITMAP
40
80
00
80
80
80
80
80
80
F8
ENDCHAR
STARTCHAR LATIN
ENCODING -1
SWIDTH 480 0
DWIDTH 6 0
BBX 3 10 2 0
BITMAP
40
80
00
80
80
80
80
80
80
60
ENDCHAR
STARTCHAR LATIN
ENCODING -1
SWIDTH 480 0
DWIDTH 6 0
BBX 5 9 1 -2
BITMAP
80
80
80
80
80
80
F8
20
40
ENDCHAR
STARTCHAR LATIN
ENCODING -1
SWIDTH 480 0
DWIDTH 6 0
BBX 3 10 2 -2
BITMAP
80
80
80
80
80
80
80
60
40
80
ENDCHAR
STARTCHAR LATIN
ENCODING -1
SWIDTH 480 0
DWIDTH 6 0
BBX 5 7 1 0
BITMAP
90
A0
80
80
80
80
F8
ENDCHAR
STARTCHAR LATIN
ENCODING -1
SWIDTH 480 0
DWIDTH 6 0
BBX 4 8 2 0
BITMAP
90
A0
80
80
80
80
80
60
ENDCHAR
STARTCHAR LATIN
ENCODING -1
SWIDTH 480 0
DWIDTH 6 0
BBX 5 7 1 0
BITMAP
80
80
90
80
80
80
F8
ENDCHAR
STARTCHAR LATIN
ENCODING -1
SWIDTH 480 0
DWIDTH 6 0
BBX 3 8 2 0
BITMAP
80
80
A0
80
80
80
80
60
ENDCHAR
STARTCHAR LATIN
ENCODING -1
SWIDTH 480 0
DWIDTH 6 0
BBX 6 7 0 0
BITMAP
40
50
60
40
C0
40
7C
ENDCHAR
STARTCHAR LATIN
ENCODING -1
SWIDTH 480 0
DWIDTH 6 0
BBX 4 8 1 0
BITMAP
40
40
40
60
C0
40
40
30
ENDCHAR
STARTCHAR LATIN
ENCODING -1
SWIDTH 480 0
DWIDTH 6 0
BBX 5 10 1 0
BITMAP
10
20
00
88
88
C8
A8
98
88
88
ENDCHAR
STARTCHAR LATIN
ENCODING -1
SWIDTH 480 0
DWIDTH 6 0
BBX 5 8 1 0
BITMAP
10
20
00
F0
88
88
88
88
ENDCHAR
STARTCHAR LATIN
ENCODING -1
SWIDTH 480 0
DWIDTH 6 0
BBX 5 9 1 -2
BITMAP
88
88
C8
A8
98
88
88
20
40
ENDCHAR
STARTCHAR LATIN
ENCODING -1
SWIDTH 480 0
DWIDTH 6 0
BBX 5 7 1 -2
BITMAP
F0
88
88
88
88
20
40
ENDCHAR
STARTCHAR LATIN
ENCODING -1
SWIDTH 480 0
DWIDTH 6 0
BBX 5 10 1 0
BITMAP
50
20
00
88
88
C8
A8
98
88
88
ENDCHAR
STARTCHAR LATIN
ENCODING -1
SWIDTH 480 0
DWIDTH 6 0
BBX 5 8 1 0
BITMAP
50
20
00
F0
88
88
88
88
ENDCHAR
STARTCHAR LATIN
ENCODING -1
SWIDTH 480 0
DWIDTH 6 0
BBX 6 7 0 0
BITMAP
40
80
78
44
44
44
44
ENDCHAR
STARTCHAR LATIN
ENCODING -1
SWIDTH 480 0
DWIDTH 6 0
BBX 5 9 1 -2
BITMAP
88
88
C8
A8
98
88
88
08
10
ENDCHAR
STARTCHAR LATIN
ENCODING -1
SWIDTH 480 0
DWIDTH 6 0
BBX 5 7 1 -2
BITMAP
F0
88
88
88
88
08
10
ENDCHAR
STARTCHAR LATIN
ENCODING -1
SWIDTH 480 0
DWIDTH 6 0
BBX 5 9 1 0
BITMAP
70
00
70
88
88
88
88
88
70
ENDCHAR
STARTCHAR LATIN
ENCODING -1
SWIDTH 480 0
DWIDTH 6 0
BBX 5 7 1 0
BITMAP
70
00
70
88
88
88
70
ENDCHAR
STARTCHAR LATIN
ENCODING -1
SWIDTH 480 0
DWIDTH 6 0
BBX 5 10 1 0
BITMAP
88
70
00
70
88
88
88
88
88
70
ENDCHAR
STARTCHAR LATIN
ENCODING -1
SWIDTH 480 0
DWIDTH 6 0
BBX 5 8 1 0
BITMAP
88
70
00
70
88
88
88
70
ENDCHAR
STARTCHAR LATIN
ENCODING -1
SWIDTH 480 0
DWIDTH 6 0
BBX 5 10 1 0
BITMAP
48
90
00
70
88
88
88
88
88
70
ENDCHAR
STARTCHAR LATIN
ENCODING -1
SWIDTH 480 0
DWIDTH 6 0
BBX 5 8 1 0
BITMAP
48
90
00
70
88
88
88
70
ENDCHAR
STARTCHAR LATIN
ENCODING -1
SWIDTH 480 0
DWIDTH 6 0
BBX 5 7 1 0
BITMAP
78
A0
A0
B0
A0
A0
78
ENDCHAR
STARTCHAR LATIN
ENCODING -1
SWIDTH 480 0
DWIDTH 6 0
BBX 5 5 1 0
BITMAP
50
A8
B8
A0
50
ENDCHAR
STARTCHAR LATIN
ENCODING -1
SWIDTH 480 0
DWIDTH 6 0
BBX 5 10 1 0
BITMAP
10
20
00
F0
88
88
88
F0
90
88
ENDCHAR
STARTCHAR LATIN
ENCODING -1
SWIDTH 480 0
DWIDTH 6 0
BBX 5 8 1 0
BITMAP
10
20
00
B8
C0
80
80
80
ENDCHAR
STARTCHAR LATIN
ENCODING -1
SWIDTH 480 0
DWIDTH 6 0
BBX 5 9 1 -2
BITMAP
F0
88
88
88
F0
90
88
20
40
ENDCHAR
STARTCHAR LATIN
ENCODING -1
SWIDTH 480 0
DWIDTH 6 0
BBX 5 7 1 -2
BITMAP
B8
C0
80
80
80
40
80
ENDCHAR
STARTCHAR LATIN
ENCODING -1
SWIDTH 480 0
DWIDTH 6 0
BBX 5 10 1 0
BITMAP
50
20
00
F0
88
88
88
F0
90
88
ENDCHAR
STARTCHAR LATIN
ENCODING -1
SWIDTH 480 0
DWIDTH 6 0
BBX 5 8 1 0
BITMAP
50
20
00
B8
C0
80
80
80
ENDCHAR
STARTCHAR LATIN
ENCODING -1
SWIDTH 480 0
DWIDTH 6 0
BBX 5 10 1 0
BITMAP
10
20
00
78
80
80
70
08
08
F0
ENDCHAR
STARTCHAR LATIN
ENCODING -1
SWIDTH 480 0
DWIDTH 6 0
BBX 5 8 1 0
BITMAP
10
20
00
78
80
70
08
F0
ENDCHAR
STARTCHAR LATIN
ENCODING -1
SWIDTH 480 0
DWIDTH 6 0
BBX 5 10 1 0
BITMAP
20
50
00
78
80
80
70
08
08
F0
ENDCHAR
STARTCHAR LATIN
ENCODING -1
SWIDTH 480 0
DWIDTH 6 0
BBX 5 8 1 0
BITMAP
20
50
00
78
80
70
08
F0
ENDCHAR
STARTCHAR LATIN
ENCODING -1
SWIDTH 480 0
DWIDTH 6 0
BBX 5 9 1 -2
BITMAP
78
80
80
70
08
08
F0
20
40
ENDCHAR
STARTCHAR LATIN
ENCODING -1
SWIDTH 480 0
DWIDTH 6 0
BBX 5 7 1 -2
BITMAP
78
80
70
08
F0
20
40
ENDCHAR
STARTCHAR LATIN
ENCODING -1
SWIDTH 480 0
DWIDTH 6 0
BBX 5 10 1 0
BITMAP
50
20
00
78
80
80
70
08
08
F0
ENDCHAR
STARTCHAR LATIN
ENCODING -1
SWIDTH 480 0
DWIDTH 6 0
BBX 5 8 1 0
BITMAP
50
20
00
78
80
70
08
F0
ENDCHAR
STARTCHAR LATIN
ENCODING -1
SWIDTH 480 0
DWIDTH 6 0
BBX 5 9 1 -2
BITMAP
F8
20
20
20
20
20
20
20
40
ENDCHAR
STARTCHAR LATIN
ENCODING -1
SWIDTH 480 0
DWIDTH 6 0
BBX 4 10 1 -2
BITMAP
40
40
40
E0
40
40
40
30
20
40
ENDCHAR
STARTCHAR LATIN
ENCODING -1
SWIDTH 480 0
DWIDTH 6 0
BBX 5 10 1 0
BITMAP
50
20
00
F8
20
20
20
20
20
20
ENDCHAR
STARTCHAR LATIN
ENCODING -1
SWIDTH 480 0
DWIDTH 6 0
BBX 4 9 1 0
BITMAP
10
60
40
40
E0
40
40
40
30
ENDCHAR
STARTCHAR LATIN
ENCODING -1
SWIDTH 480 0
DWIDTH 6 0
BBX 5 7 1 0
BITMAP
F8
20
20
70
20
20
20
ENDCHAR
STARTCHAR LATIN
ENCODING -1
SWIDTH 480 0
DWIDTH 6 0
BBX 4 8 1 0
BITMAP
40
40
E0
40
E0
40
40
30
ENDCHAR
STARTCHAR LATIN
ENCODING -1
SWIDTH 480 0
DWIDTH 6 0
BBX 5 10 1 0
BITMAP
28
50
00
88
88
88
88
88
88
70
ENDCHAR
STARTCHAR LATIN
ENCODING -1
SWIDTH 480 0
DWIDTH 6 0
BBX 5 8 1 0
BITMAP
28
50
00
88
88
88
88
78
ENDCHAR
STARTCHAR LATIN
ENCODING -1
SWIDTH 480 0
DWIDTH 6 0
BBX 5 9 1 0
BITMAP
70
00
88
88
88
88
88
88
70
ENDCHAR
STARTCHAR LATIN
ENCODING -1
SWIDTH 480 0
DWIDTH 6 0
BBX 5 7 1 0
BITMAP
70
00
88
88
88
88
78
ENDCHAR
STARTCHAR LATIN
ENCODING -1
SWIDTH 480 0
DWIDTH 6 0
BBX 5 10 1 0
BITMAP
88
70
00
88
88
88
88
88
88
70
ENDCHAR
STARTCHAR LATIN
ENCODING -1
SWIDTH 480 0
DWIDTH 6 0
BBX 5 8 1 0
BITMAP
88
70
00
88
88
88
88
78
ENDCHAR
STARTCHAR LATIN
ENCODING -1
SWIDTH 480 0
DWIDTH 6 0
BBX 5 10 1 0
BITMAP
20
50
20
88
88
88
88
88
88
70
ENDCHAR
STARTCHAR LATIN
ENCODING -1
SWIDTH 480 0
DWIDTH 6 0
BBX 5 9 1 0
BITMAP
20
50
20
00
88
88
88
88
78
ENDCHAR
STARTCHAR LATIN
ENCODING -1
SWIDTH 480 0
DWIDTH 6 0
BBX 5 10 1 0
BITMAP
48
90
00
88
88
88
88
88
88
70
ENDCHAR
STARTCHAR LATIN
ENCODING -1
SWIDTH 480 0
DWIDTH 6 0
BBX 5 8 1 0
BITMAP
48
90
00
88
88
88
88
78
ENDCHAR
STARTCHAR LATIN
ENCODING -1
SWIDTH 480 0
DWIDTH 6 0
BBX 5 9 1 -2
BITMAP
88
88
88
88
88
88
70
20
10
ENDCHAR
STARTCHAR LATIN
ENCODING -1
SWIDTH 480 0
DWIDTH 6 0
BBX 5 7 1 -2
BITMAP
88
88
88
88
78
10
08
ENDCHAR
STARTCHAR LATIN
ENCODING -1
SWIDTH 480 0
DWIDTH 6 0
BBX 5 10 1 0
BITMAP
20
50
00
88
88
88
88
A8
D8
88
ENDCHAR
STARTCHAR LATIN
ENCODING -1
SWIDTH 480 0
DWIDTH 6 0
BBX 5 8 1 0
BITMAP
20
50
00
88
88
A8
D8
88
ENDCHAR
STARTCHAR LATIN
ENCODING -1
SWIDTH 480 0
DWIDTH 6 0
BBX 5 10 1 0
BITMAP
20
50
00
88
88
50
20
20
20
20
ENDCHAR
STARTCHAR LATIN
ENCODING -1
SWIDTH 480 0
DWIDTH 6 0
BBX 5 10 1 -2
BITMAP
20
50
00
88
88
88
88
78
08
30
ENDCHAR
STARTCHAR LATIN
ENCODING -1
SWIDTH 480 0
DWIDTH 6 0
BBX 5 9 1 0
BITMAP
50
00
88
88
50
20
20
20
20
ENDCHAR
STARTCHAR LATIN
ENCODING -1
SWIDTH 480 0
DWIDTH 6 0
BBX 5 10 1 0
BITMAP
10
20
00
F8
08
10
20
40
80
F8
ENDCHAR
STARTCHAR LATIN
ENCODING -1
SWIDTH 480 0
DWIDTH 6 0
BBX 5 8 1 0
BITMAP
10
20
00
F8
10
20
40
F8
ENDCHAR
STARTCHAR LATIN
ENCODING -1
SWIDTH 480 0
DWIDTH 6 0
BBX 5 9 1 0
BITMAP
20
00
F8
08
10
20
40
80
F8
ENDCHAR
STARTCHAR LATIN
ENCODING -1
SWIDTH 480 0
DWIDTH 6 0
BBX 5 7 1 0
BITMAP
20
00
F8
10
20
40
F8
ENDCHAR
STARTCHAR LATIN
ENCODING -1
SWIDTH 480 0
DWIDTH 6 0
BBX 5 10 1 0
BITMAP
50
20
00
F8
08
10
20
40
80
F8
ENDCHAR
STARTCHAR LATIN
ENCODING -1
SWIDTH 480 0
DWIDTH 6 0
BBX 5 8 1 0
BITMAP
50
20
00
F8
10
20
40
F8
ENDCHAR
STARTCHAR LATIN
ENCODING -1
SWIDTH 480 0
DWIDTH 6 0
BBX 3 8 2 0
BITMAP
60
80
80
80
80
80
80
80
ENDCHAR
STARTCHAR LATIN
ENCODING -1
SWIDTH 480 0
DWIDTH 6 0
BBX 5 7 1 0
BITMAP
F8
08
08
38
08
08
F8
ENDCHAR
STARTCHAR LATIN
ENCODING -1
SWIDTH 480 0
DWIDTH 6 0
BBX 5 7 1 0
BITMAP
70
08
08
F8
88
88
70
ENDCHAR
STARTCHAR LATIN
ENCODING -1
SWIDTH 480 0
DWIDTH 6 0
BBX 5 8 1 0
BITMAP
08
68
98
90
90
90
90
60
ENDCHAR
STARTCHAR LATIN
ENCODING -1
SWIDTH 480 0
DWIDTH 6 0
BBX 5 6 1 0
BITMAP
08
68
98
90
90
60
ENDCHAR
STARTCHAR LATIN
ENCODING -1
SWIDTH 480 0
DWIDTH 6 0
BBX 5 8 1 0
BITMAP
08
98
98
90
90
90
90
60
ENDCHAR
STARTCHAR LATIN
ENCODING -1
SWIDTH 480 0
DWIDTH 6 0
BBX 5 6 1 0
BITMAP
08
98
98
90
90
70
ENDCHAR
STARTCHAR LATIN
ENCODING -1
SWIDTH 480 0
DWIDTH 6 0
BBX 5 7 1 0
BITMAP
F8
08
10
F8
40
80
F8
ENDCHAR
STARTCHAR LATIN
ENCODING -1
SWIDTH 480 0
DWIDTH 6 0
BBX 5 5 1 0
BITMAP
F8
10
F8
40
F8
ENDCHAR
STARTCHAR LATIN
ENCODING -1
SWIDTH 480 0
DWIDTH 6 0
BBX 5 7 1 0
BITMAP
F8
10
20
70
08
08
F0
ENDCHAR
STARTCHAR LATIN
ENCODING -1
SWIDTH 480 0
DWIDTH 6 0
BBX 5 10 1 0
BITMAP
50
20
00
70
88
88
88
F8
88
88
ENDCHAR
STARTCHAR LATIN
ENCODING -1
SWIDTH 480 0
DWIDTH 6 0
BBX 5 8 1 0
BITMAP
50
20
00
70
08
78
88
78
ENDCHAR
STARTCHAR LATIN
ENCODING -1
SWIDTH 480 0
DWIDTH 6 0
BBX 3 10 2 0
BITMAP
A0
40
00
E0
40
40
40
40
40
E0
ENDCHAR
STARTCHAR LATIN
ENCODING -1
SWIDTH 480 0
DWIDTH 6 0
BBX 3 8 2 0
BITMAP
A0
40
00
C0
40
40
40
40
ENDCHAR
STARTCHAR LATIN
ENCODING -1
SWIDTH 480 0
DWIDTH 6 0
BBX 5 10 1 0
BITMAP
50
20
00
70
88
88
88
88
88
70
ENDCHAR
STARTCHAR LATIN
ENCODING -1
SWIDTH 480 0
DWIDTH 6 0
BBX 5 8 1 0
BITMAP
50
20
00
70
88
88
88
70
ENDCHAR
STARTCHAR LATIN
ENCODING -1
SWIDTH 480 0
DWIDTH 6 0
BBX 5 10 1 0
BITMAP
50
20
00
88
88
88
88
88
88
70
ENDCHAR
STARTCHAR LATIN
ENCODING -1
SWIDTH 480 0
DWIDTH 6 0
BBX 5 8 1 0
BITMAP
50
20
00
88
88
88
88
78
ENDCHAR
STARTCHAR LATIN
ENCODING -1
SWIDTH 480 0
DWIDTH 6 0
BBX 5 10 1 0
BITMAP
70
00
50
00
88
88
88
88
88
70
ENDCHAR
STARTCHAR LATIN
ENCODING -1
SWIDTH 480 0
DWIDTH 6 0
BBX 5 9 1 0
BITMAP
70
00
50
00
88
88
88
88
78
ENDCHAR
STARTCHAR LATIN
ENCODING -1
SWIDTH 480 0
DWIDTH 6 0
BBX 5 10 1 0
BITMAP
10
20
88
00
88
88
88
88
88
70
ENDCHAR
STARTCHAR LATIN
ENCODING -1
SWIDTH 480 0
DWIDTH 6 0
BBX 5 10 1 0
BITMAP
10
20
00
50
00
88
88
88
88
78
ENDCHAR
STARTCHAR LATIN
ENCODING -1
SWIDTH 480 0
DWIDTH 6 0
BBX 5 10 1 0
BITMAP
50
20
88
00
88
88
88
88
88
70
ENDCHAR
STARTCHAR LATIN
ENCODING -1
SWIDTH 480 0
DWIDTH 6 0
BBX 5 10 1 0
BITMAP
50
20
00
50
00
88
88
88
88
78
ENDCHAR
STARTCHAR LATIN
ENCODING -1
SWIDTH 480 0
DWIDTH 6 0
BBX 5 10 1 0
BITMAP
40
20
88
00
88
88
88
88
88
70
ENDCHAR
STARTCHAR LATIN
ENCODING -1
SWIDTH 480 0
DWIDTH 6 0
BBX 5 10 1 0
BITMAP
40
20
00
50
00
88
88
88
88
78
ENDCHAR
STARTCHAR LATIN
ENCODING -1
SWIDTH 480 0
DWIDTH 6 0
BBX 5 5 1 0
BITMAP
70
08
F8
88
70
ENDCHAR
STARTCHAR LATIN
ENCODING -1
SWIDTH 480 0
DWIDTH 6 0
BBX 5 7 1 0
BITMAP
78
80
98
88
98
88
78
ENDCHAR
STARTCHAR LATIN
ENCODING -1
SWIDTH 480 0
DWIDTH 6 0
BBX 5 7 1 -2
BITMAP
78
88
F8
88
78
08
30
ENDCHAR
STARTCHAR LATIN
ENCODING -1
SWIDTH 480 0
DWIDTH 6 0
BBX 5 10 1 0
BITMAP
50
20
00
78
80
80
98
88
88
78
ENDCHAR
STARTCHAR LATIN
ENCODING -1
SWIDTH 480 0
DWIDTH 6 0
BBX 5 10 1 -2
BITMAP
50
20
00
78
88
88
88
78
08
30
ENDCHAR
STARTCHAR LATIN
ENCODING -1
SWIDTH 480 0
DWIDTH 6 0
BBX 5 10 1 0
BITMAP
50
20
00
88
90
A0
C0
A0
90
88
ENDCHAR
STARTCHAR LATIN
ENCODING -1
SWIDTH 480 0
DWIDTH 6 0
BBX 4 10 2 0
BITMAP
50
20
80
80
80
90
A0
C0
A0
90
ENDCHAR
STARTCHAR LATIN
ENCODING -1
SWIDTH 480 0
DWIDTH 6 0
BBX 5 10 1 0
BITMAP
50
20
00
F8
10
20
70
08
08
F0
ENDCHAR
STARTCHAR LATIN
ENCODING -1
SWIDTH 480 0
DWIDTH 6 0
BBX 5 10 1 -2
BITMAP
50
20
00
F8
10
20
70
08
08
F0
ENDCHAR
STARTCHAR LATIN
ENCODING -1
SWIDTH 480 0
DWIDTH 6 0
BBX 5 10 1 0
BITMAP
10
20
50
70
88
88
88
F8
88
88
ENDCHAR
STARTCHAR LATIN
ENCODING -1
SWIDTH 480 0
DWIDTH 6 0
BBX 5 10 1 0
BITMAP
10
20
20
50
20
78
08
78
88
78
ENDCHAR
STARTCHAR LATIN
ENCODING -1
SWIDTH 480 0
DWIDTH 6 0
BBX 5 10 1 0
BITMAP
10
20
00
78
A0
A0
B0
E0
A0
B8
ENDCHAR
STARTCHAR LATIN
ENCODING -1
SWIDTH 480 0
DWIDTH 6 0
BBX 6 8 0 0
BITMAP
08
10
00
68
14
7C
90
7C
ENDCHAR
STARTCHAR LATIN
ENCODING -1
SWIDTH 480 0
DWIDTH 6 0
BBX 5 10 1 0
BITMAP
10
20
00
78
98
98
A8
C8
C8
F0
ENDCHAR
STARTCHAR LATIN
ENCODING -1
SWIDTH 480 0
DWIDTH 6 0
BBX 5 8 1 0
BITMAP
10
20
00
78
98
A8
C8
F0
ENDCHAR
STARTCHAR LATIN
ENCODING -1
SWIDTH 480 0
DWIDTH 6 0
BBX 5 9 1 -2
BITMAP
78
80
80
70
08
08
F0
20
40
ENDCHAR
STARTCHAR LATIN
ENCODING -1
SWIDTH 480 0
DWIDTH 6 0
BBX 5 7 1 -2
BITMAP
78
80
70
08
F0
20
40
ENDCHAR
STARTCHAR LATIN
ENCODING -1
SWIDTH 480 0
DWIDTH 6 0
BBX 5 9 1 -2
BITMAP
F8
20
20
20
20
20
20
20
40
ENDCHAR
STARTCHAR LATIN
ENCODING -1
SWIDTH 480 0
DWIDTH 6 0
BBX 4 10 1 -2
BITMAP
40
40
40
E0
40
40
40
30
20
40
ENDCHAR
STARTCHAR LATIN
ENCODING -1
SWIDTH 480 0
DWIDTH 6 0
BBX 5 5 1 0
BITMAP
F0
88
F0
80
70
ENDCHAR
STARTCHAR LATIN
ENCODING -1
SWIDTH 480 0
DWIDTH 6 0
BBX 5 5 1 0
BITMAP
78
88
88
88
78
ENDCHAR
STARTCHAR LATIN
ENCODING -1
SWIDTH 480 0
DWIDTH 6 0
BBX 5 5 1 0
BITMAP
F0
88
88
88
F0
ENDCHAR
STARTCHAR LATIN
ENCODING -1
SWIDTH 480 0
DWIDTH 6 0
BBX 5 9 1 0
BITMAP
40
80
80
80
F0
88
88
88
F0
ENDCHAR
STARTCHAR LATIN
ENCODING -1
SWIDTH 480 0
DWIDTH 6 0
BBX 5 5 1 0
BITMAP
F0
08
08
08
F0
ENDCHAR
STARTCHAR LATIN
ENCODING -1
SWIDTH 480 0
DWIDTH 6 0
BBX 5 6 1 -1
BITMAP
78
80
80
98
78
10
ENDCHAR
STARTCHAR LATIN
ENCODING -1
SWIDTH 480 0
DWIDTH 6 0
BBX 5 10 1 -2
BITMAP
10
10
10
70
90
90
90
70
10
08
ENDCHAR
STARTCHAR LATIN
ENCODING -1
SWIDTH 480 0
DWIDTH 6 0
BBX 5 9 1 0
BITMAP
08
10
10
10
70
90
90
90
70
ENDCHAR
STARTCHAR LATIN
ENCODING -1
SWIDTH 480 0
DWIDTH 6 0
BBX 5 5 1 0
BITMAP
70
88
F8
08
70
ENDCHAR
STARTCHAR LATIN
ENCODING -1
SWIDTH 480 0
DWIDTH 6 0
BBX 5 5 1 0
BITMAP
70
08
F8
88
70
ENDCHAR
STARTCHAR LATIN
ENCODING -1
SWIDTH 480 0
DWIDTH 6 0
BBX 6 5 0 0
BITMAP
60
10
F8
94
60
ENDCHAR
STARTCHAR LATIN
ENCODING -1
SWIDTH 480 0
DWIDTH 6 0
BBX 5 5 1 0
BITMAP
78
80
60
80
78
ENDCHAR
STARTCHAR LATIN
ENCODING -1
SWIDTH 480 0
DWIDTH 6 0
BBX 5 5 1 0
BITMAP
F0
08
30
08
F0
ENDCHAR
STARTCHAR LATIN
ENCODING -1
SWIDTH 480 0
DWIDTH 6 0
BBX 5 5 1 0
BITMAP
C0
30
48
20
C0
ENDCHAR
STARTCHAR LATIN
ENCODING -1
SWIDTH 480 0
DWIDTH 6 0
BBX 5 5 1 0
BITMAP
70
88
B0
88
70
ENDCHAR
STARTCHAR LATIN
ENCODING -1
SWIDTH 480 0
DWIDTH 6 0
BBX 3 7 2 -2
BITMAP
C0
40
E0
40
40
40
80
ENDCHAR
STARTCHAR LATIN
ENCODING -1
SWIDTH 480 0
DWIDTH 6 0
BBX 5 9 1 -2
BITMAP
08
10
70
90
90
90
70
10
60
ENDCHAR
STARTCHAR LATIN
ENCODING -1
SWIDTH 480 0
DWIDTH 6 0
BBX 5 7 1 -2
BITMAP
78
88
88
98
68
08
70
ENDCHAR
STARTCHAR LATIN
ENCODING -1
SWIDTH 480 0
DWIDTH 6 0
BBX 5 5 1 0
BITMAP
78
80
98
88
78
ENDCHAR
STARTCHAR LATIN
ENCODING -1
SWIDTH 480 0
DWIDTH 6 0
BBX 5 7 1 -2
BITMAP
88
88
50
50
20
50
20
ENDCHAR
STARTCHAR LATIN
ENCODING -1
SWIDTH 480 0
DWIDTH 6 0
BBX 5 5 1 0
BITMAP
88
50
20
50
20
ENDCHAR
STARTCHAR LATIN
ENCODING -1
SWIDTH 480 0
DWIDTH 6 0
BBX 5 7 1 -2
BITMAP
88
88
88
88
78
08
08
ENDCHAR
STARTCHAR LATIN
ENCODING -1
SWIDTH 480 0
DWIDTH 6 0
BBX 5 9 1 0
BITMAP
40
80
80
80
F0
88
88
88
88
ENDCHAR
STARTCHAR LATIN
ENCODING -1
SWIDTH 480 0
DWIDTH 6 0
BBX 5 11 1 -2
BITMAP
40
80
80
80
F0
88
88
88
88
08
10
ENDCHAR
STARTCHAR LATIN
ENCODING -1
SWIDTH 480 0
DWIDTH 6 0
BBX 3 7 2 0
BITMAP
40
00
C0
40
E0
40
40
ENDCHAR
STARTCHAR LATIN
ENCODING -1
SWIDTH 480 0
DWIDTH 6 0
BBX 2 5 3 0
BITMAP
80
80
80
80
40
ENDCHAR
STARTCHAR LATIN
ENCODING -1
SWIDTH 480 0
DWIDTH 6 0
BBX 3 5 2 0
BITMAP
E0
40
40
40
E0
ENDCHAR
STARTCHAR LATIN
ENCODING -1
SWIDTH 480 0
DWIDTH 6 0
BBX 5 8 1 0
BITMAP
20
20
20
68
B0
20
20
18
ENDCHAR
STARTCHAR LATIN
ENCODING -1
SWIDTH 480 0
DWIDTH 6 0
BBX 5 8 1 0
BITMAP
20
20
20
E0
F8
20
20
18
ENDCHAR
STARTCHAR LATIN
ENCODING -1
SWIDTH 480 0
DWIDTH 6 0
BBX 4 10 2 -2
BITMAP
80
80
80
80
80
80
80
60
20
10
ENDCHAR
STARTCHAR LATIN
ENCODING -1
SWIDTH 480 0
DWIDTH 6 0
BBX 5 10 1 -2
BITMAP
80
80
80
F8
90
A0
90
48
08
70
ENDCHAR
STARTCHAR LATIN
ENCODING -1
SWIDTH 480 0
DWIDTH 6 0
BBX 5 5 1 0
BITMAP
88
A8
A8
A8
58
ENDCHAR
STARTCHAR LATIN
ENCODING -1
SWIDTH 480 0
DWIDTH 6 0
BBX 5 7 1 -2
BITMAP
88
A8
A8
A8
58
08
08
ENDCHAR
STARTCHAR LATIN
ENCODING -1
SWIDTH 480 0
DWIDTH 6 0
BBX 5 7 1 -2
BITMAP
D0
A8
A8
A8
88
08
10
ENDCHAR
STARTCHAR LATIN
ENCODING -1
SWIDTH 480 0
DWIDTH 6 0
BBX 6 7 0 -2
BITMAP
78
44
44
44
44
40
80
ENDCHAR
STARTCHAR LATIN
ENCODING -1
SWIDTH 480 0
DWIDTH 6 0
BBX 5 7 1 -2
BITMAP
E0
90
90
90
90
10
08
ENDCHAR
STARTCHAR LATIN
ENCODING -1
SWIDTH 480 0
DWIDTH 6 0
BBX 5 5 1 0
BITMAP
88
C8
A8
98
88
ENDCHAR
STARTCHAR LATIN
ENCODING -1
SWIDTH 480 0
DWIDTH 6 0
BBX 5 5 1 0
BITMAP
70
88
F8
88
70
ENDCHAR
STARTCHAR LATIN
ENCODING -1
SWIDTH 480 0
DWIDTH 6 0
BBX 5 5 1 0
BITMAP
78
A0
B0
A0
78
ENDCHAR
STARTCHAR LATIN
ENCODING -1
SWIDTH 480 0
DWIDTH 6 0
BBX 5 5 1 0
BITMAP
70
88
A8
A8
50
ENDCHAR
STARTCHAR LATIN
ENCODING -1
SWIDTH 480 0
DWIDTH 6 0
BBX 5 9 1 -2
BITMAP
20
20
70
A8
A8
A8
70
20
20
ENDCHAR
STARTCHAR LATIN
ENCODING -1
SWIDTH 480 0
DWIDTH 6 0
BBX 5 5 1 0
BITMAP
08
08
08
18
E8
ENDCHAR
STARTCHAR LATIN
ENCODING -1
SWIDTH 480 0
DWIDTH 6 0
BBX 5 7 1 0
BITMAP
08
08
08
08
08
18
E8
ENDCHAR
STARTCHAR LATIN
ENCODING -1
SWIDTH 480 0
DWIDTH 6 0
BBX 5 7 1 -2
BITMAP
10
10
10
30
D0
10
08
ENDCHAR
STARTCHAR LATIN
ENCODING -1
SWIDTH 480 0
DWIDTH 6 0
BBX 5 7 1 -2
BITMAP
B8
C0
80
80
80
80
80
ENDCHAR
STARTCHAR LATIN
ENCODING -1
SWIDTH 480 0
DWIDTH 6 0
BBX 5 7 1 -2
BITMAP
B8
C0
80
80
80
80
40
ENDCHAR
STARTCHAR LATIN
ENCODING -1
SWIDTH 480 0
DWIDTH 6 0
BBX 5 5 1 0
BITMAP
38
40
40
40
E0
ENDCHAR
STARTCHAR LATIN
ENCODING -1
SWIDTH 480 0
DWIDTH 6 0
BBX 5 5 1 0
BITMAP
E0
10
10
10
38
ENDCHAR
STARTCHAR LATIN
ENCODING -1
SWIDTH 480 0
DWIDTH 6 0
BBX 5 5 1 0
BITMAP
F0
88
F0
90
88
ENDCHAR
STARTCHAR LATIN
ENCODING -1
SWIDTH 480 0
DWIDTH 6 0
BBX 5 5 1 0
BITMAP
88
90
F0
88
F0
ENDCHAR
STARTCHAR LATIN
ENCODING -1
SWIDTH 480 0
DWIDTH 6 0
BBX 5 7 1 -2
BITMAP
78
80
70
08
F0
80
40
ENDCHAR
STARTCHAR LATIN
ENCODING -1
SWIDTH 480 0
DWIDTH 6 0
BBX 5 10 1 -2
BITMAP
18
20
20
20
20
20
20
20
20
C0
ENDCHAR
STARTCHAR LATIN
ENCODING -1
SWIDTH 480 0
DWIDTH 6 0
BBX 3 9 2 -2
BITMAP
20
40
C0
40
E0
40
40
40
80
ENDCHAR
STARTCHAR LATIN
ENCODING -1
SWIDTH 480 0
DWIDTH 6 0
BBX 5 7 1 -2
BITMAP
C0
20
20
20
20
20
18
ENDCHAR
STARTCHAR LATIN
ENCODING -1
SWIDTH 480 0
DWIDTH 6 0
BBX 5 10 1 -2
BITMAP
18
20
20
20
20
20
20
20
F0
C0
ENDCHAR
STARTCHAR LATIN
ENCODING -1
SWIDTH 480 0
DWIDTH 6 0
BBX 4 7 2 -2
BITMAP
C0
20
20
20
70
20
20
ENDCHAR
STARTCHAR LATIN
ENCODING -1
SWIDTH 480 0
DWIDTH 6 0
BBX 5 10 1 -2
BITMAP
40
40
40
E0
40
40
40
30
10
08
ENDCHAR
STARTCHAR LATIN
ENCODING -1
SWIDTH 480 0
DWIDTH 6 0
BBX 5 5 1 0
BITMAP
88
88
F8
88
78
ENDCHAR
STARTCHAR LATIN
ENCODING -1
SWIDTH 480 0
DWIDTH 6 0
BBX 5 5 1 0
BITMAP
88
50
88
88
70
ENDCHAR
STARTCHAR LATIN
ENCODING -1
SWIDTH 480 0
DWIDTH 6 0
BBX 5 7 1 0
BITMAP
10
08
88
88
50
50
20
ENDCHAR
STARTCHAR LATIN
ENCODING -1
SWIDTH 480 0
DWIDTH 6 0
BBX 5 5 1 0
BITMAP
20
50
50
88
88
ENDCHAR
STARTCHAR LATIN
ENCODING -1
SWIDTH 480 0
DWIDTH 6 0
BBX 5 5 1 0
BITMAP
88
D8
A8
88
88
ENDCHAR
STARTCHAR LATIN
ENCODING -1
SWIDTH 480 0
DWIDTH 6 0
BBX 5 7 1 0
BITMAP
70
80
F0
88
88
88
88
ENDCHAR
STARTCHAR LATIN
ENCODING -1
SWIDTH 480 0
DWIDTH 6 0
BBX 5 5 1 0
BITMAP
88
50
20
20
20
ENDCHAR
STARTCHAR LATIN
ENCODING -1
SWIDTH 480 0
DWIDTH 6 0
BBX 5 7 1 -2
BITMAP
F0
20
40
80
F0
10
08
ENDCHAR
STARTCHAR LATIN
ENCODING -1
SWIDTH 480 0
DWIDTH 6 0
BBX 5 6 1 -1
BITMAP
F8
10
20
58
F8
10
ENDCHAR
STARTCHAR LATIN
ENCODING -1
SWIDTH 480 0
DWIDTH 6 0
BBX 5 7 1 -2
BITMAP
F8
10
20
70
08
08
F0
ENDCHAR
STARTCHAR LATIN
ENCODING -1
SWIDTH 480 0
DWIDTH 6 0
BBX 5 7 1 -2
BITMAP
F8
10
20
10
C8
F0
40
ENDCHAR
STARTCHAR LATIN
ENCODING -1
SWIDTH 480 0
DWIDTH 6 0
BBX 5 7 1 0
BITMAP
F0
08
08
10
20
20
20
ENDCHAR
STARTCHAR LATIN
ENCODING -1
SWIDTH 480 0
DWIDTH 6 0
BBX 5 7 1 0
BITMAP
78
80
80
40
20
20
20
ENDCHAR
STARTCHAR LATIN
ENCODING -1
SWIDTH 480 0
DWIDTH 6 0
BBX 5 7 1 0
BITMAP
20
20
20
10
08
08
F0
ENDCHAR
STARTCHAR LATIN
ENCODING -1
SWIDTH 480 0
DWIDTH 6 0
BBX 5 9 1 -2
BITMAP
78
80
80
80
80
80
80
80
78
ENDCHAR
STARTCHAR LATIN
ENCODING -1
SWIDTH 480 0
DWIDTH 6 0
BBX 5 7 1 0
BITMAP
70
88
88
A8
88
88
70
ENDCHAR
STARTCHAR LATIN
ENCODING -1
SWIDTH 480 0
DWIDTH 6 0
BBX 5 5 1 0
BITMAP
F0
88
F0
88
F0
ENDCHAR
STARTCHAR LATIN
ENCODING -1
SWIDTH 480 0
DWIDTH 6 0
BBX 5 5 1 0
BITMAP
70
88
68
88
70
ENDCHAR
STARTCHAR LATIN
ENCODING -1
SWIDTH 480 0
DWIDTH 6 0
BBX 5 7 1 0
BITMAP
08
10
70
80
B0
90
70
ENDCHAR
STARTCHAR LATIN
ENCODING -1
SWIDTH 480 0
DWIDTH 6 0
BBX 5 5 1 0
BITMAP
88
88
F8
88
88
ENDCHAR
STARTCHAR LATIN
ENCODING -1
SWIDTH 480 0
DWIDTH 6 0
BBX 3 9 2 -2
BITMAP
40
00
C0
40
40
40
E0
40
80
ENDCHAR
STARTCHAR LATIN
ENCODING -1
SWIDTH 480 0
DWIDTH 6 0
BBX 4 7 2 -2
BITMAP
90
50
30
50
90
10
10
ENDCHAR
STARTCHAR LATIN
ENCODING -1
SWIDTH 480 0
DWIDTH 6 0
BBX 5 5 1 0
BITMAP
80
80
80
80
F8
ENDCHAR
STARTCHAR LATIN
ENCODING -1
SWIDTH 480 0
DWIDTH 6 0
BBX 5 9 1 -2
BITMAP
08
10
70
90
90
90
70
10
10
ENDCHAR
STARTCHAR LATIN
ENCODING -1
SWIDTH 480 0
DWIDTH 6 0
BBX 5 7 1 0
BITMAP
F0
08
08
10
20
70
20
ENDCHAR
STARTCHAR LATIN
ENCODING -1
SWIDTH 480 0
DWIDTH 6 0
BBX 5 7 1 0
BITMAP
78
80
80
40
20
70
20
ENDCHAR
STARTCHAR LATIN
ENCODING -1
SWIDTH 480 0
DWIDTH 6 0
BBX 5 8 1 0
BITMAP
20
20
20
78
A8
B8
B0
78
ENDCHAR
STARTCHAR LATIN
ENCODING -1
SWIDTH 480 0
DWIDTH 6 0
BBX 5 10 1 -2
BITMAP
20
20
20
78
A8
B0
A8
68
08
30
ENDCHAR
STARTCHAR LATIN
ENCODING -1
SWIDTH 480 0
DWIDTH 6 0
BBX 5 9 1 -1
BITMAP
20
20
20
78
A8
B8
B0
78
08
ENDCHAR
STARTCHAR LATIN
ENCODING -1
SWIDTH 480 0
DWIDTH 6 0
BBX 5 8 1 0
BITMAP
40
40
40
F8
60
50
48
30
ENDCHAR
STARTCHAR LATIN
ENCODING -1
SWIDTH 480 0
DWIDTH 6 0
BBX 5 10 1 -2
BITMAP
48
50
50
F0
50
50
50
30
10
20
ENDCHAR
STARTCHAR LATIN
ENCODING -1
SWIDTH 480 0
DWIDTH 6 0
BBX 5 9 1 -1
BITMAP
40
40
40
E8
50
50
58
38
08
ENDCHAR
STARTCHAR LATIN
ENCODING -1
SWIDTH 480 0
DWIDTH 6 0
BBX 5 10 1 -2
BITMAP
60
80
80
F0
A8
A8
A8
A8
08
10
ENDCHAR
STARTCHAR LATIN
ENCODING -1
SWIDTH 480 0
DWIDTH 6 0
BBX 5 8 1 0
BITMAP
80
80
80
98
A0
90
88
70
ENDCHAR
STARTCHAR LATIN
ENCODING -1
SWIDTH 480 0
DWIDTH 6 0
BBX 5 8 1 0
BITMAP
80
80
80
B8
88
90
A0
78
ENDCHAR
STARTCHAR LATIN
ENCODING -1
SWIDTH 480 0
DWIDTH 6 0
BBX 5 5 1 0
BITMAP
A8
50
00
A8
50
ENDCHAR
STARTCHAR LATIN
ENCODING -1
SWIDTH 480 0
DWIDTH 6 0
BBX 5 5 1 0
BITMAP
F8
88
00
F8
88
ENDCHAR
STARTCHAR LATIN
ENCODING -1
SWIDTH 480 0
DWIDTH 6 0
BBX 6 8 0 -2
BITMAP
80
44
44
44
3C
04
04
04
ENDCHAR
STARTCHAR LATIN
ENCODING -1
SWIDTH 480 0
DWIDTH 6 0
BBX 6 8 0 -2
BITMAP
80
48
48
48
48
38
08
04
ENDCHAR
STARTCHAR MODIFIER
ENCODING -1
SWIDTH 480 0
DWIDTH 6 0
BBX 5 7 1 3
BITMAP
80
80
F0
88
88
88
88
ENDCHAR
STARTCHAR MODIFIER
ENCODING -1
SWIDTH 480 0
DWIDTH 6 0
BBX 5 7 1 3
BITMAP
40
80
80
F0
88
88
88
ENDCHAR
STARTCHAR MODIFIER
ENCODING -1
SWIDTH 480 0
DWIDTH 6 0
BBX 2 9 2 1
BITMAP
40
00
C0
40
40
40
40
40
80
ENDCHAR
STARTCHAR MODIFIER
ENCODING -1
SWIDTH 480 0
DWIDTH 6 0
BBX 5 5 1 3
BITMAP
B8
C0
80
80
80
ENDCHAR
STARTCHAR MODIFIER
ENCODING -1
SWIDTH 480 0
DWIDTH 6 0
BBX 5 5 1 3
BITMAP
08
08
08
18
E8
ENDCHAR
STARTCHAR MODIFIER
ENCODING -1
SWIDTH 480 0
DWIDTH 6 0
BBX 5 6 1 2
BITMAP
10
10
10
30
D0
08
ENDCHAR
STARTCHAR MODIFIER
ENCODING -1
SWIDTH 480 0
DWIDTH 6 0
BBX 5 5 1 3
BITMAP
88
90
F0
88
F0
ENDCHAR
STARTCHAR MODIFIER
ENCODING -1
SWIDTH 480 0
DWIDTH 6 0
BBX 5 5 1 3
BITMAP
88
88
A8
D8
88
ENDCHAR
STARTCHAR MODIFIER
ENCODING -1
SWIDTH 480 0
DWIDTH 6 0
BBX 5 7 1 1
BITMAP
88
88
88
88
78
08
30
ENDCHAR
STARTCHAR MODIFIER
ENCODING -1
SWIDTH 480 0
DWIDTH 6 0
BBX 3 3 2 7
BITMAP
20
40
80
ENDCHAR
STARTCHAR MODIFIER
ENCODING -1
SWIDTH 480 0
DWIDTH 6 0
BBX 6 3 0 7
BITMAP
24
48
90
ENDCHAR
STARTCHAR MODIFIER
ENCODING -1
SWIDTH 480 0
DWIDTH 6 0
BBX 2 3 3 7
BITMAP
40
80
80
ENDCHAR
STARTCHAR MODIFIER
ENCODING -1
SWIDTH 480 0
DWIDTH 6 0
BBX 2 3 2 7
BITMAP
40
40
80
ENDCHAR
STARTCHAR MODIFIER
ENCODING -1
SWIDTH 480 0
DWIDTH 6 0
BBX 2 3 3 7
BITMAP
80
80
40
ENDCHAR
STARTCHAR MODIFIER
ENCODING -1
SWIDTH 480 0
DWIDTH 6 0
BBX 2 3 3 7
BITMAP
80
40
80
ENDCHAR
STARTCHAR MODIFIER
ENCODING -1
SWIDTH 480 0
DWIDTH 6 0
BBX 2 3 2 7
BITMAP
40
80
40
ENDCHAR
STARTCHAR MODIFIER
ENCODING -1
SWIDTH 480 0
DWIDTH 6 0
BBX 5 7 1 3
BITMAP
F0
08
08
10
20
20
20
ENDCHAR
STARTCHAR MODIFIER
ENCODING -1
SWIDTH 480 0
DWIDTH 6 0
BBX 5 7 1 3
BITMAP
78
80
80
40
20
20
20
ENDCHAR
STARTCHAR MODIFIER
ENCODING -1
SWIDTH 480 0
DWIDTH 6 0
BBX 4 3 1 4
BITMAP
30
C0
30
ENDCHAR
STARTCHAR MODIFIER
ENCODING -1
SWIDTH 480 0
DWIDTH 6 0
BBX 4 3 1 4
BITMAP
C0
30
C0
ENDCHAR
STARTCHAR MODIFIER
ENCODING -1
SWIDTH 480 0
DWIDTH 6 0
BBX 3 2 2 5
BITMAP
40
A0
ENDCHAR
STARTCHAR MODIFIER
ENCODING -1
SWIDTH 480 0
DWIDTH 6 0
BBX 3 2 2 5
BITMAP
A0
40
ENDCHAR
STARTCHAR MODIFIER
ENCODING -1
SWIDTH 480 0
DWIDTH 6 0
BBX 3 2 2 8
BITMAP
40
A0
ENDCHAR
STARTCHAR CARON
ENCODING -1
SWIDTH 480 0
DWIDTH 6 0
BBX 3 2 2 8
BITMAP
A0
40
ENDCHAR
STARTCHAR MODIFIER
ENCODING -1
SWIDTH 480 0
DWIDTH 6 0
BBX 1 3 3 7
BITMAP
80
80
80
ENDCHAR
STARTCHAR MODIFIER
ENCODING -1
SWIDTH 480 0
DWIDTH 6 0
BBX 3 1 2 8
BITMAP
E0
ENDCHAR
STARTCHAR MODIFIER
ENCODING -1
SWIDTH 480 0
DWIDTH 6 0
BBX 2 2 3 8
BITMAP
40
80
ENDCHAR
STARTCHAR MODIFIER
ENCODING -1
SWIDTH 480 0
DWIDTH 6 0
BBX 2 2 2 8
BITMAP
80
40
ENDCHAR
STARTCHAR MODIFIER
ENCODING -1
SWIDTH 480 0
DWIDTH 6 0
BBX 1 3 3 -2
BITMAP
80
80
80
ENDCHAR
STARTCHAR MODIFIER
ENCODING -1
SWIDTH 480 0
DWIDTH 6 0
BBX 3 1 2 -2
BITMAP
E0
ENDCHAR
STARTCHAR MODIFIER
ENCODING -1
SWIDTH 480 0
DWIDTH 6 0
BBX 2 2 3 -2
BITMAP
80
40
ENDCHAR
STARTCHAR MODIFIER
ENCODING -1
SWIDTH 480 0
DWIDTH 6 0
BBX 2 2 2 -2
BITMAP
40
80
ENDCHAR
STARTCHAR MODIFIER
ENCODING -1
SWIDTH 480 0
DWIDTH 6 0
BBX 3 5 2 0
BITMAP
E0
40
00
40
E0
ENDCHAR
STARTCHAR MODIFIER
ENCODING -1
SWIDTH 480 0
DWIDTH 6 0
BBX 3 2 2 2
BITMAP
E0
40
ENDCHAR
STARTCHAR MODIFIER
ENCODING -1
SWIDTH 480 0
DWIDTH 6 0
BBX 2 3 3 1
BITMAP
80
40
80
ENDCHAR
STARTCHAR MODIFIER
ENCODING -1
SWIDTH 480 0
DWIDTH 6 0
BBX 2 3 2 1
BITMAP
40
80
40
ENDCHAR
STARTCHAR MODIFIER
ENCODING -1
SWIDTH 480 0
DWIDTH 6 0
BBX 5 3 1 2
BITMAP
20
20
F8
ENDCHAR
STARTCHAR MODIFIER
ENCODING -1
SWIDTH 480 0
DWIDTH 6 0
BBX 5 3 1 0
BITMAP
F8
20
20
ENDCHAR
STARTCHAR MODIFIER
ENCODING -1
SWIDTH 480 0
DWIDTH 6 0
BBX 5 5 1 0
BITMAP
20
20
F8
20
20
ENDCHAR
STARTCHAR MODIFIER
ENCODING -1
SWIDTH 480 0
DWIDTH 6 0
BBX 5 1 1 2
BITMAP
F8
ENDCHAR
STARTCHAR BREVE
ENCODING -1
SWIDTH 480 0
DWIDTH 6 0
BBX 5 2 1 8
BITMAP
88
70
ENDCHAR
STARTCHAR DOT
ENCODING -1
SWIDTH 480 0
DWIDTH 6 0
BBX 1 1 3 8
BITMAP
80
ENDCHAR
STARTCHAR RING
ENCODING -1
SWIDTH 480 0
DWIDTH 6 0
BBX 3 3 2 7
BITMAP
40
A0
40
ENDCHAR
STARTCHAR OGONEK
ENCODING -1
SWIDTH 480 0
DWIDTH 6 0
BBX 2 2 4 -2
BITMAP
80
40
ENDCHAR
STARTCHAR SMALL
ENCODING -1
SWIDTH 480 0
DWIDTH 6 0
BBX 4 2 1 8
BITMAP
50
A0
ENDCHAR
STARTCHAR DOUBLE
ENCODING -1
SWIDTH 480 0
DWIDTH 6 0
BBX 5 2 1 8
BITMAP
48
90
ENDCHAR
STARTCHAR MODIFIER
ENCODING -1
SWIDTH 480 0
DWIDTH 6 0
BBX 6 4 0 1
BITMAP
40
A0
24
18
ENDCHAR
STARTCHAR MODIFIER
ENCODING -1
SWIDTH 480 0
DWIDTH 6 0
BBX 3 3 2 7
BITMAP
A0
40
A0
ENDCHAR
STARTCHAR MODIFIER
ENCODING -1
SWIDTH 480 0
DWIDTH 6 0
BBX 4 5 1 2
BITMAP
90
50
20
50
20
ENDCHAR
STARTCHAR MODIFIER
ENCODING -1
SWIDTH 480 0
DWIDTH 6 0
BBX 2 6 2 3
BITMAP
80
80
80
80
80
40
ENDCHAR
STARTCHAR MODIFIER
ENCODING -1
SWIDTH 480 0
DWIDTH 6 0
BBX 4 4 1 3
BITMAP
70
E0
10
E0
ENDCHAR
STARTCHAR MODIFIER
ENCODING -1
SWIDTH 480 0
DWIDTH 6 0
BBX 4 3 1 4
BITMAP
90
60
90
ENDCHAR
STARTCHAR MODIFIER
ENCODING -1
SWIDTH 480 0
DWIDTH 6 0
BBX 4 4 1 3
BITMAP
70
80
40
40
ENDCHAR
STARTCHAR MODIFIER
ENCODING -1
SWIDTH 480 0
DWIDTH 6 0
BBX 5 5 1 0
BITMAP
F8
08
08
08
08
ENDCHAR
STARTCHAR MODIFIER
ENCODING -1
SWIDTH 480 0
DWIDTH 6 0
BBX 5 5 1 0
BITMAP
08
F8
08
08
08
ENDCHAR
STARTCHAR MODIFIER
ENCODING -1
SWIDTH 480 0
DWIDTH 6 0
BBX 5 5 1 0
BITMAP
08
08
F8
08
08
ENDCHAR
STARTCHAR MODIFIER
ENCODING -1
SWIDTH 480 0
DWIDTH 6 0
BBX 5 5 1 0
BITMAP
08
08
08
F8
08
ENDCHAR
STARTCHAR MODIFIER
ENCODING -1
SWIDTH 480 0
DWIDTH 6 0
BBX 5 5 1 0
BITMAP
08
08
08
08
F8
ENDCHAR
STARTCHAR MODIFIER
ENCODING -1
SWIDTH 480 0
DWIDTH 6 0
BBX 5 5 1 0
BITMAP
80
80
80
80
F8
ENDCHAR
STARTCHAR MODIFIER
ENCODING -1
SWIDTH 480 0
DWIDTH 6 0
BBX 5 5 1 0
BITMAP
80
80
F8
80
80
ENDCHAR
STARTCHAR MODIFIER
ENCODING -1
SWIDTH 480 0
DWIDTH 6 0
BBX 3 2 2 -2
BITMAP
A0
40
ENDCHAR
STARTCHAR MODIFIER
ENCODING -1
SWIDTH 480 0
DWIDTH 6 0
BBX 5 3 1 7
BITMAP
F8
00
F8
ENDCHAR
STARTCHAR MODIFIER
ENCODING -1
SWIDTH 480 0
DWIDTH 6 0
BBX 4 3 1 7
BITMAP
50
50
A0
ENDCHAR
STARTCHAR GREEK
ENCODING -1
SWIDTH 480 0
DWIDTH 6 0
BBX 1 2 3 -2
BITMAP
80
80
ENDCHAR
STARTCHAR GREEK
ENCODING -1
SWIDTH 480 0
DWIDTH 6 0
BBX 2 6 2 -1
BITMAP
40
00
00
00
40
80
ENDCHAR
STARTCHAR GREEK
ENCODING -1
SWIDTH 480 0
DWIDTH 6 0
BBX 2 2 3 8
BITMAP
40
80
ENDCHAR
STARTCHAR GREEK
ENCODING -1
SWIDTH 480 0
DWIDTH 6 0
BBX 5 3 1 7
BITMAP
10
20
88
ENDCHAR
STARTCHAR GREEK
ENCODING -1
SWIDTH 480 0
DWIDTH 6 0
BBX 6 8 0 0
BITMAP
40
B8
44
44
44
7C
44
44
ENDCHAR
STARTCHAR GREEK
ENCODING -1
SWIDTH 480 0
DWIDTH 6 0
BBX 6 8 0 0
BITMAP
40
BC
40
40
70
40
40
7C
ENDCHAR
STARTCHAR GREEK
ENCODING -1
SWIDTH 480 0
DWIDTH 6 0
BBX 6 8 0 0
BITMAP
40
84
44
44
7C
44
44
44
ENDCHAR
STARTCHAR GREEK
ENCODING -1
SWIDTH 480 0
DWIDTH 6 0
BBX 5 8 1 0
BITMAP
40
B8
10
10
10
10
10
38
ENDCHAR
STARTCHAR GREEK
ENCODING -1
SWIDTH 480 0
DWIDTH 6 0
BBX 6 8 0 0
BITMAP
40
B8
44
44
44
44
44
38
ENDCHAR
STARTCHAR GREEK
ENCODING -1
SWIDTH 480 0
DWIDTH 6 0
BBX 6 8 0 0
BITMAP
40
84
44
28
10
10
10
10
ENDCHAR
STARTCHAR GREEK
ENCODING -1
SWIDTH 480 0
DWIDTH 6 0
BBX 6 8 0 0
BITMAP
40
B8
44
44
44
44
28
6C
ENDCHAR
STARTCHAR GREEK
ENCODING -1
SWIDTH 480 0
DWIDTH 6 0
BBX 3 10 2 0
BITMAP
20
40
00
A0
00
40
40
40
40
20
ENDCHAR
STARTCHAR GREEK
ENCODING -1
SWIDTH 480 0
DWIDTH 6 0
BBX 5 7 1 0
BITMAP
70
88
88
88
F8
88
88
ENDCHAR
STARTCHAR GREEK
ENCODING -1
SWIDTH 480 0
DWIDTH 6 0
BBX 5 7 1 0
BITMAP
F0
88
88
F0
88
88
F0
ENDCHAR
STARTCHAR GREEK
ENCODING -1
SWIDTH 480 0
DWIDTH 6 0
BBX 5 7 1 0
BITMAP
20
20
50
50
88
88
F8
ENDCHAR
STARTCHAR GREEK
ENCODING -1
SWIDTH 480 0
DWIDTH 6 0
BBX 5 7 1 0
BITMAP
F8
80
80
E0
80
80
F8
ENDCHAR
STARTCHAR GREEK
ENCODING -1
SWIDTH 480 0
DWIDTH 6 0
BBX 5 7 1 0
BITMAP
F8
08
10
20
40
80
F8
ENDCHAR
STARTCHAR GREEK
ENCODING -1
SWIDTH 480 0
DWIDTH 6 0
BBX 5 7 1 0
BITMAP
88
88
88
F8
88
88
88
ENDCHAR
STARTCHAR GREEK
ENCODING -1
SWIDTH 480 0
DWIDTH 6 0
BBX 3 7 2 0
BITMAP
E0
40
40
40
40
40
E0
ENDCHAR
STARTCHAR GREEK
ENCODING -1
SWIDTH 480 0
DWIDTH 6 0
BBX 5 7 1 0
BITMAP
88
90
A0
C0
A0
90
88
ENDCHAR
STARTCHAR GREEK
ENCODING -1
SWIDTH 480 0
DWIDTH 6 0
BBX 5 7 1 0
BITMAP
20
20
50
50
88
88
88
ENDCHAR
STARTCHAR GREEK
ENCODING -1
SWIDTH 480 0
DWIDTH 6 0
BBX 5 7 1 0
BITMAP
88
D8
A8
88
88
88
88
ENDCHAR
STARTCHAR GREEK
ENCODING -1
SWIDTH 480 0
DWIDTH 6 0
BBX 5 7 1 0
BITMAP
88
88
C8
A8
98
88
88
ENDCHAR
STARTCHAR GREEK
ENCODING -1
SWIDTH 480 0
DWIDTH 6 0
BBX 5 7 1 0
BITMAP
F8
00
00
70
00
00
F8
ENDCHAR
STARTCHAR GREEK
ENCODING -1
SWIDTH 480 0
DWIDTH 6 0
BBX 5 7 1 0
BITMAP
70
88
88
88
88
88
70
ENDCHAR
STARTCHAR GREEK
ENCODING -1
SWIDTH 480 0
DWIDTH 6 0
BBX 5 7 1 0
BITMAP
F8
88
88
88
88
88
88
ENDCHAR
STARTCHAR GREEK
ENCODING -1
SWIDTH 480 0
DWIDTH 6 0
BBX 5 7 1 0
BITMAP
F0
88
88
88
F0
80
80
ENDCHAR
STARTCHAR GREEK
ENCODING -1
SWIDTH 480 0
DWIDTH 6 0
BBX 5 7 1 0
BITMAP
F8
20
20
20
20
20
20
ENDCHAR
STARTCHAR GREEK
ENCODING -1
SWIDTH 480 0
DWIDTH 6 0
BBX 5 7 1 0
BITMAP
88
88
50
20
20
20
20
ENDCHAR
STARTCHAR GREEK
ENCODING -1
SWIDTH 480 0
DWIDTH 6 0
BBX 5 7 1 0
BITMAP
88
88
50
20
50
88
88
ENDCHAR
STARTCHAR GREEK
ENCODING -1
SWIDTH 480 0
DWIDTH 6 0
BBX 5 7 1 0
BITMAP
A8
A8
A8
70
20
20
20
ENDCHAR
STARTCHAR GREEK
ENCODING -1
SWIDTH 480 0
DWIDTH 6 0
BBX 3 9 2 0
BITMAP
A0
00
E0
40
40
40
40
40
E0
ENDCHAR
STARTCHAR GREEK
ENCODING -1
SWIDTH 480 0
DWIDTH 6 0
BBX 5 9 1 0
BITMAP
50
00
88
88
50
20
20
20
20
ENDCHAR
STARTCHAR GREEK
ENCODING -1
SWIDTH 480 0
DWIDTH 6 0
BBX 5 8 1 0
BITMAP
10
20
00
68
90
90
90
68
ENDCHAR
STARTCHAR GREEK
ENCODING -1
SWIDTH 480 0
DWIDTH 6 0
BBX 5 8 1 0
BITMAP
10
20
00
78
80
60
80
78
ENDCHAR
STARTCHAR GREEK
ENCODING -1
SWIDTH 480 0
DWIDTH 6 0
BBX 5 10 1 -2
BITMAP
10
20
00
F0
88
88
88
88
08
08
ENDCHAR
STARTCHAR GREEK
ENCODING -1
SWIDTH 480 0
DWIDTH 6 0
BBX 2 8 3 0
BITMAP
40
80
00
80
80
80
80
40
ENDCHAR
STARTCHAR GREEK
ENCODING -1
SWIDTH 480 0
DWIDTH 6 0
BBX 5 10 1 0
BITMAP
10
20
00
50
00
88
88
88
88
70
ENDCHAR
STARTCHAR GREEK
ENCODING -1
SWIDTH 480 0
DWIDTH 6 0
BBX 5 10 1 -2
BITMAP
60
90
90
A0
90
88
88
B0
80
80
ENDCHAR
STARTCHAR GREEK
ENCODING -1
SWIDTH 480 0
DWIDTH 6 0
BBX 5 7 1 -2
BITMAP
88
88
50
50
20
20
20
ENDCHAR
STARTCHAR GREEK
ENCODING -1
SWIDTH 480 0
DWIDTH 6 0
BBX 5 9 1 -1
BITMAP
F8
08
10
20
40
80
80
70
08
ENDCHAR
STARTCHAR GREEK
ENCODING -1
SWIDTH 480 0
DWIDTH 6 0
BBX 5 7 1 -2
BITMAP
F0
88
88
88
88
08
08
ENDCHAR
STARTCHAR GREEK
ENCODING -1
SWIDTH 480 0
DWIDTH 6 0
BBX 5 8 1 0
BITMAP
70
88
88
F8
88
88
88
70
ENDCHAR
STARTCHAR GREEK
ENCODING -1
SWIDTH 480 0
DWIDTH 6 0
BBX 2 5 3 0
BITMAP
80
80
80
80
40
ENDCHAR
STARTCHAR GREEK
ENCODING -1
SWIDTH 480 0
DWIDTH 6 0
BBX 4 5 2 0
BITMAP
90
A0
C0
A0
90
ENDCHAR
STARTCHAR GREEK
ENCODING -1
SWIDTH 480 0
DWIDTH 6 0
BBX 5 8 1 0
BITMAP
40
20
20
20
50
50
88
88
ENDCHAR
STARTCHAR GREEK
ENCODING -1
SWIDTH 480 0
DWIDTH 6 0
BBX 5 7 1 -2
BITMAP
88
88
88
88
F0
80
80
ENDCHAR
STARTCHAR GREEK
ENCODING -1
SWIDTH 480 0
DWIDTH 6 0
BBX 5 5 1 0
BITMAP
88
88
48
50
20
ENDCHAR
STARTCHAR GREEK
ENCODING -1
SWIDTH 480 0
DWIDTH 6 0
BBX 5 9 1 -1
BITMAP
78
20
40
30
40
80
80
70
08
ENDCHAR
STARTCHAR GREEK
ENCODING -1
SWIDTH 480 0
DWIDTH 6 0
BBX 5 5 1 0
BITMAP
70
88
88
88
70
ENDCHAR
STARTCHAR GREEK
ENCODING -1
SWIDTH 480 0
DWIDTH 6 0
BBX 5 7 1 -2
BITMAP
70
88
88
88
F0
80
80
ENDCHAR
STARTCHAR GREEK
ENCODING -1
SWIDTH 480 0
DWIDTH 6 0
BBX 5 6 1 -1
BITMAP
78
80
80
80
70
08
ENDCHAR
STARTCHAR GREEK
ENCODING -1
SWIDTH 480 0
DWIDTH 6 0
BBX 5 5 1 0
BITMAP
88
88
88
88
70
ENDCHAR
STARTCHAR GREEK
ENCODING -1
SWIDTH 480 0
DWIDTH 6 0
BBX 5 7 1 -2
BITMAP
C8
28
30
20
60
A0
98
ENDCHAR
STARTCHAR GREEK
ENCODING -1
SWIDTH 480 0
DWIDTH 6 0
BBX 5 9 1 -2
BITMAP
20
20
A8
A8
A8
A8
70
20
20
ENDCHAR
STARTCHAR GREEK
ENCODING -1
SWIDTH 480 0
DWIDTH 6 0
BBX 5 5 1 0
BITMAP
50
88
A8
A8
50
ENDCHAR
STARTCHAR GREEK
ENCODING -1
SWIDTH 480 0
DWIDTH 6 0
BBX 3 7 2 0
BITMAP
A0
00
40
40
40
40
20
ENDCHAR
STARTCHAR GREEK
ENCODING -1
SWIDTH 480 0
DWIDTH 6 0
BBX 5 7 1 0
BITMAP
50
00
88
88
88
88
70
ENDCHAR
STARTCHAR GREEK
ENCODING -1
SWIDTH 480 0
DWIDTH 6 0
BBX 5 8 1 0
BITMAP
10
20
00
70
88
88
88
70
ENDCHAR
STARTCHAR GREEK
ENCODING -1
SWIDTH 480 0
DWIDTH 6 0
BBX 5 8 1 0
BITMAP
10
20
00
88
88
88
88
70
ENDCHAR
STARTCHAR GREEK
ENCODING -1
SWIDTH 480 0
DWIDTH 6 0
BBX 5 8 1 0
BITMAP
10
20
00
50
88
A8
A8
50
ENDCHAR
STARTCHAR CYRILLIC
ENCODING -1
SWIDTH 480 0
DWIDTH 6 0
BBX 5 10 1 0
BITMAP
40
20
00
F8
80
80
E0
80
80
F8
ENDCHAR
STARTCHAR CYRILLIC
ENCODING -1
SWIDTH 480 0
DWIDTH 6 0
BBX 5 9 1 0
BITMAP
50
00
F8
80
80
E0
80
80
F8
ENDCHAR
STARTCHAR CYRILLIC
ENCODING -1
SWIDTH 480 0
DWIDTH 6 0
BBX 6 8 0 -1
BITMAP
F0
40
40
78
44
44
44
08
ENDCHAR
STARTCHAR CYRILLIC
ENCODING -1
SWIDTH 480 0
DWIDTH 6 0
BBX 5 10 1 0
BITMAP
10
20
00
F8
80
80
80
80
80
80
ENDCHAR
STARTCHAR CYRILLIC
ENCODING -1
SWIDTH 480 0
DWIDTH 6 0
BBX 5 7 1 0
BITMAP
78
80
80
E0
80
80
78
ENDCHAR
STARTCHAR CYRILLIC
ENCODING -1
SWIDTH 480 0
DWIDTH 6 0
BBX 5 7 1 0
BITMAP
78
80
80
70
08
08
F0
ENDCHAR
STARTCHAR CYRILLIC
ENCODING -1
SWIDTH 480 0
DWIDTH 6 0
BBX 3 7 2 0
BITMAP
E0
40
40
40
40
40
E0
ENDCHAR
STARTCHAR CYRILLIC
ENCODING -1
SWIDTH 480 0
DWIDTH 6 0
BBX 3 9 2 0
BITMAP
A0
00
E0
40
40
40
40
40
E0
ENDCHAR
STARTCHAR CYRILLIC
ENCODING -1
SWIDTH 480 0
DWIDTH 6 0
BBX 5 7 1 0
BITMAP
08
08
08
08
08
88
70
ENDCHAR
STARTCHAR CYRILLIC
ENCODING -1
SWIDTH 480 0
DWIDTH 6 0
BBX 6 7 0 0
BITMAP
30
50
50
58
54
54
98
ENDCHAR
STARTCHAR CYRILLIC
ENCODING -1
SWIDTH 480 0
DWIDTH 6 0
BBX 5 7 1 0
BITMAP
A0
A0
A0
F0
A8
A8
B0
ENDCHAR
STARTCHAR CYRILLIC
ENCODING -1
SWIDTH 480 0
DWIDTH 6 0
BBX 6 7 0 0
BITMAP
F0
40
40
78
44
44
44
ENDCHAR
STARTCHAR CYRILLIC
ENCODING -1
SWIDTH 480 0
DWIDTH 6 0
BBX 5 10 1 0
BITMAP
10
20
00
88
90
A0
C0
A0
90
88
ENDCHAR
STARTCHAR CYRILLIC
ENCODING -1
SWIDTH 480 0
DWIDTH 6 0
BBX 5 10 1 0
BITMAP
40
20
00
88
88
98
A8
C8
88
88
ENDCHAR
STARTCHAR CYRILLIC
ENCODING -1
SWIDTH 480 0
DWIDTH 6 0
BBX 5 10 1 0
BITMAP
88
70
00
88
88
88
78
08
08
30
ENDCHAR
STARTCHAR CYRILLIC
ENCODING -1
SWIDTH 480 0
DWIDTH 6 0
BBX 5 8 1 -1
BITMAP
88
88
88
88
88
88
F8
20
ENDCHAR
STARTCHAR CYRILLIC
ENCODING -1
SWIDTH 480 0
DWIDTH 6 0
BBX 5 7 1 0
BITMAP
70
88
88
88
F8
88
88
ENDCHAR
STARTCHAR CYRILLIC
ENCODING -1
SWIDTH 480 0
DWIDTH 6 0
BBX 5 7 1 0
BITMAP
F0
80
80
F0
88
88
F0
ENDCHAR
STARTCHAR CYRILLIC
ENCODING -1
SWIDTH 480 0
DWIDTH 6 0
BBX 5 7 1 0
BITMAP
F0
88
88
F0
88
88
F0
ENDCHAR
STARTCHAR CYRILLIC
ENCODING -1
SWIDTH 480 0
DWIDTH 6 0
BBX 5 7 1 0
BITMAP
F8
80
80
80
80
80
80
ENDCHAR
STARTCHAR CYRILLIC
ENCODING -1
SWIDTH 480 0
DWIDTH 6 0
BBX 6 8 0 -1
BITMAP
38
48
48
48
48
48
FC
84
ENDCHAR
STARTCHAR CYRILLIC
ENCODING -1
SWIDTH 480 0
DWIDTH 6 0
BBX 5 7 1 0
BITMAP
F8
80
80
E0
80
80
F8
ENDCHAR
STARTCHAR CYRILLIC
ENCODING -1
SWIDTH 480 0
DWIDTH 6 0
BBX 5 7 1 0
BITMAP
A8
A8
A8
70
A8
A8
A8
ENDCHAR
STARTCHAR CYRILLIC
ENCODING -1
SWIDTH 480 0
DWIDTH 6 0
BBX 5 7 1 0
BITMAP
F0
08
08
30
08
08
F0
ENDCHAR
STARTCHAR CYRILLIC
ENCODING -1
SWIDTH 480 0
DWIDTH 6 0
BBX 5 7 1 0
BITMAP
88
88
98
A8
C8
88
88
ENDCHAR
STARTCHAR CYRILLIC
ENCODING -1
SWIDTH 480 0
DWIDTH 6 0
BBX 5 10 1 0
BITMAP
88
70
00
88
88
98
A8
C8
88
88
ENDCHAR
STARTCHAR CYRILLIC
ENCODING -1
SWIDTH 480 0
DWIDTH 6 0
BBX 5 7 1 0
BITMAP
88
90
A0
C0
A0
90
88
ENDCHAR
STARTCHAR CYRILLIC
ENCODING -1
SWIDTH 480 0
DWIDTH 6 0
BBX 5 7 1 0
BITMAP
38
48
48
48
48
48
88
ENDCHAR
STARTCHAR CYRILLIC
ENCODING -1
SWIDTH 480 0
DWIDTH 6 0
BBX 5 7 1 0
BITMAP
88
D8
A8
88
88
88
88
ENDCHAR
STARTCHAR CYRILLIC
ENCODING -1
SWIDTH 480 0
DWIDTH 6 0
BBX 5 7 1 0
BITMAP
88
88
88
F8
88
88
88
ENDCHAR
STARTCHAR CYRILLIC
ENCODING -1
SWIDTH 480 0
DWIDTH 6 0
BBX 5 7 1 0
BITMAP
70
88
88
88
88
88
70
ENDCHAR
STARTCHAR CYRILLIC
ENCODING -1
SWIDTH 480 0
DWIDTH 6 0
BBX 5 7 1 0
BITMAP
F8
88
88
88
88
88
88
ENDCHAR
STARTCHAR CYRILLIC
ENCODING -1
SWIDTH 480 0
DWIDTH 6 0
BBX 5 7 1 0
BITMAP
F0
88
88
88
F0
80
80
ENDCHAR
STARTCHAR CYRILLIC
ENCODING -1
SWIDTH 480 0
DWIDTH 6 0
BBX 5 7 1 0
BITMAP
78
80
80
80
80
80
78
ENDCHAR
STARTCHAR CYRILLIC
ENCODING -1
SWIDTH 480 0
DWIDTH 6 0
BBX 5 7 1 0
BITMAP
F8
20
20
20
20
20
20
ENDCHAR
STARTCHAR CYRILLIC
ENCODING -1
SWIDTH 480 0
DWIDTH 6 0
BBX 5 7 1 0
BITMAP
88
88
88
78
08
08
30
ENDCHAR
STARTCHAR CYRILLIC
ENCODING -1
SWIDTH 480 0
DWIDTH 6 0
BBX 5 7 1 0
BITMAP
20
70
A8
A8
A8
70
20
ENDCHAR
STARTCHAR CYRILLIC
ENCODING -1
SWIDTH 480 0
DWIDTH 6 0
BBX 5 7 1 0
BITMAP
88
88
50
20
50
88
88
ENDCHAR
STARTCHAR CYRILLIC
ENCODING -1
SWIDTH 480 0
DWIDTH 6 0
BBX 5 8 1 -1
BITMAP
88
88
88
88
88
88
F8
08
ENDCHAR
STARTCHAR CYRILLIC
ENCODING -1
SWIDTH 480 0
DWIDTH 6 0
BBX 5 7 1 0
BITMAP
88
88
88
78
08
08
08
ENDCHAR
STARTCHAR CYRILLIC
ENCODING -1
SWIDTH 480 0
DWIDTH 6 0
BBX 5 7 1 0
BITMAP
A8
A8
A8
A8
A8
A8
F8
ENDCHAR
STARTCHAR CYRILLIC
ENCODING -1
SWIDTH 480 0
DWIDTH 6 0
BBX 5 8 1 -1
BITMAP
A8
A8
A8
A8
A8
A8
F8
08
ENDCHAR
STARTCHAR CYRILLIC
ENCODING -1
SWIDTH 480 0
DWIDTH 6 0
BBX 6 7 0 0
BITMAP
C0
40
40
78
44
44
78
ENDCHAR
STARTCHAR CYRILLIC
ENCODING -1
SWIDTH 480 0
DWIDTH 6 0
BBX 5 7 1 0
BITMAP
88
88
88
E8
98
98
E8
ENDCHAR
STARTCHAR CYRILLIC
ENCODING -1
SWIDTH 480 0
DWIDTH 6 0
BBX 5 7 1 0
BITMAP
80
80
80
F0
88
88
F0
ENDCHAR
STARTCHAR CYRILLIC
ENCODING -1
SWIDTH 480 0
DWIDTH 6 0
BBX 5 7 1 0
BITMAP
F0
08
08
38
08
08
F0
ENDCHAR
STARTCHAR CYRILLIC
ENCODING -1
SWIDTH 480 0
DWIDTH 6 0
BBX 5 7 1 0
BITMAP
90
A8
A8
E8
A8
A8
90
ENDCHAR
STARTCHAR CYRILLIC
ENCODING -1
SWIDTH 480 0
DWIDTH 6 0
BBX 5 7 1 0
BITMAP
78
88
88
88
78
48
88
ENDCHAR
STARTCHAR CYRILLIC
ENCODING -1
SWIDTH 480 0
DWIDTH 6 0
BBX 5 5 1 0
BITMAP
70
08
78
88
78
ENDCHAR
STARTCHAR CYRILLIC
ENCODING -1
SWIDTH 480 0
DWIDTH 6 0
BBX 5 9 1 0
BITMAP
08
30
40
80
F0
88
88
88
70
ENDCHAR
STARTCHAR CYRILLIC
ENCODING -1
SWIDTH 480 0
DWIDTH 6 0
BBX 5 5 1 0
BITMAP
F0
88
F0
88
F0
ENDCHAR
STARTCHAR CYRILLIC
ENCODING -1
SWIDTH 480 0
DWIDTH 6 0
BBX 5 5 1 0
BITMAP
F8
80
80
80
80
ENDCHAR
STARTCHAR CYRILLIC
ENCODING -1
SWIDTH 480 0
DWIDTH 6 0
BBX 5 6 1 -1
BITMAP
30
50
50
50
F8
88
ENDCHAR
STARTCHAR CYRILLIC
ENCODING -1
SWIDTH 480 0
DWIDTH 6 0
BBX 5 5 1 0
BITMAP
70
88
F8
80
70
ENDCHAR
STARTCHAR CYRILLIC
ENCODING -1
SWIDTH 480 0
DWIDTH 6 0
BBX 5 5 1 0
BITMAP
A8
A8
70
A8
A8
ENDCHAR
STARTCHAR CYRILLIC
ENCODING -1
SWIDTH 480 0
DWIDTH 6 0
BBX 5 5 1 0
BITMAP
F0
08
30
08
F0
ENDCHAR
STARTCHAR CYRILLIC
ENCODING -1
SWIDTH 480 0
DWIDTH 6 0
BBX 5 5 1 0
BITMAP
88
98
A8
C8
88
ENDCHAR
STARTCHAR CYRILLIC
ENCODING -1
SWIDTH 480 0
DWIDTH 6 0
BBX 5 8 1 0
BITMAP
88
70
00
88
98
A8
C8
88
ENDCHAR
STARTCHAR CYRILLIC
ENCODING -1
SWIDTH 480 0
DWIDTH 6 0
BBX 4 5 2 0
BITMAP
90
A0
C0
A0
90
ENDCHAR
STARTCHAR CYRILLIC
ENCODING -1
SWIDTH 480 0
DWIDTH 6 0
BBX 5 5 1 0
BITMAP
38
48
48
48
88
ENDCHAR
STARTCHAR CYRILLIC
ENCODING -1
SWIDTH 480 0
DWIDTH 6 0
BBX 5 5 1 0
BITMAP
88
D8
A8
88
88
ENDCHAR
STARTCHAR CYRILLIC
ENCODING -1
SWIDTH 480 0
DWIDTH 6 0
BBX 5 5 1 0
BITMAP
88
88
F8
88
88
ENDCHAR
STARTCHAR CYRILLIC
ENCODING -1
SWIDTH 480 0
DWIDTH 6 0
BBX 5 5 1 0
BITMAP
70
88
88
88
70
ENDCHAR
STARTCHAR CYRILLIC
ENCODING -1
SWIDTH 480 0
DWIDTH 6 0
BBX 5 5 1 0
BITMAP
F8
88
88
88
88
ENDCHAR
STARTCHAR CYRILLIC
ENCODING -1
SWIDTH 480 0
DWIDTH 6 0
BBX 5 7 1 -2
BITMAP
F0
88
88
88
F0
80
80
ENDCHAR
STARTCHAR CYRILLIC
ENCODING -1
SWIDTH 480 0
DWIDTH 6 0
BBX 5 5 1 0
BITMAP
78
80
80
80
78
ENDCHAR
STARTCHAR CYRILLIC
ENCODING -1
SWIDTH 480 0
DWIDTH 6 0
BBX 5 5 1 0
BITMAP
F8
20
20
20
20
ENDCHAR
STARTCHAR CYRILLIC
ENCODING -1
SWIDTH 480 0
DWIDTH 6 0
BBX 5 7 1 -2
BITMAP
88
88
88
88
78
08
30
ENDCHAR
STARTCHAR CYRILLIC
ENCODING -1
SWIDTH 480 0
DWIDTH 6 0
BBX 5 9 1 -2
BITMAP
20
20
70
A8
A8
A8
70
20
20
ENDCHAR
STARTCHAR CYRILLIC
ENCODING -1
SWIDTH 480 0
DWIDTH 6 0
BBX 5 5 1 0
BITMAP
88
50
20
50
88
ENDCHAR
STARTCHAR CYRILLIC
ENCODING -1
SWIDTH 480 0
DWIDTH 6 0
BBX 5 6 1 -1
BITMAP
90
90
90
90
F8
08
ENDCHAR
STARTCHAR CYRILLIC
ENCODING -1
SWIDTH 480 0
DWIDTH 6 0
BBX 5 5 1 0
BITMAP
88
88
78
08
08
ENDCHAR
STARTCHAR CYRILLIC
ENCODING -1
SWIDTH 480 0
DWIDTH 6 0
BBX 5 5 1 0
BITMAP
A8
A8
A8
A8
F8
ENDCHAR
STARTCHAR CYRILLIC
ENCODING -1
SWIDTH 480 0
DWIDTH 6 0
BBX 5 6 1 -1
BITMAP
A8
A8
A8
A8
F8
08
ENDCHAR
STARTCHAR CYRILLIC
ENCODING -1
SWIDTH 480 0
DWIDTH 6 0
BBX 6 5 0 0
BITMAP
C0
40
78
44
78
ENDCHAR
STARTCHAR CYRILLIC
ENCODING -1
SWIDTH 480 0
DWIDTH 6 0
BBX 5 5 1 0
BITMAP
88
88
E8
98
E8
ENDCHAR
STARTCHAR CYRILLIC
ENCODING -1
SWIDTH 480 0
DWIDTH 6 0
BBX 5 5 1 0
BITMAP
80
80
F0
88
F0
ENDCHAR
STARTCHAR CYRILLIC
ENCODING -1
SWIDTH 480 0
DWIDTH 6 0
BBX 5 5 1 0
BITMAP
F0
08
38
08
F0
ENDCHAR
STARTCHAR CYRILLIC
ENCODING -1
SWIDTH 480 0
DWIDTH 6 0
BBX 5 5 1 0
BITMAP
90
A8
E8
A8
90
ENDCHAR
STARTCHAR CYRILLIC
ENCODING -1
SWIDTH 480 0
DWIDTH 6 0
BBX 5 5 1 0
BITMAP
78
88
78
48
88
ENDCHAR
STARTCHAR CYRILLIC
ENCODING -1
SWIDTH 480 0
DWIDTH 6 0
BBX 5 8 1 0
BITMAP
40
20
00
70
88
F8
80
70
ENDCHAR
STARTCHAR CYRILLIC
ENCODING -1
SWIDTH 480 0
DWIDTH 6 0
BBX 5 7 1 0
BITMAP
50
00
70
88
F8
80
70
ENDCHAR
STARTCHAR CYRILLIC
ENCODING -1
SWIDTH 480 0
DWIDTH 6 0
BBX 6 10 0 -2
BITMAP
40
F0
40
78
44
44
44
44
04
08
ENDCHAR
STARTCHAR CYRILLIC
ENCODING -1
SWIDTH 480 0
DWIDTH 6 0
BBX 5 8 1 0
BITMAP
10
20
00
F8
80
80
80
80
ENDCHAR
STARTCHAR CYRILLIC
ENCODING -1
SWIDTH 480 0
DWIDTH 6 0
BBX 5 5 1 0
BITMAP
78
80
E0
80
78
ENDCHAR
STARTCHAR CYRILLIC
ENCODING -1
SWIDTH 480 0
DWIDTH 6 0
BBX 5 5 1 0
BITMAP
78
80
70
08
F0
ENDCHAR
STARTCHAR CYRILLIC
ENCODING -1
SWIDTH 480 0
DWIDTH 6 0
BBX 2 7 2 0
BITMAP
40
00
C0
40
40
40
40
ENDCHAR
STARTCHAR CYRILLIC
ENCODING -1
SWIDTH 480 0
DWIDTH 6 0
BBX 3 7 2 0
BITMAP
A0
00
C0
40
40
40
40
ENDCHAR
STARTCHAR CYRILLIC
ENCODING -1
SWIDTH 480 0
DWIDTH 6 0
BBX 2 9 2 -2
BITMAP
40
00
C0
40
40
40
40
40
80
ENDCHAR
STARTCHAR CYRILLIC
ENCODING -1
SWIDTH 480 0
DWIDTH 6 0
BBX 6 5 0 0
BITMAP
30
50
58
54
98
ENDCHAR
STARTCHAR CYRILLIC
ENCODING -1
SWIDTH 480 0
DWIDTH 6 0
BBX 5 5 1 0
BITMAP
A0
A0
F0
A8
B0
ENDCHAR
STARTCHAR CYRILLIC
ENCODING -1
SWIDTH 480 0
DWIDTH 6 0
BBX 6 8 0 0
BITMAP
40
F0
40
78
44
44
44
44
ENDCHAR
STARTCHAR CYRILLIC
ENCODING -1
SWIDTH 480 0
DWIDTH 6 0
BBX 4 8 2 0
BITMAP
20
40
00
90
A0
C0
A0
90
ENDCHAR
STARTCHAR CYRILLIC
ENCODING -1
SWIDTH 480 0
DWIDTH 6 0
BBX 5 8 1 0
BITMAP
40
20
00
88
98
A8
C8
88
ENDCHAR
STARTCHAR CYRILLIC
ENCODING -1
SWIDTH 480 0
DWIDTH 6 0
BBX 5 10 1 -2
BITMAP
88
70
00
88
88
88
88
78
08
30
ENDCHAR
STARTCHAR CYRILLIC
ENCODING -1
SWIDTH 480 0
DWIDTH 6 0
BBX 5 7 1 -2
BITMAP
88
88
88
88
F8
20
20
ENDCHAR
STARTCHAR CYRILLIC
ENCODING -1
SWIDTH 480 0
DWIDTH 6 0
BBX 5 7 1 0
BITMAP
88
88
A8
A8
A8
A8
50
ENDCHAR
STARTCHAR CYRILLIC
ENCODING -1
SWIDTH 480 0
DWIDTH 6 0
BBX 5 5 1 0
BITMAP
88
A8
A8
A8
50
ENDCHAR
STARTCHAR CYRILLIC
ENCODING -1
SWIDTH 480 0
DWIDTH 6 0
BBX 6 7 0 0
BITMAP
40
F0
40
78
44
44
78
ENDCHAR
STARTCHAR CYRILLIC
ENCODING -1
SWIDTH 480 0
DWIDTH 6 0
BBX 6 5 0 0
BITMAP
F0
40
78
44
78
ENDCHAR
STARTCHAR CYRILLIC
ENCODING -1
SWIDTH 480 0
DWIDTH 6 0
BBX 5 7 1 0
BITMAP
98
A0
A0
F8
A0
A0
98
ENDCHAR
STARTCHAR CYRILLIC
ENCODING -1
SWIDTH 480 0
DWIDTH 6 0
BBX 5 5 1 0
BITMAP
98
A0
F8
A0
98
ENDCHAR
STARTCHAR CYRILLIC
ENCODING -1
SWIDTH 480 0
DWIDTH 6 0
BBX 5 7 1 0
BITMAP
70
88
88
F8
A8
A8
A8
ENDCHAR
STARTCHAR CYRILLIC
ENCODING -1
SWIDTH 480 0
DWIDTH 6 0
BBX 5 5 1 0
BITMAP
70
88
F8
A8
A8
ENDCHAR
STARTCHAR CYRILLIC
ENCODING -1
SWIDTH 480 0
DWIDTH 6 0
BBX 5 7 1 0
BITMAP
90
A8
A8
F8
B8
B8
A8
ENDCHAR
STARTCHAR CYRILLIC
ENCODING -1
SWIDTH 480 0
DWIDTH 6 0
BBX 5 5 1 0
BITMAP
90
A8
F8
B8
A8
ENDCHAR
STARTCHAR CYRILLIC
ENCODING -1
SWIDTH 480 0
DWIDTH 6 0
BBX 5 7 1 0
BITMAP
F8
50
20
70
A8
A8
A8
ENDCHAR
STARTCHAR CYRILLIC
ENCODING -1
SWIDTH 480 0
DWIDTH 6 0
BBX 5 5 1 0
BITMAP
70
20
70
A8
A8
ENDCHAR
STARTCHAR CYRILLIC
ENCODING -1
SWIDTH 480 0
DWIDTH 6 0
BBX 5 7 1 0
BITMAP
B8
A8
90
F8
B8
B8
A8
ENDCHAR
STARTCHAR CYRILLIC
ENCODING -1
SWIDTH 480 0
DWIDTH 6 0
BBX 5 5 1 0
BITMAP
B8
90
F0
B8
A8
ENDCHAR
STARTCHAR CYRILLIC
ENCODING -1
SWIDTH 480 0
DWIDTH 6 0
BBX 5 11 1 -2
BITMAP
50
20
F0
08
08
30
08
08
70
80
78
ENDCHAR
STARTCHAR CYRILLIC
ENCODING -1
SWIDTH 480 0
DWIDTH 6 0
BBX 5 9 1 -2
BITMAP
50
20
F0
08
30
08
70
80
78
ENDCHAR
STARTCHAR CYRILLIC
ENCODING -1
SWIDTH 480 0
DWIDTH 6 0
BBX 5 7 1 0
BITMAP
A8
A8
A8
70
20
20
20
ENDCHAR
STARTCHAR CYRILLIC
ENCODING -1
SWIDTH 480 0
DWIDTH 6 0
BBX 5 7 1 -2
BITMAP
A8
A8
A8
A8
70
20
20
ENDCHAR
STARTCHAR CYRILLIC
ENCODING -1
SWIDTH 480 0
DWIDTH 6 0
BBX 5 7 1 0
BITMAP
70
88
88
F8
88
88
70
ENDCHAR
STARTCHAR CYRILLIC
ENCODING -1
SWIDTH 480 0
DWIDTH 6 0
BBX 5 5 1 0
BITMAP
70
88
F8
88
70
ENDCHAR
STARTCHAR CYRILLIC
ENCODING -1
SWIDTH 480 0
DWIDTH 6 0
BBX 5 7 1 0
BITMAP
88
88
88
88
50
50
20
ENDCHAR
STARTCHAR CYRILLIC
ENCODING -1
SWIDTH 480 0
DWIDTH 6 0
BBX 5 5 1 0
BITMAP
88
88
50
50
20
ENDCHAR
STARTCHAR CYRILLIC
ENCODING -1
SWIDTH 480 0
DWIDTH 6 0
BBX 5 10 1 0
BITMAP
90
48
00
88
88
88
88
50
50
20
ENDCHAR
STARTCHAR CYRILLIC
ENCODING -1
SWIDTH 480 0
DWIDTH 6 0
BBX 5 8 1 0
BITMAP
90
48
00
88
88
50
50
20
ENDCHAR
STARTCHAR CYRILLIC
ENCODING -1
SWIDTH 480 0
DWIDTH 6 0
BBX 5 9 1 -2
BITMAP
78
80
80
80
80
80
78
08
08
ENDCHAR
STARTCHAR CYRILLIC
ENCODING -1
SWIDTH 480 0
DWIDTH 6 0
BBX 5 7 1 -2
BITMAP
78
80
80
80
78
08
08
ENDCHAR
STARTCHAR CYRILLIC
ENCODING -1
SWIDTH 480 0
DWIDTH 6 0
BBX 5 11 1 -1
BITMAP
88
70
00
88
88
98
A8
C8
88
88
08
ENDCHAR
STARTCHAR CYRILLIC
ENCODING -1
SWIDTH 480 0
DWIDTH 6 0
BBX 5 9 1 -1
BITMAP
88
70
00
88
98
A8
C8
88
08
ENDCHAR
STARTCHAR CYRILLIC
ENCODING -1
SWIDTH 480 0
DWIDTH 6 0
BBX 6 7 0 0
BITMAP
40
F0
40
78
44
44
78
ENDCHAR
STARTCHAR CYRILLIC
ENCODING -1
SWIDTH 480 0
DWIDTH 6 0
BBX 6 5 0 0
BITMAP
F0
40
78
44
78
ENDCHAR
STARTCHAR CYRILLIC
ENCODING -1
SWIDTH 480 0
DWIDTH 6 0
BBX 5 7 1 0
BITMAP
F0
88
88
90
E8
80
80
ENDCHAR
STARTCHAR CYRILLIC
ENCODING -1
SWIDTH 480 0
DWIDTH 6 0
BBX 5 7 1 -2
BITMAP
F0
88
88
90
E8
80
80
ENDCHAR
STARTCHAR CYRILLIC
ENCODING -1
SWIDTH 480 0
DWIDTH 6 0
BBX 5 8 1 0
BITMAP
08
F8
80
80
80
80
80
80
ENDCHAR
STARTCHAR CYRILLIC
ENCODING -1
SWIDTH 480 0
DWIDTH 6 0
BBX 5 6 1 0
BITMAP
08
F8
80
80
80
80
ENDCHAR
STARTCHAR CYRILLIC
ENCODING -1
SWIDTH 480 0
DWIDTH 6 0
BBX 6 7 0 0
BITMAP
7C
40
40
F0
40
40
40
ENDCHAR
STARTCHAR CYRILLIC
ENCODING -1
SWIDTH 480 0
DWIDTH 6 0
BBX 6 5 0 0
BITMAP
7C
40
F0
40
40
ENDCHAR
STARTCHAR CYRILLIC
ENCODING -1
SWIDTH 480 0
DWIDTH 6 0
BBX 5 8 1 -1
BITMAP
A8
A8
A8
70
A8
A8
A8
08
ENDCHAR
STARTCHAR CYRILLIC
ENCODING -1
SWIDTH 480 0
DWIDTH 6 0
BBX 5 6 1 -1
BITMAP
A8
A8
70
A8
A8
08
ENDCHAR
STARTCHAR CYRILLIC
ENCODING -1
SWIDTH 480 0
DWIDTH 6 0
BBX 5 8 1 -1
BITMAP
F0
08
08
30
08
08
F0
20
ENDCHAR
STARTCHAR CYRILLIC
ENCODING -1
SWIDTH 480 0
DWIDTH 6 0
BBX 5 6 1 -1
BITMAP
F0
08
30
08
F0
20
ENDCHAR
STARTCHAR CYRILLIC
ENCODING -1
SWIDTH 480 0
DWIDTH 6 0
BBX 5 8 1 -1
BITMAP
88
90
A0
C0
A0
90
88
08
ENDCHAR
STARTCHAR CYRILLIC
ENCODING -1
SWIDTH 480 0
DWIDTH 6 0
BBX 4 6 2 -1
BITMAP
90
A0
C0
A0
90
10
ENDCHAR
STARTCHAR CYRILLIC
ENCODING -1
SWIDTH 480 0
DWIDTH 6 0
BBX 5 7 1 0
BITMAP
88
B0
A0
E0
A0
B0
88
ENDCHAR
STARTCHAR CYRILLIC
ENCODING -1
SWIDTH 480 0
DWIDTH 6 0
BBX 5 5 1 0
BITMAP
88
B0
E0
B0
88
ENDCHAR
STARTCHAR CYRILLIC
ENCODING -1
SWIDTH 480 0
DWIDTH 6 0
BBX 6 7 0 0
BITMAP
C4
48
50
60
50
48
44
ENDCHAR
STARTCHAR CYRILLIC
ENCODING -1
SWIDTH 480 0
DWIDTH 6 0
BBX 5 5 1 0
BITMAP
C8
50
60
50
48
ENDCHAR
STARTCHAR CYRILLIC
ENCODING -1
SWIDTH 480 0
DWIDTH 6 0
BBX 5 8 1 -1
BITMAP
90
90
90
F0
90
90
98
08
ENDCHAR
STARTCHAR CYRILLIC
ENCODING -1
SWIDTH 480 0
DWIDTH 6 0
BBX 5 6 1 -1
BITMAP
90
90
F0
90
98
08
ENDCHAR
STARTCHAR CYRILLIC
ENCODING -1
SWIDTH 480 0
DWIDTH 6 0
BBX 5 8 1 -1
BITMAP
78
80
80
80
80
80
78
20
ENDCHAR
STARTCHAR CYRILLIC
ENCODING -1
SWIDTH 480 0
DWIDTH 6 0
BBX 5 6 1 -1
BITMAP
78
80
80
80
78
20
ENDCHAR
STARTCHAR CYRILLIC
ENCODING -1
SWIDTH 480 0
DWIDTH 6 0
BBX 5 7 1 0
BITMAP
88
88
50
20
20
20
20
ENDCHAR
STARTCHAR CYRILLIC
ENCODING -1
SWIDTH 480 0
DWIDTH 6 0
BBX 5 7 1 -2
BITMAP
88
88
50
50
20
20
20
ENDCHAR
STARTCHAR CYRILLIC
ENCODING -1
SWIDTH 480 0
DWIDTH 6 0
BBX 5 7 1 0
BITMAP
88
88
50
20
70
20
20
ENDCHAR
STARTCHAR CYRILLIC
ENCODING -1
SWIDTH 480 0
DWIDTH 6 0
BBX 5 7 1 -2
BITMAP
88
88
50
50
20
70
20
ENDCHAR
STARTCHAR CYRILLIC
ENCODING -1
SWIDTH 480 0
DWIDTH 6 0
BBX 5 7 1 0
BITMAP
80
80
80
F0
88
88
88
ENDCHAR
STARTCHAR CYRILLIC
ENCODING -1
SWIDTH 480 0
DWIDTH 6 0
BBX 5 5 1 0
BITMAP
80
80
F0
88
88
ENDCHAR
STARTCHAR CYRILLIC
ENCODING -1
SWIDTH 480 0
DWIDTH 6 0
BBX 3 7 2 0
BITMAP
E0
40
40
40
40
40
E0
ENDCHAR
STARTCHAR CYRILLIC
ENCODING -1
SWIDTH 480 0
DWIDTH 6 0
BBX 5 8 1 -1
BITMAP
38
48
48
48
48
48
88
08
ENDCHAR
STARTCHAR CYRILLIC
ENCODING -1
SWIDTH 480 0
DWIDTH 6 0
BBX 5 6 1 -1
BITMAP
38
48
48
48
88
08
ENDCHAR
STARTCHAR CYRILLIC
ENCODING -1
SWIDTH 480 0
DWIDTH 6 0
BBX 5 9 1 -2
BITMAP
88
88
88
F8
88
88
88
08
10
ENDCHAR
STARTCHAR CYRILLIC
ENCODING -1
SWIDTH 480 0
DWIDTH 6 0
BBX 5 7 1 -2
BITMAP
88
88
F8
88
88
08
10
ENDCHAR
STARTCHAR CYRILLIC
ENCODING -1
SWIDTH 480 0
DWIDTH 6 0
BBX 5 8 1 -1
BITMAP
88
88
88
F8
88
88
88
08
ENDCHAR
STARTCHAR CYRILLIC
ENCODING -1
SWIDTH 480 0
DWIDTH 6 0
BBX 5 6 1 -1
BITMAP
88
88
F8
88
88
08
ENDCHAR
STARTCHAR CYRILLIC
ENCODING -1
SWIDTH 480 0
DWIDTH 6 0
BBX 5 8 1 -1
BITMAP
88
D8
A8
88
88
88
88
08
ENDCHAR
STARTCHAR CYRILLIC
ENCODING -1
SWIDTH 480 0
DWIDTH 6 0
BBX 5 6 1 -1
BITMAP
88
D8
A8
88
88
08
ENDCHAR
STARTCHAR CYRILLIC
ENCODING -1
SWIDTH 480 0
DWIDTH 6 0
BBX 3 8 2 0
BITMAP
80
80
80
80
80
80
80
60
ENDCHAR
STARTCHAR CYRILLIC
ENCODING -1
SWIDTH 480 0
DWIDTH 6 0
BBX 5 10 1 0
BITMAP
88
70
00
70
88
88
88
F8
88
88
ENDCHAR
STARTCHAR CYRILLIC
ENCODING -1
SWIDTH 480 0
DWIDTH 6 0
BBX 5 8 1 0
BITMAP
48
30
00
70
08
78
88
78
ENDCHAR
STARTCHAR CYRILLIC
ENCODING -1
SWIDTH 480 0
DWIDTH 6 0
BBX 5 9 1 0
BITMAP
50
00
70
88
88
88
F8
88
88
ENDCHAR
STARTCHAR CYRILLIC
ENCODING -1
SWIDTH 480 0
DWIDTH 6 0
BBX 5 7 1 0
BITMAP
50
00
70
08
78
88
78
ENDCHAR
STARTCHAR CYRILLIC
ENCODING -1
SWIDTH 480 0
DWIDTH 6 0
BBX 5 7 1 0
BITMAP
78
A0
A0
B0
E0
A0
B8
ENDCHAR
STARTCHAR CYRILLIC
ENCODING -1
SWIDTH 480 0
DWIDTH 6 0
BBX 6 5 0 0
BITMAP
68
14
7C
90
6C
ENDCHAR
STARTCHAR CYRILLIC
ENCODING -1
SWIDTH 480 0
DWIDTH 6 0
BBX 5 10 1 0
BITMAP
88
70
00
F8
80
80
E0
80
80
F8
ENDCHAR
STARTCHAR CYRILLIC
ENCODING -1
SWIDTH 480 0
DWIDTH 6 0
BBX 5 8 1 0
BITMAP
88
70
00
70
88
F8
80
70
ENDCHAR
STARTCHAR CYRILLIC
ENCODING -1
SWIDTH 480 0
DWIDTH 6 0
BBX 5 7 1 0
BITMAP
70
08
08
F8
88
88
70
ENDCHAR
STARTCHAR CYRILLIC
ENCODING -1
SWIDTH 480 0
DWIDTH 6 0
BBX 5 5 1 0
BITMAP
70
08
F8
88
70
ENDCHAR
STARTCHAR CYRILLIC
ENCODING -1
SWIDTH 480 0
DWIDTH 6 0
BBX 5 9 1 0
BITMAP
70
00
88
88
98
A8
C8
88
88
ENDCHAR
STARTCHAR CYRILLIC
ENCODING -1
SWIDTH 480 0
DWIDTH 6 0
BBX 5 7 1 0
BITMAP
70
00
88
98
A8
C8
88
ENDCHAR
STARTCHAR CYRILLIC
ENCODING -1
SWIDTH 480 0
DWIDTH 6 0
BBX 5 9 1 0
BITMAP
50
00
70
88
88
88
88
88
70
ENDCHAR
STARTCHAR CYRILLIC
ENCODING -1
SWIDTH 480 0
DWIDTH 6 0
BBX 5 7 1 0
BITMAP
50
00
70
88
88
88
70
ENDCHAR
STARTCHAR CYRILLIC
ENCODING -1
SWIDTH 480 0
DWIDTH 6 0
BBX 5 7 1 0
BITMAP
70
88
88
F8
88
88
70
ENDCHAR
STARTCHAR CYRILLIC
ENCODING -1
SWIDTH 480 0
DWIDTH 6 0
BBX 5 5 1 0
BITMAP
70
88
F8
88
70
ENDCHAR
STARTCHAR CYRILLIC
ENCODING -1
SWIDTH 480 0
DWIDTH 6 0
BBX 5 9 1 0
BITMAP
50
00
F0
08
08
38
08
08
F0
ENDCHAR
STARTCHAR CYRILLIC
ENCODING -1
SWIDTH 480 0
DWIDTH 6 0
BBX 5 7 1 0
BITMAP
50
00
F0
08
38
08
F0
ENDCHAR
STARTCHAR CYRILLIC
ENCODING -1
SWIDTH 480 0
DWIDTH 6 0
BBX 5 9 1 0
BITMAP
70
00
88
88
88
78
08
08
30
ENDCHAR
STARTCHAR CYRILLIC
ENCODING -1
SWIDTH 480 0
DWIDTH 6 0
BBX 5 9 1 -2
BITMAP
70
00
88
88
88
88
78
08
30
ENDCHAR
STARTCHAR CYRILLIC
ENCODING -1
SWIDTH 480 0
DWIDTH 6 0
BBX 5 9 1 0
BITMAP
50
00
88
88
88
78
08
08
30
ENDCHAR
STARTCHAR CYRILLIC
ENCODING -1
SWIDTH 480 0
DWIDTH 6 0
BBX 5 9 1 -2
BITMAP
50
00
88
88
88
88
78
08
30
ENDCHAR
STARTCHAR CYRILLIC
ENCODING -1
SWIDTH 480 0
DWIDTH 6 0
BBX 5 10 1 0
BITMAP
48
90
00
88
88
88
78
08
08
30
ENDCHAR
STARTCHAR CYRILLIC
ENCODING -1
SWIDTH 480 0
DWIDTH 6 0
BBX 5 10 1 -2
BITMAP
48
90
00
88
88
88
88
78
08
30
ENDCHAR
STARTCHAR CYRILLIC
ENCODING -1
SWIDTH 480 0
DWIDTH 6 0
BBX 5 9 1 0
BITMAP
50
00
88
88
88
E8
98
98
E8
ENDCHAR
STARTCHAR CYRILLIC
ENCODING -1
SWIDTH 480 0
DWIDTH 6 0
BBX 5 7 1 0
BITMAP
50
00
88
88
E8
98
E8
ENDCHAR
STARTCHAR ARMENIAN
ENCODING -1
SWIDTH 480 0
DWIDTH 6 0
BBX 5 7 1 0
BITMAP
88
88
88
88
A8
90
68
ENDCHAR
STARTCHAR ARMENIAN
ENCODING -1
SWIDTH 480 0
DWIDTH 6 0
BBX 5 7 1 0
BITMAP
78
80
80
80
F8
80
80
ENDCHAR
STARTCHAR ARMENIAN
ENCODING -1
SWIDTH 480 0
DWIDTH 6 0
BBX 5 7 1 0
BITMAP
60
90
90
90
78
10
10
ENDCHAR
STARTCHAR ARMENIAN
ENCODING -1
SWIDTH 480 0
DWIDTH 6 0
BBX 5 7 1 0
BITMAP
E0
10
10
10
18
10
10
ENDCHAR
STARTCHAR ARMENIAN
ENCODING -1
SWIDTH 480 0
DWIDTH 6 0
BBX 5 7 1 0
BITMAP
80
80
F8
80
80
80
78
ENDCHAR
STARTCHAR ARMENIAN
ENCODING -1
SWIDTH 480 0
DWIDTH 6 0
BBX 5 7 1 0
BITMAP
70
88
88
08
08
90
F8
ENDCHAR
STARTCHAR ARMENIAN
ENCODING -1
SWIDTH 480 0
DWIDTH 6 0
BBX 5 7 1 0
BITMAP
80
80
F8
80
80
80
F0
ENDCHAR
STARTCHAR ARMENIAN
ENCODING -1
SWIDTH 480 0
DWIDTH 6 0
BBX 5 7 1 0
BITMAP
78
80
80
80
80
80
F8
ENDCHAR
STARTCHAR ARMENIAN
ENCODING -1
SWIDTH 480 0
DWIDTH 6 0
BBX 5 7 1 0
BITMAP
70
88
88
98
A8
A8
90
ENDCHAR
STARTCHAR ARMENIAN
ENCODING -1
SWIDTH 480 0
DWIDTH 6 0
BBX 5 7 1 0
BITMAP
10
10
78
90
90
90
60
ENDCHAR
STARTCHAR ARMENIAN
ENCODING -1
SWIDTH 480 0
DWIDTH 6 0
BBX 5 7 1 0
BITMAP
80
80
F0
88
88
80
80
ENDCHAR
STARTCHAR ARMENIAN
ENCODING -1
SWIDTH 480 0
DWIDTH 6 0
BBX 5 7 1 0
BITMAP
80
80
80
80
80
80
F8
ENDCHAR
STARTCHAR ARMENIAN
ENCODING -1
SWIDTH 480 0
DWIDTH 6 0
BBX 5 7 1 0
BITMAP
80
80
E8
A8
A8
A8
90
ENDCHAR
STARTCHAR ARMENIAN
ENCODING -1
SWIDTH 480 0
DWIDTH 6 0
BBX 5 7 1 0
BITMAP
98
A0
F0
48
88
88
70
ENDCHAR
STARTCHAR ARMENIAN
ENCODING -1
SWIDTH 480 0
DWIDTH 6 0
BBX 5 7 1 0
BITMAP
80
80
88
88
78
08
08
ENDCHAR
STARTCHAR ARMENIAN
ENCODING -1
SWIDTH 480 0
DWIDTH 6 0
BBX 5 7 1 0
BITMAP
10
08
18
60
80
60
18
ENDCHAR
STARTCHAR ARMENIAN
ENCODING -1
SWIDTH 480 0
DWIDTH 6 0
BBX 5 7 1 0
BITMAP
70
88
08
08
68
90
68
ENDCHAR
STARTCHAR ARMENIAN
ENCODING -1
SWIDTH 480 0
DWIDTH 6 0
BBX 5 7 1 0
BITMAP
E0
10
10
10
10
10
18
ENDCHAR
STARTCHAR ARMENIAN
ENCODING -1
SWIDTH 480 0
DWIDTH 6 0
BBX 5 7 1 0
BITMAP
98
60
60
50
90
88
F8
ENDCHAR
STARTCHAR ARMENIAN
ENCODING -1
SWIDTH 480 0
DWIDTH 6 0
BBX 5 7 1 0
BITMAP
98
90
90
90
90
90
60
ENDCHAR
STARTCHAR ARMENIAN
ENCODING -1
SWIDTH 480 0
DWIDTH 6 0
BBX 5 7 1 0
BITMAP
F0
08
08
F0
08
08
F0
ENDCHAR
STARTCHAR ARMENIAN
ENCODING -1
SWIDTH 480 0
DWIDTH 6 0
BBX 5 7 1 0
BITMAP
C0
40
40
40
48
48
30
ENDCHAR
STARTCHAR ARMENIAN
ENCODING -1
SWIDTH 480 0
DWIDTH 6 0
BBX 5 7 1 0
BITMAP
C0
30
78
80
80
88
70
ENDCHAR
STARTCHAR ARMENIAN
ENCODING -1
SWIDTH 480 0
DWIDTH 6 0
BBX 5 7 1 0
BITMAP
70
88
88
88
88
88
88
ENDCHAR
STARTCHAR ARMENIAN
ENCODING -1
SWIDTH 480 0
DWIDTH 6 0
BBX 5 7 1 0
BITMAP
70
88
08
08
70
C0
30
ENDCHAR
STARTCHAR ARMENIAN
ENCODING -1
SWIDTH 480 0
DWIDTH 6 0
BBX 5 7 1 0
BITMAP
F0
28
28
28
08
08
08
ENDCHAR
STARTCHAR ARMENIAN
ENCODING -1
SWIDTH 480 0
DWIDTH 6 0
BBX 5 7 1 0
BITMAP
70
88
88
48
28
B0
F8
ENDCHAR
STARTCHAR ARMENIAN
ENCODING -1
SWIDTH 480 0
DWIDTH 6 0
BBX 5 7 1 0
BITMAP
60
90
90
90
98
90
90
ENDCHAR
STARTCHAR ARMENIAN
ENCODING -1
SWIDTH 480 0
DWIDTH 6 0
BBX 5 7 1 0
BITMAP
88
88
88
88
88
88
70
ENDCHAR
STARTCHAR ARMENIAN
ENCODING -1
SWIDTH 480 0
DWIDTH 6 0
BBX 5 7 1 0
BITMAP
10
10
90
90
70
10
18
ENDCHAR
STARTCHAR ARMENIAN
ENCODING -1
SWIDTH 480 0
DWIDTH 6 0
BBX 5 7 1 0
BITMAP
78
80
80
70
08
08
F0
ENDCHAR
STARTCHAR ARMENIAN
ENCODING -1
SWIDTH 480 0
DWIDTH 6 0
BBX 5 7 1 0
BITMAP
78
80
80
80
80
80
80
ENDCHAR
STARTCHAR ARMENIAN
ENCODING -1
SWIDTH 480 0
DWIDTH 6 0
BBX 5 7 1 0
BITMAP
70
88
88
F0
08
08
F0
ENDCHAR
STARTCHAR ARMENIAN
ENCODING -1
SWIDTH 480 0
DWIDTH 6 0
BBX 5 7 1 0
BITMAP
80
80
F8
80
80
80
80
ENDCHAR
STARTCHAR ARMENIAN
ENCODING -1
SWIDTH 480 0
DWIDTH 6 0
BBX 5 7 1 0
BITMAP
20
70
A8
A8
A8
70
20
ENDCHAR
STARTCHAR ARMENIAN
ENCODING -1
SWIDTH 480 0
DWIDTH 6 0
BBX 5 7 1 0
BITMAP
30
48
48
70
40
F8
40
ENDCHAR
STARTCHAR ARMENIAN
ENCODING -1
SWIDTH 480 0
DWIDTH 6 0
BBX 5 7 1 0
BITMAP
70
88
88
88
88
88
70
ENDCHAR
STARTCHAR ARMENIAN
ENCODING -1
SWIDTH 480 0
DWIDTH 6 0
BBX 5 7 1 0
BITMAP
60
A0
A0
70
28
28
F0
ENDCHAR
STARTCHAR ARMENIAN
ENCODING -1
SWIDTH 480 0
DWIDTH 6 0
BBX 2 3 2 5
BITMAP
40
80
40
ENDCHAR
STARTCHAR ARMENIAN
ENCODING -1
SWIDTH 480 0
DWIDTH 6 0
BBX 2 3 2 5
BITMAP
40
40
80
ENDCHAR
STARTCHAR ARMENIAN
ENCODING -1
SWIDTH 480 0
DWIDTH 6 0
BBX 3 3 2 6
BITMAP
20
40
80
ENDCHAR
STARTCHAR ARMENIAN
ENCODING -1
SWIDTH 480 0
DWIDTH 6 0
BBX 5 3 1 6
BITMAP
08
70
80
ENDCHAR
STARTCHAR ARMENIAN
ENCODING -1
SWIDTH 480 0
DWIDTH 6 0
BBX 3 3 2 6
BITMAP
80
40
20
ENDCHAR
STARTCHAR ARMENIAN
ENCODING -1
SWIDTH 480 0
DWIDTH 6 0
BBX 5 3 1 6
BITMAP
70
88
B0
ENDCHAR
STARTCHAR ARMENIAN
ENCODING -1
SWIDTH 480 0
DWIDTH 6 0
BBX 5 2 1 6
BITMAP
80
F8
ENDCHAR
STARTCHAR ARMENIAN
ENCODING -1
SWIDTH 480 0
DWIDTH 6 0
BBX 5 5 1 0
BITMAP
A8
A8
A8
A8
58
ENDCHAR
STARTCHAR ARMENIAN
ENCODING -1
SWIDTH 480 0
DWIDTH 6 0
BBX 5 7 1 -2
BITMAP
F0
88
80
80
F8
80
80
ENDCHAR
STARTCHAR ARMENIAN
ENCODING -1
SWIDTH 480 0
DWIDTH 6 0
BBX 5 7 1 -2
BITMAP
70
90
90
90
78
10
10
ENDCHAR
STARTCHAR ARMENIAN
ENCODING -1
SWIDTH 480 0
DWIDTH 6 0
BBX 5 7 1 -2
BITMAP
E0
90
90
90
98
10
10
ENDCHAR
STARTCHAR ARMENIAN
ENCODING -1
SWIDTH 480 0
DWIDTH 6 0
BBX 5 8 1 0
BITMAP
80
80
80
F8
80
88
88
78
ENDCHAR
STARTCHAR ARMENIAN
ENCODING -1
SWIDTH 480 0
DWIDTH 6 0
BBX 5 7 1 -2
BITMAP
70
90
90
90
70
10
18
ENDCHAR
STARTCHAR ARMENIAN
ENCODING -1
SWIDTH 480 0
DWIDTH 6 0
BBX 5 8 1 0
BITMAP
80
80
80
F8
80
80
80
F0
ENDCHAR
STARTCHAR ARMENIAN
ENCODING -1
SWIDTH 480 0
DWIDTH 6 0
BBX 5 7 1 -2
BITMAP
F0
88
88
88
88
80
F8
ENDCHAR
STARTCHAR ARMENIAN
ENCODING -1
SWIDTH 480 0
DWIDTH 6 0
BBX 5 7 1 -2
BITMAP
F0
88
98
A8
90
80
80
ENDCHAR
STARTCHAR ARMENIAN
ENCODING -1
SWIDTH 480 0
DWIDTH 6 0
BBX 5 8 1 0
BITMAP
10
10
10
78
90
90
90
60
ENDCHAR
STARTCHAR ARMENIAN
ENCODING -1
SWIDTH 480 0
DWIDTH 6 0
BBX 5 10 1 -2
BITMAP
80
80
80
F0
88
88
88
88
80
80
ENDCHAR
STARTCHAR ARMENIAN
ENCODING -1
SWIDTH 480 0
DWIDTH 6 0
BBX 2 9 2 -2
BITMAP
80
80
80
80
80
80
80
80
C0
ENDCHAR
STARTCHAR ARMENIAN
ENCODING -1
SWIDTH 480 0
DWIDTH 6 0
BBX 5 10 1 -2
BITMAP
80
80
80
C8
A8
A8
A8
90
80
80
ENDCHAR
STARTCHAR ARMENIAN
ENCODING -1
SWIDTH 480 0
DWIDTH 6 0
BBX 5 8 1 0
BITMAP
40
80
40
78
90
88
88
70
ENDCHAR
STARTCHAR ARMENIAN
ENCODING -1
SWIDTH 480 0
DWIDTH 6 0
BBX 5 10 1 -2
BITMAP
80
80
80
88
88
88
88
78
08
08
ENDCHAR
STARTCHAR ARMENIAN
ENCODING -1
SWIDTH 480 0
DWIDTH 6 0
BBX 5 8 1 0
BITMAP
80
80
80
F0
88
88
88
88
ENDCHAR
STARTCHAR ARMENIAN
ENCODING -1
SWIDTH 480 0
DWIDTH 6 0
BBX 5 8 1 0
BITMAP
20
40
20
70
88
88
88
78
ENDCHAR
STARTCHAR ARMENIAN
ENCODING -1
SWIDTH 480 0
DWIDTH 6 0
BBX 5 7 1 -2
BITMAP
E0
90
90
90
90
10
18
ENDCHAR
STARTCHAR ARMENIAN
ENCODING -1
SWIDTH 480 0
DWIDTH 6 0
BBX 5 8 1 0
BITMAP
18
20
40
F0
48
88
98
68
ENDCHAR
STARTCHAR ARMENIAN
ENCODING -1
SWIDTH 480 0
DWIDTH 6 0
BBX 5 8 1 0
BITMAP
18
10
10
90
90
90
90
70
ENDCHAR
STARTCHAR ARMENIAN
ENCODING -1
SWIDTH 480 0
DWIDTH 6 0
BBX 2 7 2 -2
BITMAP
40
40
40
40
40
40
80
ENDCHAR
STARTCHAR ARMENIAN
ENCODING -1
SWIDTH 480 0
DWIDTH 6 0
BBX 5 8 1 0
BITMAP
C0
40
40
48
48
48
48
38
ENDCHAR
STARTCHAR ARMENIAN
ENCODING -1
SWIDTH 480 0
DWIDTH 6 0
BBX 5 7 1 -2
BITMAP
F0
08
08
10
20
40
F8
ENDCHAR
STARTCHAR ARMENIAN
ENCODING -1
SWIDTH 480 0
DWIDTH 6 0
BBX 5 5 1 0
BITMAP
F0
88
88
88
88
ENDCHAR
STARTCHAR ARMENIAN
ENCODING -1
SWIDTH 480 0
DWIDTH 6 0
BBX 5 9 1 -2
BITMAP
40
80
70
10
20
40
80
80
F8
ENDCHAR
STARTCHAR ARMENIAN
ENCODING -1
SWIDTH 480 0
DWIDTH 6 0
BBX 5 7 1 -2
BITMAP
A8
A8
A8
A8
58
08
08
ENDCHAR
STARTCHAR ARMENIAN
ENCODING -1
SWIDTH 480 0
DWIDTH 6 0
BBX 5 7 1 -2
BITMAP
70
88
88
50
20
40
F8
ENDCHAR
STARTCHAR ARMENIAN
ENCODING -1
SWIDTH 480 0
DWIDTH 6 0
BBX 5 5 1 0
BITMAP
F0
88
88
90
B8
ENDCHAR
STARTCHAR ARMENIAN
ENCODING -1
SWIDTH 480 0
DWIDTH 6 0
BBX 5 5 1 0
BITMAP
88
88
88
88
78
ENDCHAR
STARTCHAR ARMENIAN
ENCODING -1
SWIDTH 480 0
DWIDTH 6 0
BBX 5 10 1 -2
BITMAP
10
10
10
90
90
90
90
70
10
18
ENDCHAR
STARTCHAR ARMENIAN
ENCODING -1
SWIDTH 480 0
DWIDTH 6 0
BBX 5 5 1 0
BITMAP
B0
A8
A8
A8
68
ENDCHAR
STARTCHAR ARMENIAN
ENCODING -1
SWIDTH 480 0
DWIDTH 6 0
BBX 5 7 1 -2
BITMAP
F0
88
88
88
88
80
80
ENDCHAR
STARTCHAR ARMENIAN
ENCODING -1
SWIDTH 480 0
DWIDTH 6 0
BBX 5 7 1 -2
BITMAP
78
88
88
88
78
08
70
ENDCHAR
STARTCHAR ARMENIAN
ENCODING -1
SWIDTH 480 0
DWIDTH 6 0
BBX 3 5 2 0
BITMAP
80
80
80
80
E0
ENDCHAR
STARTCHAR ARMENIAN
ENCODING -1
SWIDTH 480 0
DWIDTH 6 0
BBX 5 10 1 -2
BITMAP
20
20
20
B0
A8
A8
A8
68
20
20
ENDCHAR
STARTCHAR ARMENIAN
ENCODING -1
SWIDTH 480 0
DWIDTH 6 0
BBX 5 7 1 -2
BITMAP
70
48
48
48
70
40
F8
ENDCHAR
STARTCHAR ARMENIAN
ENCODING -1
SWIDTH 480 0
DWIDTH 6 0
BBX 5 5 1 0
BITMAP
70
88
88
88
70
ENDCHAR
STARTCHAR ARMENIAN
ENCODING -1
SWIDTH 480 0
DWIDTH 6 0
BBX 5 10 1 -2
BITMAP
60
A0
A0
70
28
28
28
F0
20
20
ENDCHAR
STARTCHAR ARMENIAN
ENCODING -1
SWIDTH 480 0
DWIDTH 6 0
BBX 5 8 1 0
BITMAP
80
80
80
A0
A0
A0
A0
78
ENDCHAR
STARTCHAR ARMENIAN
ENCODING -1
SWIDTH 480 0
DWIDTH 6 0
BBX 1 5 3 0
BITMAP
80
00
00
00
80
ENDCHAR
STARTCHAR ARMENIAN
ENCODING -1
SWIDTH 480 0
DWIDTH 6 0
BBX 5 2 1 2
BITMAP
88
70
ENDCHAR
STARTCHAR RIGHT-FACING
ENCODING -1
SWIDTH 480 0
DWIDTH 6 0
BBX 6 6 0 0
BITMAP
78
A4
BC
F4
94
78
ENDCHAR
STARTCHAR LEFT-FACING
ENCODING -1
SWIDTH 480 0
DWIDTH 6 0
BBX 6 6 0 0
BITMAP
78
94
F4
BC
A4
78
ENDCHAR
STARTCHAR ARMENIAN
ENCODING -1
SWIDTH 480 0
DWIDTH 6 0
BBX 5 7 1 0
BITMAP
E0
10
10
38
10
38
10
ENDCHAR
STARTCHAR HEBREW
ENCODING -1
SWIDTH 480 0
DWIDTH 6 0
BBX 5 5 1 0
BITMAP
88
48
A8
90
88
ENDCHAR
STARTCHAR HEBREW
ENCODING -1
SWIDTH 480 0
DWIDTH 6 0
BBX 5 5 1 0
BITMAP
E0
10
10
10
F8
ENDCHAR
STARTCHAR HEBREW
ENCODING -1
SWIDTH 480 0
DWIDTH 6 0
BBX 5 5 1 0
BITMAP
E0
10
10
10
E8
ENDCHAR
STARTCHAR HEBREW
ENCODING -1
SWIDTH 480 0
DWIDTH 6 0
BBX 5 5 1 0
BITMAP
F8
10
10
10
10
ENDCHAR
STARTCHAR HEBREW
ENCODING -1
SWIDTH 480 0
DWIDTH 6 0
BBX 5 5 1 0
BITMAP
F0
08
88
88
88
ENDCHAR
STARTCHAR HEBREW
ENCODING -1
SWIDTH 480 0
DWIDTH 6 0
BBX 1 5 3 0
BITMAP
80
80
80
80
80
ENDCHAR
STARTCHAR HEBREW
ENCODING -1
SWIDTH 480 0
DWIDTH 6 0
BBX 5 5 1 0
BITMAP
F8
08
10
20
20
ENDCHAR
STARTCHAR HEBREW
ENCODING -1
SWIDTH 480 0
DWIDTH 6 0
BBX 5 5 1 0
BITMAP
F0
88
88
88
88
ENDCHAR
STARTCHAR HEBREW
ENCODING -1
SWIDTH 480 0
DWIDTH 6 0
BBX 5 5 1 0
BITMAP
B0
88
88
88
70
ENDCHAR
STARTCHAR HEBREW
ENCODING -1
SWIDTH 480 0
DWIDTH 6 0
BBX 1 3 3 2
BITMAP
80
80
80
ENDCHAR
STARTCHAR HEBREW
ENCODING -1
SWIDTH 480 0
DWIDTH 6 0
BBX 5 7 1 -2
BITMAP
F0
08
08
08
08
08
08
ENDCHAR
STARTCHAR HEBREW
ENCODING -1
SWIDTH 480 0
DWIDTH 6 0
BBX 5 5 1 0
BITMAP
F0
08
08
08
F0
ENDCHAR
STARTCHAR HEBREW
ENCODING -1
SWIDTH 480 0
DWIDTH 6 0
BBX 5 6 1 0
BITMAP
80
F8
08
10
20
40
ENDCHAR
STARTCHAR HEBREW
ENCODING -1
SWIDTH 480 0
DWIDTH 6 0
BBX 5 5 1 0
BITMAP
F0
88
88
88
F8
ENDCHAR
STARTCHAR HEBREW
ENCODING -1
SWIDTH 480 0
DWIDTH 6 0
BBX 5 5 1 0
BITMAP
B0
48
48
88
B8
ENDCHAR
STARTCHAR HEBREW
ENCODING -1
SWIDTH 480 0
DWIDTH 6 0
BBX 1 7 3 -2
BITMAP
80
80
80
80
80
80
80
ENDCHAR
STARTCHAR HEBREW
ENCODING -1
SWIDTH 480 0
DWIDTH 6 0
BBX 5 5 1 0
BITMAP
F0
08
08
08
F8
ENDCHAR
STARTCHAR HEBREW
ENCODING -1
SWIDTH 480 0
DWIDTH 6 0
BBX 5 5 1 0
BITMAP
F0
88
88
88
70
ENDCHAR
STARTCHAR HEBREW
ENCODING -1
SWIDTH 480 0
DWIDTH 6 0
BBX 5 5 1 0
BITMAP
88
88
48
48
F0
ENDCHAR
STARTCHAR HEBREW
ENCODING -1
SWIDTH 480 0
DWIDTH 6 0
BBX 5 7 1 -2
BITMAP
F0
88
68
08
08
08
08
ENDCHAR
STARTCHAR HEBREW
ENCODING -1
SWIDTH 480 0
DWIDTH 6 0
BBX 5 5 1 0
BITMAP
F0
88
68
08
F0
ENDCHAR
STARTCHAR HEBREW
ENCODING -1
SWIDTH 480 0
DWIDTH 6 0
BBX 5 7 1 -2
BITMAP
88
48
30
20
20
20
20
ENDCHAR
STARTCHAR HEBREW
ENCODING -1
SWIDTH 480 0
DWIDTH 6 0
BBX 5 5 1 0
BITMAP
88
48
30
10
F8
ENDCHAR
STARTCHAR HEBREW
ENCODING -1
SWIDTH 480 0
DWIDTH 6 0
BBX 5 7 1 -2
BITMAP
F8
08
88
90
A0
80
80
ENDCHAR
STARTCHAR HEBREW
ENCODING -1
SWIDTH 480 0
DWIDTH 6 0
BBX 5 5 1 0
BITMAP
F0
08
08
08
08
ENDCHAR
STARTCHAR HEBREW
ENCODING -1
SWIDTH 480 0
DWIDTH 6 0
BBX 5 5 1 0
BITMAP
A8
A8
C8
88
F0
ENDCHAR
STARTCHAR HEBREW
ENCODING -1
SWIDTH 480 0
DWIDTH 6 0
BBX 5 5 1 0
BITMAP
F0
48
48
48
88
ENDCHAR
STARTCHAR KANNADA
ENCODING -1
SWIDTH 480 0
DWIDTH 6 0
BBX 5 7 1 0
BITMAP
08
08
F0
88
A8
88
70
ENDCHAR
STARTCHAR GEORGIAN
ENCODING -1
SWIDTH 480 0
DWIDTH 6 0
BBX 5 6 1 0
BITMAP
20
10
08
08
08
F0
ENDCHAR
STARTCHAR GEORGIAN
ENCODING -1
SWIDTH 480 0
DWIDTH 6 0
BBX 5 8 1 0
BITMAP
E0
20
20
50
88
88
88
70
ENDCHAR
STARTCHAR GEORGIAN
ENCODING -1
SWIDTH 480 0
DWIDTH 6 0
BBX 5 7 1 -2
BITMAP
C0
20
50
88
88
88
70
ENDCHAR
STARTCHAR GEORGIAN
ENCODING -1
SWIDTH 480 0
DWIDTH 6 0
BBX 5 7 1 -2
BITMAP
50
A8
A8
A8
90
40
B8
ENDCHAR
STARTCHAR GEORGIAN
ENCODING -1
SWIDTH 480 0
DWIDTH 6 0
BBX 5 7 1 -2
BITMAP
F0
08
08
08
08
08
F0
ENDCHAR
STARTCHAR GEORGIAN
ENCODING -1
SWIDTH 480 0
DWIDTH 6 0
BBX 5 7 1 -2
BITMAP
F0
08
30
08
08
08
F0
ENDCHAR
STARTCHAR GEORGIAN
ENCODING -1
SWIDTH 480 0
DWIDTH 6 0
BBX 5 7 1 0
BITMAP
40
A8
70
28
28
28
10
ENDCHAR
STARTCHAR GEORGIAN
ENCODING -1
SWIDTH 480 0
DWIDTH 6 0
BBX 5 5 1 0
BITMAP
50
A8
A8
A8
48
ENDCHAR
STARTCHAR GEORGIAN
ENCODING -1
SWIDTH 480 0
DWIDTH 6 0
BBX 5 5 1 0
BITMAP
70
88
88
88
88
ENDCHAR
STARTCHAR GEORGIAN
ENCODING -1
SWIDTH 480 0
DWIDTH 6 0
BBX 5 7 1 -2
BITMAP
08
08
30
08
08
08
F0
ENDCHAR
STARTCHAR GEORGIAN
ENCODING -1
SWIDTH 480 0
DWIDTH 6 0
BBX 6 7 0 -2
BITMAP
78
B4
B4
84
84
40
BC
ENDCHAR
STARTCHAR GEORGIAN
ENCODING -1
SWIDTH 480 0
DWIDTH 6 0
BBX 5 8 1 0
BITMAP
70
88
08
78
88
88
88
70
ENDCHAR
STARTCHAR GEORGIAN
ENCODING -1
SWIDTH 480 0
DWIDTH 6 0
BBX 5 8 1 0
BITMAP
F8
80
80
F0
88
88
88
70
ENDCHAR
STARTCHAR GEORGIAN
ENCODING -1
SWIDTH 480 0
DWIDTH 6 0
BBX 5 5 1 0
BITMAP
50
A8
A8
A8
88
ENDCHAR
STARTCHAR GEORGIAN
ENCODING -1
SWIDTH 480 0
DWIDTH 6 0
BBX 5 8 1 0
BITMAP
80
70
08
08
30
08
08
F0
ENDCHAR
STARTCHAR GEORGIAN
ENCODING -1
SWIDTH 480 0
DWIDTH 6 0
BBX 5 7 1 -2
BITMAP
08
38
A8
48
08
08
F0
ENDCHAR
STARTCHAR GEORGIAN
ENCODING -1
SWIDTH 480 0
DWIDTH 6 0
BBX 5 8 1 0
BITMAP
10
60
80
D0
A8
A8
A8
88
ENDCHAR
STARTCHAR GEORGIAN
ENCODING -1
SWIDTH 480 0
DWIDTH 6 0
BBX 4 8 1 0
BITMAP
80
80
80
90
A0
90
90
60
ENDCHAR
STARTCHAR GEORGIAN
ENCODING -1
SWIDTH 480 0
DWIDTH 6 0
BBX 5 7 1 -2
BITMAP
20
50
A8
A8
88
88
70
ENDCHAR
STARTCHAR GEORGIAN
ENCODING -1
SWIDTH 480 0
DWIDTH 6 0
BBX 5 7 1 -2
BITMAP
50
A8
28
28
08
08
F0
ENDCHAR
STARTCHAR GEORGIAN
ENCODING -1
SWIDTH 480 0
DWIDTH 6 0
BBX 5 7 1 -2
BITMAP
50
A8
A8
A8
48
08
F0
ENDCHAR
STARTCHAR GEORGIAN
ENCODING -1
SWIDTH 480 0
DWIDTH 6 0
BBX 5 10 1 -2
BITMAP
08
18
08
F8
08
08
08
08
08
F0
ENDCHAR
STARTCHAR GEORGIAN
ENCODING -1
SWIDTH 480 0
DWIDTH 6 0
BBX 5 7 1 -2
BITMAP
50
A8
A8
A8
88
40
B8
ENDCHAR
STARTCHAR GEORGIAN
ENCODING -1
SWIDTH 480 0
DWIDTH 6 0
BBX 5 7 1 -2
BITMAP
88
88
88
78
08
08
F0
ENDCHAR
STARTCHAR GEORGIAN
ENCODING -1
SWIDTH 480 0
DWIDTH 6 0
BBX 5 8 1 0
BITMAP
50
A8
08
78
88
88
88
70
ENDCHAR
STARTCHAR GEORGIAN
ENCODING -1
SWIDTH 480 0
DWIDTH 6 0
BBX 5 8 1 0
BITMAP
40
A0
C0
F0
88
88
88
88
ENDCHAR
STARTCHAR GEORGIAN
ENCODING -1
SWIDTH 480 0
DWIDTH 6 0
BBX 5 7 1 -2
BITMAP
A0
90
88
B0
88
88
70
ENDCHAR
STARTCHAR GEORGIAN
ENCODING -1
SWIDTH 480 0
DWIDTH 6 0
BBX 5 8 1 0
BITMAP
08
08
08
78
88
88
88
70
ENDCHAR
STARTCHAR GEORGIAN
ENCODING -1
SWIDTH 480 0
DWIDTH 6 0
BBX 5 8 1 0
BITMAP
50
A8
80
F8
88
88
50
20
ENDCHAR
STARTCHAR GEORGIAN
ENCODING -1
SWIDTH 480 0
DWIDTH 6 0
BBX 5 10 1 -2
BITMAP
10
10
10
78
90
78
10
10
10
E0
ENDCHAR
STARTCHAR GEORGIAN
ENCODING -1
SWIDTH 480 0
DWIDTH 6 0
BBX 5 8 1 0
BITMAP
80
A0
C0
F0
88
88
88
70
ENDCHAR
STARTCHAR GEORGIAN
ENCODING -1
SWIDTH 480 0
DWIDTH 6 0
BBX 5 10 1 -2
BITMAP
20
20
20
F8
20
10
08
08
08
F0
ENDCHAR
STARTCHAR GEORGIAN
ENCODING -1
SWIDTH 480 0
DWIDTH 6 0
BBX 5 8 1 0
BITMAP
80
70
08
30
08
30
08
F0
ENDCHAR
STARTCHAR GEORGIAN
ENCODING -1
SWIDTH 480 0
DWIDTH 6 0
BBX 5 10 1 -2
BITMAP
20
20
70
A8
A8
A8
A8
70
20
20
ENDCHAR
STARTCHAR GEORGIAN
ENCODING -1
SWIDTH 480 0
DWIDTH 6 0
BBX 5 7 1 -2
BITMAP
F0
08
08
70
80
80
78
ENDCHAR
STARTCHAR GEORGIAN
ENCODING -1
SWIDTH 480 0
DWIDTH 6 0
BBX 5 7 1 -2
BITMAP
88
88
88
F0
80
80
78
ENDCHAR
STARTCHAR GEORGIAN
ENCODING -1
SWIDTH 480 0
DWIDTH 6 0
BBX 5 7 1 -2
BITMAP
70
88
88
88
50
20
18
ENDCHAR
STARTCHAR GEORGIAN
ENCODING -1
SWIDTH 480 0
DWIDTH 6 0
BBX 5 7 1 -2
BITMAP
70
88
88
88
88
40
B8
ENDCHAR
STARTCHAR GEORGIAN
ENCODING -1
SWIDTH 480 0
DWIDTH 6 0
BBX 5 5 1 0
BITMAP
80
00
08
00
80
ENDCHAR
STARTCHAR MODIFIER
ENCODING -1
SWIDTH 480 0
DWIDTH 6 0
BBX 5 8 1 2
BITMAP
F8
80
80
F0
88
88
88
70
ENDCHAR
STARTCHAR GEORGIAN
ENCODING -1
SWIDTH 480 0
DWIDTH 6 0
BBX 5 8 1 0
BITMAP
78
80
80
70
08
08
08
F0
ENDCHAR
STARTCHAR GEORGIAN
ENCODING -1
SWIDTH 480 0
DWIDTH 6 0
BBX 5 5 1 0
BITMAP
D8
20
50
88
70
ENDCHAR
STARTCHAR GEORGIAN
ENCODING -1
SWIDTH 480 0
DWIDTH 6 0
BBX 5 5 1 0
BITMAP
70
88
88
88
70
ENDCHAR
STARTCHAR LATIN
ENCODING -1
SWIDTH 480 0
DWIDTH 6 0
BBX 5 9 1 0
BITMAP
20
00
F0
88
88
F0
88
88
F0
ENDCHAR
STARTCHAR LATIN
ENCODING -1
SWIDTH 480 0
DWIDTH 6 0
BBX 5 10 1 0
BITMAP
80
00
80
80
80
F0
88
88
88
F0
ENDCHAR
STARTCHAR LATIN
ENCODING -1
SWIDTH 480 0
DWIDTH 6 0
BBX 5 9 1 0
BITMAP
20
00
F0
88
88
88
88
88
F0
ENDCHAR
STARTCHAR LATIN
ENCODING -1
SWIDTH 480 0
DWIDTH 6 0
BBX 5 10 1 0
BITMAP
08
00
08
08
08
78
88
88
88
78
ENDCHAR
STARTCHAR LATIN
ENCODING -1
SWIDTH 480 0
DWIDTH 6 0
BBX 5 9 1 0
BITMAP
20
00
F8
80
80
E0
80
80
80
ENDCHAR
STARTCHAR LATIN
ENCODING -1
SWIDTH 480 0
DWIDTH 6 0
BBX 3 10 2 0
BITMAP
40
00
60
80
80
C0
80
80
80
80
ENDCHAR
STARTCHAR LATIN
ENCODING -1
SWIDTH 480 0
DWIDTH 6 0
BBX 5 9 1 -2
BITMAP
88
88
88
F8
88
88
88
00
20
ENDCHAR
STARTCHAR LATIN
ENCODING -1
SWIDTH 480 0
DWIDTH 6 0
BBX 5 10 1 -2
BITMAP
80
80
80
F0
88
88
88
88
00
20
ENDCHAR
STARTCHAR LATIN
ENCODING -1
SWIDTH 480 0
DWIDTH 6 0
BBX 5 9 1 -2
BITMAP
80
80
80
80
80
80
F8
00
20
ENDCHAR
STARTCHAR LATIN
ENCODING -1
SWIDTH 480 0
DWIDTH 6 0
BBX 3 10 2 -2
BITMAP
80
80
80
80
80
80
80
60
00
40
ENDCHAR
STARTCHAR LATIN
ENCODING -1
SWIDTH 480 0
DWIDTH 6 0
BBX 5 9 1 0
BITMAP
20
00
88
D8
A8
88
88
88
88
ENDCHAR
STARTCHAR LATIN
ENCODING -1
SWIDTH 480 0
DWIDTH 6 0
BBX 5 7 1 0
BITMAP
20
00
D0
A8
A8
A8
88
ENDCHAR
STARTCHAR LATIN
ENCODING -1
SWIDTH 480 0
DWIDTH 6 0
BBX 5 9 1 0
BITMAP
20
00
F0
88
88
88
F0
80
80
ENDCHAR
STARTCHAR LATIN
ENCODING -1
SWIDTH 480 0
DWIDTH 6 0
BBX 5 9 1 -2
BITMAP
20
00
F0
88
88
88
F0
80
80
ENDCHAR
STARTCHAR LATIN
ENCODING -1
SWIDTH 480 0
DWIDTH 6 0
BBX 5 9 1 0
BITMAP
20
00
78
80
80
70
08
08
F0
ENDCHAR
STARTCHAR LATIN
ENCODING -1
SWIDTH 480 0
DWIDTH 6 0
BBX 5 7 1 0
BITMAP
20
00
78
80
70
08
F0
ENDCHAR
STARTCHAR LATIN
ENCODING -1
SWIDTH 480 0
DWIDTH 6 0
BBX 5 9 1 0
BITMAP
20
00
F8
20
20
20
20
20
20
ENDCHAR
STARTCHAR LATIN
ENCODING -1
SWIDTH 480 0
DWIDTH 6 0
BBX 4 10 1 0
BITMAP
40
00
40
40
40
E0
40
40
40
30
ENDCHAR
STARTCHAR LATIN
ENCODING -1
SWIDTH 480 0
DWIDTH 6 0
BBX 5 10 1 0
BITMAP
40
20
00
88
88
88
88
A8
D8
88
ENDCHAR
STARTCHAR LATIN
ENCODING -1
SWIDTH 480 0
DWIDTH 6 0
BBX 5 8 1 0
BITMAP
40
20
00
88
88
A8
D8
88
ENDCHAR
STARTCHAR LATIN
ENCODING -1
SWIDTH 480 0
DWIDTH 6 0
BBX 5 10 1 0
BITMAP
10
20
00
88
88
88
88
A8
D8
88
ENDCHAR
STARTCHAR LATIN
ENCODING -1
SWIDTH 480 0
DWIDTH 6 0
BBX 5 8 1 0
BITMAP
10
20
00
88
88
A8
D8
88
ENDCHAR
STARTCHAR LATIN
ENCODING -1
SWIDTH 480 0
DWIDTH 6 0
BBX 5 9 1 0
BITMAP
50
00
88
88
88
88
A8
D8
88
ENDCHAR
STARTCHAR LATIN
ENCODING -1
SWIDTH 480 0
DWIDTH 6 0
BBX 5 7 1 0
BITMAP
50
00
88
88
A8
D8
88
ENDCHAR
STARTCHAR LATIN
ENCODING -1
SWIDTH 480 0
DWIDTH 6 0
BBX 5 9 1 0
BITMAP
20
00
88
88
50
20
50
88
88
ENDCHAR
STARTCHAR LATIN
ENCODING -1
SWIDTH 480 0
DWIDTH 6 0
BBX 5 7 1 0
BITMAP
20
00
88
50
20
50
88
ENDCHAR
STARTCHAR LATIN
ENCODING -1
SWIDTH 480 0
DWIDTH 6 0
BBX 5 9 1 -2
BITMAP
70
88
88
88
F8
88
88
00
20
ENDCHAR
STARTCHAR LATIN
ENCODING -1
SWIDTH 480 0
DWIDTH 6 0
BBX 5 7 1 -2
BITMAP
70
08
78
88
78
00
20
ENDCHAR
STARTCHAR LATIN
ENCODING -1
SWIDTH 480 0
DWIDTH 6 0
BBX 5 10 1 0
BITMAP
60
10
20
70
88
88
88
F8
88
88
ENDCHAR
STARTCHAR LATIN
ENCODING -1
SWIDTH 480 0
DWIDTH 6 0
BBX 5 9 1 0
BITMAP
60
10
20
00
70
08
78
88
78
ENDCHAR
STARTCHAR LATIN
ENCODING -1
SWIDTH 480 0
DWIDTH 6 0
BBX 6 10 0 0
BITMAP
44
A8
00
38
44
44
44
7C
44
44
ENDCHAR
STARTCHAR LATIN
ENCODING -1
SWIDTH 480 0
DWIDTH 6 0
BBX 5 10 1 0
BITMAP
08
10
40
A0
00
70
08
78
88
78
ENDCHAR
STARTCHAR LATIN
ENCODING -1
SWIDTH 480 0
DWIDTH 6 0
BBX 6 10 0 0
BITMAP
88
54
00
38
44
44
44
7C
44
44
ENDCHAR
STARTCHAR LATIN
ENCODING -1
SWIDTH 480 0
DWIDTH 6 0
BBX 5 10 1 0
BITMAP
80
40
10
28
00
70
08
78
88
78
ENDCHAR
STARTCHAR LATIN
ENCODING -1
SWIDTH 480 0
DWIDTH 6 0
BBX 6 10 0 0
BITMAP
58
A4
08
38
44
44
44
7C
44
44
ENDCHAR
STARTCHAR LATIN
ENCODING -1
SWIDTH 480 0
DWIDTH 6 0
BBX 5 10 1 0
BITMAP
30
08
50
A0
00
70
08
78
88
78
ENDCHAR
STARTCHAR LATIN
ENCODING -1
SWIDTH 480 0
DWIDTH 6 0
BBX 5 10 1 0
BITMAP
50
A0
50
70
88
88
88
F8
88
88
ENDCHAR
STARTCHAR LATIN
ENCODING -1
SWIDTH 480 0
DWIDTH 6 0
BBX 5 10 1 0
BITMAP
28
50
20
50
00
70
08
78
88
78
ENDCHAR
STARTCHAR LATIN
ENCODING -1
SWIDTH 480 0
DWIDTH 6 0
BBX 5 12 1 -2
BITMAP
20
50
00
70
88
88
88
F8
88
88
00
20
ENDCHAR
STARTCHAR LATIN
ENCODING -1
SWIDTH 480 0
DWIDTH 6 0
BBX 5 10 1 -2
BITMAP
20
50
00
70
08
78
88
78
00
20
ENDCHAR
STARTCHAR LATIN
ENCODING -1
SWIDTH 480 0
DWIDTH 6 0
BBX 5 10 1 0
BITMAP
10
20
88
70
88
88
88
F8
88
88
ENDCHAR
STARTCHAR LATIN
ENCODING -1
SWIDTH 480 0
DWIDTH 6 0
BBX 5 10 1 0
BITMAP
10
20
88
70
00
70
08
78
88
78
ENDCHAR
STARTCHAR LATIN
ENCODING -1
SWIDTH 480 0
DWIDTH 6 0
BBX 5 10 1 0
BITMAP
40
20
88
70
88
88
88
F8
88
88
ENDCHAR
STARTCHAR LATIN
ENCODING -1
SWIDTH 480 0
DWIDTH 6 0
BBX 5 10 1 0
BITMAP
40
20
88
70
00
70
08
78
88
78
ENDCHAR
STARTCHAR LATIN
ENCODING -1
SWIDTH 480 0
DWIDTH 6 0
BBX 5 10 1 0
BITMAP
60
10
A8
70
88
88
88
F8
88
88
ENDCHAR
STARTCHAR LATIN
ENCODING -1
SWIDTH 480 0
DWIDTH 6 0
BBX 5 10 1 0
BITMAP
60
10
A8
70
00
70
08
78
88
78
ENDCHAR
STARTCHAR LATIN
ENCODING -1
SWIDTH 480 0
DWIDTH 6 0
BBX 5 10 1 0
BITMAP
28
50
88
70
88
88
88
F8
88
88
ENDCHAR
STARTCHAR LATIN
ENCODING -1
SWIDTH 480 0
DWIDTH 6 0
BBX 5 10 1 0
BITMAP
28
50
88
70
00
70
08
78
88
78
ENDCHAR
STARTCHAR LATIN
ENCODING -1
SWIDTH 480 0
DWIDTH 6 0
BBX 5 12 1 -2
BITMAP
88
70
00
70
88
88
88
F8
88
88
00
20
ENDCHAR
STARTCHAR LATIN
ENCODING -1
SWIDTH 480 0
DWIDTH 6 0
BBX 5 10 1 -2
BITMAP
48
30
00
70
08
78
88
78
00
20
ENDCHAR
STARTCHAR LATIN
ENCODING -1
SWIDTH 480 0
DWIDTH 6 0
BBX 5 9 1 -2
BITMAP
F8
80
80
E0
80
80
F8
00
20
ENDCHAR
STARTCHAR LATIN
ENCODING -1
SWIDTH 480 0
DWIDTH 6 0
BBX 5 7 1 -2
BITMAP
70
88
F8
80
70
00
20
ENDCHAR
STARTCHAR LATIN
ENCODING -1
SWIDTH 480 0
DWIDTH 6 0
BBX 5 10 1 0
BITMAP
60
10
20
F8
80
80
E0
80
80
F8
ENDCHAR
STARTCHAR LATIN
ENCODING -1
SWIDTH 480 0
DWIDTH 6 0
BBX 5 9 1 0
BITMAP
60
10
20
00
70
88
F8
80
70
ENDCHAR
STARTCHAR LATIN
ENCODING -1
SWIDTH 480 0
DWIDTH 6 0
BBX 5 10 1 0
BITMAP
28
50
00
F8
80
80
E0
80
80
F8
ENDCHAR
STARTCHAR LATIN
ENCODING -1
SWIDTH 480 0
DWIDTH 6 0
BBX 5 8 1 0
BITMAP
28
50
00
70
88
F8
80
70
ENDCHAR
STARTCHAR LATIN
ENCODING -1
SWIDTH 480 0
DWIDTH 6 0
BBX 6 10 0 0
BITMAP
44
A8
00
7C
40
40
70
40
40
7C
ENDCHAR
STARTCHAR LATIN
ENCODING -1
SWIDTH 480 0
DWIDTH 6 0
BBX 5 10 1 0
BITMAP
08
10
40
A0
00
70
88
F8
80
70
ENDCHAR
STARTCHAR LATIN
ENCODING -1
SWIDTH 480 0
DWIDTH 6 0
BBX 6 10 0 0
BITMAP
88
54
00
7C
40
40
70
40
40
7C
ENDCHAR
STARTCHAR LATIN
ENCODING -1
SWIDTH 480 0
DWIDTH 6 0
BBX 5 10 1 0
BITMAP
80
40
10
28
00
70
88
F8
80
70
ENDCHAR
STARTCHAR LATIN
ENCODING -1
SWIDTH 480 0
DWIDTH 6 0
BBX 6 10 0 0
BITMAP
58
A4
08
7C
40
40
70
40
40
7C
ENDCHAR
STARTCHAR LATIN
ENCODING -1
SWIDTH 480 0
DWIDTH 6 0
BBX 5 10 1 0
BITMAP
30
08
50
A0
00
70
88
F8
80
70
ENDCHAR
STARTCHAR LATIN
ENCODING -1
SWIDTH 480 0
DWIDTH 6 0
BBX 5 10 1 0
BITMAP
50
A0
50
F8
80
80
E0
80
80
F8
ENDCHAR
STARTCHAR LATIN
ENCODING -1
SWIDTH 480 0
DWIDTH 6 0
BBX 5 10 1 0
BITMAP
28
50
20
50
00
70
88
F8
80
70
ENDCHAR
STARTCHAR LATIN
ENCODING -1
SWIDTH 480 0
DWIDTH 6 0
BBX 5 12 1 -2
BITMAP
20
50
00
F8
80
80
E0
80
80
F8
00
20
ENDCHAR
STARTCHAR LATIN
ENCODING -1
SWIDTH 480 0
DWIDTH 6 0
BBX 5 10 1 -2
BITMAP
20
50
00
70
88
F8
80
70
00
20
ENDCHAR
STARTCHAR LATIN
ENCODING -1
SWIDTH 480 0
DWIDTH 6 0
BBX 3 10 2 0
BITMAP
C0
20
40
E0
40
40
40
40
40
E0
ENDCHAR
STARTCHAR LATIN
ENCODING -1
SWIDTH 480 0
DWIDTH 6 0
BBX 3 9 2 0
BITMAP
C0
20
40
00
C0
40
40
40
40
ENDCHAR
STARTCHAR LATIN
ENCODING -1
SWIDTH 480 0
DWIDTH 6 0
BBX 3 9 2 -2
BITMAP
E0
40
40
40
40
40
E0
00
40
ENDCHAR
STARTCHAR LATIN
ENCODING -1
SWIDTH 480 0
DWIDTH 6 0
BBX 2 9 2 -2
BITMAP
40
00
C0
40
40
40
40
00
40
ENDCHAR
STARTCHAR LATIN
ENCODING -1
SWIDTH 480 0
DWIDTH 6 0
BBX 5 9 1 -2
BITMAP
70
88
88
88
88
88
70
00
20
ENDCHAR
STARTCHAR LATIN
ENCODING -1
SWIDTH 480 0
DWIDTH 6 0
BBX 5 7 1 -2
BITMAP
70
88
88
88
70
00
20
ENDCHAR
STARTCHAR LATIN
ENCODING -1
SWIDTH 480 0
DWIDTH 6 0
BBX 5 10 1 0
BITMAP
60
10
20
70
88
88
88
88
88
70
ENDCHAR
STARTCHAR LATIN
ENCODING -1
SWIDTH 480 0
DWIDTH 6 0
BBX 5 9 1 0
BITMAP
60
10
20
00
70
88
88
88
70
ENDCHAR
STARTCHAR LATIN
ENCODING -1
SWIDTH 480 0
DWIDTH 6 0
BBX 6 10 0 0
BITMAP
44
A8
00
38
44
44
44
44
44
38
ENDCHAR
STARTCHAR LATIN
ENCODING -1
SWIDTH 480 0
DWIDTH 6 0
BBX 5 10 1 0
BITMAP
08
10
40
A0
00
70
88
88
88
70
ENDCHAR
STARTCHAR LATIN
ENCODING -1
SWIDTH 480 0
DWIDTH 6 0
BBX 6 10 0 0
BITMAP
88
54
00
38
44
44
44
44
44
38
ENDCHAR
STARTCHAR LATIN
ENCODING -1
SWIDTH 480 0
DWIDTH 6 0
BBX 5 10 1 0
BITMAP
80
40
10
28
00
70
88
88
88
70
ENDCHAR
STARTCHAR LATIN
ENCODING -1
SWIDTH 480 0
DWIDTH 6 0
BBX 6 10 0 0
BITMAP
58
A4
08
38
44
44
44
44
44
38
ENDCHAR
STARTCHAR LATIN
ENCODING -1
SWIDTH 480 0
DWIDTH 6 0
BBX 5 10 1 0
BITMAP
30
08
50
A0
00
70
88
88
88
70
ENDCHAR
STARTCHAR LATIN
ENCODING -1
SWIDTH 480 0
DWIDTH 6 0
BBX 5 10 1 0
BITMAP
50
A0
50
70
88
88
88
88
88
70
ENDCHAR
STARTCHAR LATIN
ENCODING -1
SWIDTH 480 0
DWIDTH 6 0
BBX 5 10 1 0
BITMAP
28
50
20
50
00
70
88
88
88
70
ENDCHAR
STARTCHAR LATIN
ENCODING -1
SWIDTH 480 0
DWIDTH 6 0
BBX 5 12 1 -2
BITMAP
20
50
00
70
88
88
88
88
88
70
00
20
ENDCHAR
STARTCHAR LATIN
ENCODING -1
SWIDTH 480 0
DWIDTH 6 0
BBX 5 10 1 -2
BITMAP
20
50
00
70
88
88
88
70
00
20
ENDCHAR
STARTCHAR LATIN
ENCODING -1
SWIDTH 480 0
DWIDTH 6 0
BBX 5 10 1 0
BITMAP
20
40
08
68
98
90
90
90
90
60
ENDCHAR
STARTCHAR LATIN
ENCODING -1
SWIDTH 480 0
DWIDTH 6 0
BBX 5 8 1 0
BITMAP
20
40
08
68
98
90
90
60
ENDCHAR
STARTCHAR LATIN
ENCODING -1
SWIDTH 480 0
DWIDTH 6 0
BBX 5 10 1 0
BITMAP
40
20
08
68
98
90
90
90
90
60
ENDCHAR
STARTCHAR LATIN
ENCODING -1
SWIDTH 480 0
DWIDTH 6 0
BBX 5 8 1 0
BITMAP
40
20
08
68
98
90
90
60
ENDCHAR
STARTCHAR LATIN
ENCODING -1
SWIDTH 480 0
DWIDTH 6 0
BBX 5 10 1 0
BITMAP
C0
20
48
68
98
90
90
90
90
60
ENDCHAR
STARTCHAR LATIN
ENCODING -1
SWIDTH 480 0
DWIDTH 6 0
BBX 5 9 1 0
BITMAP
C0
20
40
08
68
98
90
90
60
ENDCHAR
STARTCHAR LATIN
ENCODING -1
SWIDTH 480 0
DWIDTH 6 0
BBX 5 10 1 0
BITMAP
50
A0
08
68
98
90
90
90
90
60
ENDCHAR
STARTCHAR LATIN
ENCODING -1
SWIDTH 480 0
DWIDTH 6 0
BBX 5 8 1 0
BITMAP
50
A0
08
68
98
90
90
60
ENDCHAR
STARTCHAR LATIN
ENCODING -1
SWIDTH 480 0
DWIDTH 6 0
BBX 5 10 1 -2
BITMAP
08
68
98
90
90
90
90
60
00
20
ENDCHAR
STARTCHAR LATIN
ENCODING -1
SWIDTH 480 0
DWIDTH 6 0
BBX 5 8 1 -2
BITMAP
08
68
98
90
90
60
00
20
ENDCHAR
STARTCHAR LATIN
ENCODING -1
SWIDTH 480 0
DWIDTH 6 0
BBX 5 9 1 -2
BITMAP
88
88
88
88
88
88
70
00
20
ENDCHAR
STARTCHAR LATIN
ENCODING -1
SWIDTH 480 0
DWIDTH 6 0
BBX 5 7 1 -2
BITMAP
88
88
88
88
78
00
20
ENDCHAR
STARTCHAR LATIN
ENCODING -1
SWIDTH 480 0
DWIDTH 6 0
BBX 5 10 1 0
BITMAP
60
10
20
88
88
88
88
88
88
70
ENDCHAR
STARTCHAR LATIN
ENCODING -1
SWIDTH 480 0
DWIDTH 6 0
BBX 5 9 1 0
BITMAP
60
10
20
00
88
88
88
88
78
ENDCHAR
STARTCHAR LATIN
ENCODING -1
SWIDTH 480 0
DWIDTH 6 0
BBX 5 10 1 0
BITMAP
20
40
08
98
98
90
90
90
90
60
ENDCHAR
STARTCHAR LATIN
ENCODING -1
SWIDTH 480 0
DWIDTH 6 0
BBX 5 8 1 0
BITMAP
20
40
08
98
98
90
90
70
ENDCHAR
STARTCHAR LATIN
ENCODING -1
SWIDTH 480 0
DWIDTH 6 0
BBX 5 10 1 0
BITMAP
40
20
08
98
98
90
90
90
90
60
ENDCHAR
STARTCHAR LATIN
ENCODING -1
SWIDTH 480 0
DWIDTH 6 0
BBX 5 8 1 0
BITMAP
40
20
08
98
98
90
90
70
ENDCHAR
STARTCHAR LATIN
ENCODING -1
SWIDTH 480 0
DWIDTH 6 0
BBX 5 10 1 0
BITMAP
C0
20
48
98
98
90
90
90
90
60
ENDCHAR
STARTCHAR LATIN
ENCODING -1
SWIDTH 480 0
DWIDTH 6 0
BBX 5 9 1 0
BITMAP
C0
20
40
08
98
98
90
90
70
ENDCHAR
STARTCHAR LATIN
ENCODING -1
SWIDTH 480 0
DWIDTH 6 0
BBX 5 10 1 0
BITMAP
50
A0
08
98
98
90
90
90
90
60
ENDCHAR
STARTCHAR LATIN
ENCODING -1
SWIDTH 480 0
DWIDTH 6 0
BBX 5 8 1 0
BITMAP
50
A0
08
98
98
90
90
70
ENDCHAR
STARTCHAR LATIN
ENCODING -1
SWIDTH 480 0
DWIDTH 6 0
BBX 5 10 1 -2
BITMAP
08
98
98
90
90
90
90
60
00
20
ENDCHAR
STARTCHAR LATIN
ENCODING -1
SWIDTH 480 0
DWIDTH 6 0
BBX 5 8 1 -2
BITMAP
08
98
98
90
90
70
00
20
ENDCHAR
STARTCHAR LATIN
ENCODING -1
SWIDTH 480 0
DWIDTH 6 0
BBX 5 10 1 0
BITMAP
40
20
00
88
88
50
20
20
20
20
ENDCHAR
STARTCHAR LATIN
ENCODING -1
SWIDTH 480 0
DWIDTH 6 0
BBX 5 10 1 -2
BITMAP
40
20
00
88
88
88
88
78
08
30
ENDCHAR
STARTCHAR LATIN
ENCODING -1
SWIDTH 480 0
DWIDTH 6 0
BBX 5 9 1 -2
BITMAP
88
88
50
20
20
20
20
00
20
ENDCHAR
STARTCHAR LATIN
ENCODING -1
SWIDTH 480 0
DWIDTH 6 0
BBX 5 7 1 -2
BITMAP
88
88
88
88
78
10
68
ENDCHAR
STARTCHAR LATIN
ENCODING -1
SWIDTH 480 0
DWIDTH 6 0
BBX 5 10 1 0
BITMAP
60
10
20
88
88
50
20
20
20
20
ENDCHAR
STARTCHAR LATIN
ENCODING -1
SWIDTH 480 0
DWIDTH 6 0
BBX 5 11 1 -2
BITMAP
60
10
20
00
88
88
88
88
78
08
70
ENDCHAR
STARTCHAR LATIN
ENCODING -1
SWIDTH 480 0
DWIDTH 6 0
BBX 5 10 1 0
BITMAP
28
50
00
88
88
50
20
20
20
20
ENDCHAR
STARTCHAR LATIN
ENCODING -1
SWIDTH 480 0
DWIDTH 6 0
BBX 5 10 1 -2
BITMAP
28
50
00
88
88
88
88
78
08
70
ENDCHAR
STARTCHAR HYPHEN
ENCODING -1
SWIDTH 480 0
DWIDTH 6 0
BBX 3 1 2 3
BITMAP
E0
ENDCHAR
STARTCHAR NON-BREAKING
ENCODING -1
SWIDTH 480 0
DWIDTH 6 0
BBX 3 1 2 3
BITMAP
E0
ENDCHAR
STARTCHAR FIGURE
ENCODING -1
SWIDTH 480 0
DWIDTH 6 0
BBX 5 1 1 3
BITMAP
F8
ENDCHAR
STARTCHAR EN
ENCODING -1
SWIDTH 480 0
DWIDTH 6 0
BBX 4 1 1 3
BITMAP
F0
ENDCHAR
STARTCHAR EM
ENCODING -1
SWIDTH 480 0
DWIDTH 6 0
BBX 6 1 0 3
BITMAP
FC
ENDCHAR
STARTCHAR HORIZONTAL
ENCODING -1
SWIDTH 480 0
DWIDTH 6 0
BBX 6 1 0 3
BITMAP
FC
ENDCHAR
STARTCHAR DOUBLE
ENCODING -1
SWIDTH 480 0
DWIDTH 6 0
BBX 3 11 2 -2
BITMAP
A0
A0
A0
A0
A0
A0
A0
A0
A0
A0
A0
ENDCHAR
STARTCHAR DOUBLE
ENCODING -1
SWIDTH 480 0
DWIDTH 6 0
BBX 5 3 1 -2
BITMAP
F8
00
F8
ENDCHAR
STARTCHAR LEFT
ENCODING -1
SWIDTH 480 0
DWIDTH 6 0
BBX 2 3 3 6
BITMAP
40
80
80
ENDCHAR
STARTCHAR RIGHT
ENCODING -1
SWIDTH 480 0
DWIDTH 6 0
BBX 2 3 2 6
BITMAP
40
40
80
ENDCHAR
STARTCHAR SINGLE
ENCODING -1
SWIDTH 480 0
DWIDTH 6 0
BBX 2 3 2 -2
BITMAP
40
40
80
ENDCHAR
STARTCHAR SINGLE
ENCODING -1
SWIDTH 480 0
DWIDTH 6 0
BBX 2 3 3 6
BITMAP
80
80
40
ENDCHAR
STARTCHAR LEFT
ENCODING -1
SWIDTH 480 0
DWIDTH 6 0
BBX 4 3 2 6
BITMAP
50
A0
A0
ENDCHAR
STARTCHAR RIGHT
ENCODING -1
SWIDTH 480 0
DWIDTH 6 0
BBX 4 3 1 6
BITMAP
50
50
A0
ENDCHAR
STARTCHAR DOUBLE
ENCODING -1
SWIDTH 480 0
DWIDTH 6 0
BBX 4 3 1 -2
BITMAP
50
50
A0
ENDCHAR
STARTCHAR DOUBLE
ENCODING -1
SWIDTH 480 0
DWIDTH 6 0
BBX 4 3 2 6
BITMAP
A0
A0
50
ENDCHAR
STARTCHAR DAGGER
ENCODING -1
SWIDTH 480 0
DWIDTH 6 0
BBX 5 8 1 0
BITMAP
20
20
F8
20
20
20
20
20
ENDCHAR
STARTCHAR DOUBLE
ENCODING -1
SWIDTH 480 0
DWIDTH 6 0
BBX 5 8 1 0
BITMAP
20
20
F8
20
20
F8
20
20
ENDCHAR
STARTCHAR BULLET
ENCODING -1
SWIDTH 480 0
DWIDTH 6 0
BBX 4 4 1 2
BITMAP
60
F0
F0
60
ENDCHAR
STARTCHAR TRIANGULAR
ENCODING -1
SWIDTH 480 0
DWIDTH 6 0
BBX 3 3 2 2
BITMAP
C0
E0
C0
ENDCHAR
STARTCHAR ONE
ENCODING -1
SWIDTH 480 0
DWIDTH 6 0
BBX 1 1 3 0
BITMAP
80
ENDCHAR
STARTCHAR TWO
ENCODING -1
SWIDTH 480 0
DWIDTH 6 0
BBX 4 1 2 0
BITMAP
90
ENDCHAR
STARTCHAR HORIZONTAL
ENCODING -1
SWIDTH 480 0
DWIDTH 6 0
BBX 5 1 1 0
BITMAP
A8
ENDCHAR
STARTCHAR HYPHENATION
ENCODING -1
SWIDTH 480 0
DWIDTH 6 0
BBX 1 1 3 3
BITMAP
80
ENDCHAR
STARTCHAR PER
ENCODING -1
SWIDTH 480 0
DWIDTH 6 0
BBX 6 7 0 0
BITMAP
40
A8
50
20
68
D4
28
ENDCHAR
STARTCHAR PER
ENCODING -1
SWIDTH 480 0
DWIDTH 6 0
BBX 6 7 0 0
BITMAP
C8
D0
20
40
D4
7C
54
ENDCHAR
STARTCHAR PRIME
ENCODING -1
SWIDTH 480 0
DWIDTH 6 0
BBX 3 3 1 5
BITMAP
20
40
80
ENDCHAR
STARTCHAR DOUBLE
ENCODING -1
SWIDTH 480 0
DWIDTH 6 0
BBX 5 3 1 5
BITMAP
28
50
A0
ENDCHAR
STARTCHAR TRIPLE
ENCODING -1
SWIDTH 480 0
DWIDTH 6 0
BBX 6 3 0 5
BITMAP
54
A8
50
ENDCHAR
STARTCHAR REVERSED
ENCODING -1
SWIDTH 480 0
DWIDTH 6 0
BBX 3 3 3 5
BITMAP
80
40
20
ENDCHAR
STARTCHAR REVERSED
ENCODING -1
SWIDTH 480 0
DWIDTH 6 0
BBX 5 3 1 5
BITMAP
A0
50
28
ENDCHAR
STARTCHAR REVERSED
ENCODING -1
SWIDTH 480 0
DWIDTH 6 0
BBX 6 3 0 5
BITMAP
A8
54
28
ENDCHAR
STARTCHAR CARET
ENCODING -1
SWIDTH 480 0
DWIDTH 6 0
BBX 5 3 1 -2
BITMAP
20
50
88
ENDCHAR
STARTCHAR SINGLE
ENCODING -1
SWIDTH 480 0
DWIDTH 6 0
BBX 3 5 2 0
BITMAP
20
40
80
40
20
ENDCHAR
STARTCHAR SINGLE
ENCODING -1
SWIDTH 480 0
DWIDTH 6 0
BBX 3 5 2 0
BITMAP
80
40
20
40
80
ENDCHAR
STARTCHAR DOUBLE
ENCODING -1
SWIDTH 480 0
DWIDTH 6 0
BBX 3 7 2 0
BITMAP
A0
A0
A0
A0
A0
00
A0
ENDCHAR
STARTCHAR INTERROBANG
ENCODING -1
SWIDTH 480 0
DWIDTH 6 0
BBX 5 7 1 0
BITMAP
F0
28
28
30
20
00
20
ENDCHAR
STARTCHAR OVERLINE
ENCODING -1
SWIDTH 480 0
DWIDTH 6 0
BBX 5 1 1 8
BITMAP
F8
ENDCHAR
STARTCHAR UNDERTIE
ENCODING -1
SWIDTH 480 0
DWIDTH 6 0
BBX 5 2 1 -2
BITMAP
88
70
ENDCHAR
STARTCHAR CHARACTER
ENCODING -1
SWIDTH 480 0
DWIDTH 6 0
BBX 5 2 1 8
BITMAP
70
88
ENDCHAR
STARTCHAR CARET
ENCODING -1
SWIDTH 480 0
DWIDTH 6 0
BBX 5 5 1 -2
BITMAP
08
10
20
50
88
ENDCHAR
STARTCHAR ASTERISM
ENCODING -1
SWIDTH 480 0
DWIDTH 6 0
BBX 5 7 1 0
BITMAP
50
20
50
00
A8
50
A8
ENDCHAR
STARTCHAR HYPHEN
ENCODING -1
SWIDTH 480 0
DWIDTH 6 0
BBX 3 2 2 2
BITMAP
E0
E0
ENDCHAR
STARTCHAR FRACTION
ENCODING -1
SWIDTH 480 0
DWIDTH 6 0
BBX 5 5 1 0
BITMAP
08
10
20
40
80
ENDCHAR
STARTCHAR LEFT
ENCODING -1
SWIDTH 480 0
DWIDTH 6 0
BBX 2 11 3 -2
BITMAP
C0
80
80
80
80
C0
80
80
80
80
C0
ENDCHAR
STARTCHAR RIGHT
ENCODING -1
SWIDTH 480 0
DWIDTH 6 0
BBX 2 11 2 -2
BITMAP
C0
40
40
40
40
C0
40
40
40
40
C0
ENDCHAR
STARTCHAR DOUBLE
ENCODING -1
SWIDTH 480 0
DWIDTH 6 0
BBX 5 7 1 0
BITMAP
F0
28
28
50
50
00
50
ENDCHAR
STARTCHAR QUESTION
ENCODING -1
SWIDTH 480 0
DWIDTH 6 0
BBX 5 7 1 0
BITMAP
E8
18
18
28
48
00
48
ENDCHAR
STARTCHAR EXCLAMATION
ENCODING -1
SWIDTH 480 0
DWIDTH 6 0
BBX 5 7 1 0
BITMAP
F0
88
88
90
A0
00
A0
ENDCHAR
STARTCHAR TIRONIAN
ENCODING -1
SWIDTH 480 0
DWIDTH 6 0
BBX 5 5 1 -2
BITMAP
F8
08
10
20
40
ENDCHAR
STARTCHAR REVERSED
ENCODING -1
SWIDTH 480 0
DWIDTH 6 0
BBX 5 8 1 0
BITMAP
F0
B8
B8
B8
B0
A0
A0
A0
ENDCHAR
STARTCHAR BLACK
ENCODING -1
SWIDTH 480 0
DWIDTH 6 0
BBX 5 3 1 2
BITMAP
68
E8
68
ENDCHAR
STARTCHAR BLACK
ENCODING -1
SWIDTH 480 0
DWIDTH 6 0
BBX 5 3 1 2
BITMAP
B0
B8
B0
ENDCHAR
STARTCHAR LOW
ENCODING -1
SWIDTH 480 0
DWIDTH 6 0
BBX 5 5 1 -2
BITMAP
50
20
F8
20
50
ENDCHAR
STARTCHAR REVERSED
ENCODING -1
SWIDTH 480 0
DWIDTH 6 0
BBX 2 6 3 -1
BITMAP
80
00
00
00
80
40
ENDCHAR
STARTCHAR CLOSE
ENCODING -1
SWIDTH 480 0
DWIDTH 6 0
BBX 5 12 1 -2
BITMAP
70
88
00
00
00
00
00
00
00
00
88
70
ENDCHAR
STARTCHAR TWO
ENCODING -1
SWIDTH 480 0
DWIDTH 6 0
BBX 5 11 1 -2
BITMAP
50
20
F8
20
50
00
50
20
F8
20
50
ENDCHAR
STARTCHAR COMMERCIAL
ENCODING -1
SWIDTH 480 0
DWIDTH 6 0
BBX 5 7 1 0
BITMAP
C0
C8
10
20
40
98
18
ENDCHAR
STARTCHAR SWUNG
ENCODING -1
SWIDTH 480 0
DWIDTH 6 0
BBX 6 2 0 3
BITMAP
64
98
ENDCHAR
STARTCHAR INVERTED
ENCODING -1
SWIDTH 480 0
DWIDTH 6 0
BBX 5 2 1 -2
BITMAP
70
88
ENDCHAR
STARTCHAR FLOWER
ENCODING -1
SWIDTH 480 0
DWIDTH 6 0
BBX 5 7 1 0
BITMAP
20
A8
70
F8
70
A8
20
ENDCHAR
STARTCHAR THREE
ENCODING -1
SWIDTH 480 0
DWIDTH 6 0
BBX 5 5 1 0
BITMAP
08
00
80
00
08
ENDCHAR
STARTCHAR QUADRUPLE
ENCODING -1
SWIDTH 480 0
DWIDTH 6 0
BBX 6 3 0 5
BITMAP
3C
78
F0
ENDCHAR
STARTCHAR FOUR
ENCODING -1
SWIDTH 480 0
DWIDTH 6 0
BBX 5 5 1 0
BITMAP
20
00
88
00
20
ENDCHAR
STARTCHAR FIVE
ENCODING -1
SWIDTH 480 0
DWIDTH 6 0
BBX 5 5 1 0
BITMAP
88
00
20
00
88
ENDCHAR
STARTCHAR TWO
ENCODING -1
SWIDTH 480 0
DWIDTH 6 0
BBX 1 5 3 0
BITMAP
80
00
00
00
80
ENDCHAR
STARTCHAR FOUR
ENCODING -1
SWIDTH 480 0
DWIDTH 6 0
BBX 5 7 1 -1
BITMAP
20
00
00
88
00
00
20
ENDCHAR
STARTCHAR DOTTED
ENCODING -1
SWIDTH 480 0
DWIDTH 6 0
BBX 5 5 1 0
BITMAP
A8
20
F8
20
A8
ENDCHAR
STARTCHAR TRICOLON
ENCODING -1
SWIDTH 480 0
DWIDTH 6 0
BBX 1 5 3 0
BITMAP
80
00
80
00
80
ENDCHAR
STARTCHAR VERTICAL
ENCODING -1
SWIDTH 480 0
DWIDTH 6 0
BBX 1 7 3 0
BITMAP
80
00
80
00
80
00
80
ENDCHAR
STARTCHAR FUNCTION
ENCODING -1
SWIDTH 480 0
DWIDTH 6 0
BBX 6 9 0 -1
BITMAP
40
80
98
E4
A4
A4
A4
A4
18
ENDCHAR
STARTCHAR INVISIBLE
ENCODING -1
SWIDTH 480 0
DWIDTH 6 0
BBX 5 5 1 1
BITMAP
88
50
20
50
88
ENDCHAR
STARTCHAR INVISIBLE
ENCODING -1
SWIDTH 480 0
DWIDTH 6 0
BBX 2 2 2 -2
BITMAP
40
80
ENDCHAR
STARTCHAR INVISIBLE
ENCODING -1
SWIDTH 480 0
DWIDTH 6 0
BBX 5 5 1 1
BITMAP
20
20
F8
20
20
ENDCHAR
STARTCHAR SUPERSCRIPT
ENCODING -1
SWIDTH 480 0
DWIDTH 6 0
BBX 5 7 1 3
BITMAP
70
88
98
A8
C8
88
70
ENDCHAR
STARTCHAR SUPERSCRIPT
ENCODING -1
SWIDTH 480 0
DWIDTH 6 0
BBX 2 7 2 3
BITMAP
40
00
C0
40
40
40
40
ENDCHAR
STARTCHAR SUPERSCRIPT
ENCODING -1
SWIDTH 480 0
DWIDTH 6 0
BBX 5 7 1 3
BITMAP
08
18
28
48
F8
08
08
ENDCHAR
STARTCHAR SUPERSCRIPT
ENCODING -1
SWIDTH 480 0
DWIDTH 6 0
BBX 5 7 1 3
BITMAP
F8
80
F0
08
08
08
F0
ENDCHAR
STARTCHAR SUPERSCRIPT
ENCODING -1
SWIDTH 480 0
DWIDTH 6 0
BBX 5 7 1 3
BITMAP
70
80
F0
88
88
88
70
ENDCHAR
STARTCHAR SUPERSCRIPT
ENCODING -1
SWIDTH 480 0
DWIDTH 6 0
BBX 5 7 1 3
BITMAP
F8
08
08
10
20
20
20
ENDCHAR
STARTCHAR SUPERSCRIPT
ENCODING -1
SWIDTH 480 0
DWIDTH 6 0
BBX 5 7 1 3
BITMAP
70
88
88
70
88
88
70
ENDCHAR
STARTCHAR SUPERSCRIPT
ENCODING -1
SWIDTH 480 0
DWIDTH 6 0
BBX 5 7 1 3
BITMAP
70
88
88
88
78
08
70
ENDCHAR
STARTCHAR SUPERSCRIPT
ENCODING -1
SWIDTH 480 0
DWIDTH 6 0
BBX 5 5 1 4
BITMAP
20
20
F8
20
20
ENDCHAR
STARTCHAR SUPERSCRIPT
ENCODING -1
SWIDTH 480 0
DWIDTH 6 0
BBX 5 1 1 6
BITMAP
F8
ENDCHAR
STARTCHAR SUPERSCRIPT
ENCODING -1
SWIDTH 480 0
DWIDTH 6 0
BBX 5 3 1 5
BITMAP
F8
00
F8
ENDCHAR
STARTCHAR SUPERSCRIPT
ENCODING -1
SWIDTH 480 0
DWIDTH 6 0
BBX 2 7 3 3
BITMAP
40
80
80
80
80
80
40
ENDCHAR
STARTCHAR SUPERSCRIPT
ENCODING -1
SWIDTH 480 0
DWIDTH 6 0
BBX 2 7 2 3
BITMAP
80
40
40
40
40
40
80
ENDCHAR
STARTCHAR SUBSCRIPT
ENCODING -1
SWIDTH 480 0
DWIDTH 6 0
BBX 5 7 1 -2
BITMAP
70
88
98
A8
C8
88
70
ENDCHAR
STARTCHAR SUBSCRIPT
ENCODING -1
SWIDTH 480 0
DWIDTH 6 0
BBX 3 7 2 -2
BITMAP
20
60
A0
20
20
20
20
ENDCHAR
STARTCHAR SUBSCRIPT
ENCODING -1
SWIDTH 480 0
DWIDTH 6 0
BBX 5 7 1 -2
BITMAP
F0
08
08
10
20
40
F8
ENDCHAR
STARTCHAR SUBSCRIPT
ENCODING -1
SWIDTH 480 0
DWIDTH 6 0
BBX 5 7 1 -2
BITMAP
F0
08
08
30
08
08
F0
ENDCHAR
STARTCHAR SUBSCRIPT
ENCODING -1
SWIDTH 480 0
DWIDTH 6 0
BBX 5 7 1 -2
BITMAP
08
18
28
48
F8
08
08
ENDCHAR
STARTCHAR SUBSCRIPT
ENCODING -1
SWIDTH 480 0
DWIDTH 6 0
BBX 5 7 1 -2
BITMAP
F8
80
F0
08
08
08
F0
ENDCHAR
STARTCHAR SUBSCRIPT
ENCODING -1
SWIDTH 480 0
DWIDTH 6 0
BBX 5 7 1 -2
BITMAP
70
80
F0
88
88
88
70
ENDCHAR
STARTCHAR SUBSCRIPT
ENCODING -1
SWIDTH 480 0
DWIDTH 6 0
BBX 5 7 1 -2
BITMAP
F8
08
08
10
20
20
20
ENDCHAR
STARTCHAR SUBSCRIPT
ENCODING -1
SWIDTH 480 0
DWIDTH 6 0
BBX 5 7 1 -2
BITMAP
70
88
88
70
88
88
70
ENDCHAR
STARTCHAR SUBSCRIPT
ENCODING -1
SWIDTH 480 0
DWIDTH 6 0
BBX 5 7 1 -2
BITMAP
70
88
88
88
78
08
70
ENDCHAR
STARTCHAR SUBSCRIPT
ENCODING -1
SWIDTH 480 0
DWIDTH 6 0
BBX 5 5 1 -1
BITMAP
20
20
F8
20
20
ENDCHAR
STARTCHAR SUBSCRIPT
ENCODING -1
SWIDTH 480 0
DWIDTH 6 0
BBX 5 1 1 1
BITMAP
F8
ENDCHAR
STARTCHAR SUBSCRIPT
ENCODING -1
SWIDTH 480 0
DWIDTH 6 0
BBX 5 3 1 0
BITMAP
F8
00
F8
ENDCHAR
STARTCHAR SUBSCRIPT
ENCODING -1
SWIDTH 480 0
DWIDTH 6 0
BBX 2 7 3 -2
BITMAP
40
80
80
80
80
80
40
ENDCHAR
STARTCHAR SUBSCRIPT
ENCODING -1
SWIDTH 480 0
DWIDTH 6 0
BBX 2 7 2 -2
BITMAP
80
40
40
40
40
40
80
ENDCHAR
STARTCHAR LATIN
ENCODING -1
SWIDTH 480 0
DWIDTH 6 0
BBX 5 5 1 -2
BITMAP
70
08
78
88
78
ENDCHAR
STARTCHAR LATIN
ENCODING -1
SWIDTH 480 0
DWIDTH 6 0
BBX 5 5 1 -2
BITMAP
70
88
F8
80
70
ENDCHAR
STARTCHAR LATIN
ENCODING -1
SWIDTH 480 0
DWIDTH 6 0
BBX 5 5 1 -2
BITMAP
70
88
88
88
70
ENDCHAR
STARTCHAR LATIN
ENCODING -1
SWIDTH 480 0
DWIDTH 6 0
BBX 5 5 1 -2
BITMAP
88
50
20
50
88
ENDCHAR
STARTCHAR LATIN
ENCODING -1
SWIDTH 480 0
DWIDTH 6 0
BBX 5 5 1 -2
BITMAP
70
08
F8
88
70
ENDCHAR
STARTCHAR LATIN
ENCODING -1
SWIDTH 480 0
DWIDTH 6 0
BBX 5 7 1 -2
BITMAP
80
80
F0
88
88
88
88
ENDCHAR
STARTCHAR LATIN
ENCODING -1
SWIDTH 480 0
DWIDTH 6 0
BBX 4 7 2 -2
BITMAP
80
80
90
A0
C0
A0
90
ENDCHAR
STARTCHAR LATIN
ENCODING -1
SWIDTH 480 0
DWIDTH 6 0
BBX 3 7 2 -2
BITMAP
80
80
80
80
80
80
60
ENDCHAR
STARTCHAR LATIN
ENCODING -1
SWIDTH 480 0
DWIDTH 6 0
BBX 5 5 1 -2
BITMAP
D0
A8
A8
A8
88
ENDCHAR
STARTCHAR LATIN
ENCODING -1
SWIDTH 480 0
DWIDTH 6 0
BBX 5 5 1 -2
BITMAP
F0
88
88
88
88
ENDCHAR
STARTCHAR LATIN
ENCODING -1
SWIDTH 480 0
DWIDTH 6 0
BBX 5 5 1 -2
BITMAP
F0
88
88
F0
80
ENDCHAR
STARTCHAR LATIN
ENCODING -1
SWIDTH 480 0
DWIDTH 6 0
BBX 5 5 1 -2
BITMAP
78
80
70
08
F0
ENDCHAR
STARTCHAR LATIN
ENCODING -1
SWIDTH 480 0
DWIDTH 6 0
BBX 4 7 1 -2
BITMAP
40
40
E0
40
40
40
30
ENDCHAR
STARTCHAR COLON
ENCODING -1
SWIDTH 480 0
DWIDTH 6 0
BBX 5 9 1 -1
BITMAP
28
78
A8
A8
B0
D0
D0
78
50
ENDCHAR
STARTCHAR MILL
ENCODING -1
SWIDTH 480 0
DWIDTH 6 0
BBX 5 9 1 -2
BITMAP
10
10
D0
A8
A8
A8
A8
40
40
ENDCHAR
STARTCHAR NAIRA
ENCODING -1
SWIDTH 480 0
DWIDTH 6 0
BBX 5 7 1 0
BITMAP
88
C8
F8
A8
F8
98
88
ENDCHAR
STARTCHAR RUPEE
ENCODING -1
SWIDTH 480 0
DWIDTH 6 0
BBX 5 7 1 0
BITMAP
F8
10
F8
20
40
20
10
ENDCHAR
STARTCHAR WON
ENCODING -1
SWIDTH 480 0
DWIDTH 6 0
BBX 5 7 1 0
BITMAP
88
88
F8
88
A8
D8
88
ENDCHAR
STARTCHAR NEW
ENCODING -1
SWIDTH 480 0
DWIDTH 6 0
BBX 5 5 1 0
BITMAP
C8
A8
A8
A8
98
ENDCHAR
STARTCHAR DONG
ENCODING -1
SWIDTH 480 0
DWIDTH 6 0
BBX 5 10 1 -2
BITMAP
08
78
08
78
88
88
88
78
00
78
ENDCHAR
STARTCHAR EURO
ENCODING -1
SWIDTH 480 0
DWIDTH 6 0
BBX 5 7 1 0
BITMAP
38
40
F0
40
F0
40
38
ENDCHAR
STARTCHAR KIP
ENCODING -1
SWIDTH 480 0
DWIDTH 6 0
BBX 5 7 1 0
BITMAP
88
90
A0
F0
A0
90
88
ENDCHAR
STARTCHAR TUGRIK
ENCODING -1
SWIDTH 480 0
DWIDTH 6 0
BBX 5 7 1 0
BITMAP
F8
20
30
60
30
60
20
ENDCHAR
STARTCHAR DRACHMA
ENCODING -1
SWIDTH 480 0
DWIDTH 6 0
BBX 5 9 1 -2
BITMAP
C0
A0
B0
A8
A8
A8
F0
20
20
ENDCHAR
STARTCHAR PESO
ENCODING -1
SWIDTH 480 0
DWIDTH 6 0
BBX 5 7 1 0
BITMAP
F0
88
F8
88
F0
80
80
ENDCHAR
STARTCHAR GUARANI
ENCODING -1
SWIDTH 480 0
DWIDTH 6 0
BBX 5 9 1 -1
BITMAP
20
78
A0
A0
B8
A8
A8
78
20
ENDCHAR
STARTCHAR HRYVNIA
ENCODING -1
SWIDTH 480 0
DWIDTH 6 0
BBX 5 7 1 0
BITMAP
F0
08
F8
70
F8
80
78
ENDCHAR
STARTCHAR CEDI
ENCODING -1
SWIDTH 480 0
DWIDTH 6 0
BBX 5 9 1 -1
BITMAP
20
78
A0
A0
A0
A0
A0
78
20
ENDCHAR
STARTCHAR TENGE
ENCODING -1
SWIDTH 480 0
DWIDTH 6 0
BBX 5 7 1 0
BITMAP
F8
00
F8
20
20
20
20
ENDCHAR
STARTCHAR INDIAN
ENCODING -1
SWIDTH 480 0
DWIDTH 6 0
BBX 5 7 1 0
BITMAP
F8
10
F8
20
40
20
10
ENDCHAR
STARTCHAR TURKISH
ENCODING -1
SWIDTH 480 0
DWIDTH 6 0
BBX 5 7 1 0
BITMAP
40
70
C0
70
C0
48
70
ENDCHAR
STARTCHAR MANAT
ENCODING -1
SWIDTH 480 0
DWIDTH 6 0
BBX 5 7 1 0
BITMAP
20
70
A8
A8
A8
A8
88
ENDCHAR
STARTCHAR RUBLE
ENCODING -1
SWIDTH 480 0
DWIDTH 6 0
BBX 5 7 1 0
BITMAP
F0
88
88
F0
80
F0
80
ENDCHAR
STARTCHAR NUMERO
ENCODING -1
SWIDTH 480 0
DWIDTH 6 0
BBX 5 7 1 0
BITMAP
A0
A0
F0
E8
F0
A0
B8
ENDCHAR
STARTCHAR TRADE
ENCODING -1
SWIDTH 480 0
DWIDTH 6 0
BBX 6 4 0 6
BITMAP
F4
5C
54
54
ENDCHAR
STARTCHAR ANGSTROM
ENCODING -1
SWIDTH 480 0
DWIDTH 6 0
BBX 5 10 1 0
BITMAP
20
50
20
70
88
88
88
F8
88
88
ENDCHAR
STARTCHAR LEFTWARDS
ENCODING -1
SWIDTH 480 0
DWIDTH 6 0
BBX 6 5 0 1
BITMAP
20
40
FC
40
20
ENDCHAR
STARTCHAR UPWARDS
ENCODING -1
SWIDTH 480 0
DWIDTH 6 0
BBX 5 8 1 0
BITMAP
20
70
A8
20
20
20
20
20
ENDCHAR
STARTCHAR RIGHTWARDS
ENCODING -1
SWIDTH 480 0
DWIDTH 6 0
BBX 6 5 0 1
BITMAP
10
08
FC
08
10
ENDCHAR
STARTCHAR DOWNWARDS
ENCODING -1
SWIDTH 480 0
DWIDTH 6 0
BBX 5 8 1 0
BITMAP
20
20
20
20
20
A8
70
20
ENDCHAR
STARTCHAR LEFT
ENCODING -1
SWIDTH 480 0
DWIDTH 6 0
BBX 6 5 0 1
BITMAP
20
48
FC
48
10
ENDCHAR
STARTCHAR UP
ENCODING -1
SWIDTH 480 0
DWIDTH 6 0
BBX 5 8 1 0
BITMAP
20
70
A8
20
20
A8
70
20
ENDCHAR
STARTCHAR NORTH
ENCODING -1
SWIDTH 480 0
DWIDTH 6 0
BBX 6 6 0 0
BITMAP
F0
C0
A0
90
08
04
ENDCHAR
STARTCHAR SOUTH
ENCODING -1
SWIDTH 480 0
DWIDTH 6 0
BBX 6 6 0 0
BITMAP
80
40
24
14
0C
3C
ENDCHAR
STARTCHAR LEFTWARDS
ENCODING -1
SWIDTH 480 0
DWIDTH 6 0
BBX 6 5 0 1
BITMAP
24
44
FC
44
24
ENDCHAR
STARTCHAR RIGHTWARDS
ENCODING -1
SWIDTH 480 0
DWIDTH 6 0
BBX 6 5 0 1
BITMAP
90
88
FC
88
90
ENDCHAR
STARTCHAR UP
ENCODING -1
SWIDTH 480 0
DWIDTH 6 0
BBX 5 9 1 -1
BITMAP
20
70
A8
20
20
A8
70
20
F8
ENDCHAR
STARTCHAR LEFTWARDS
ENCODING -1
SWIDTH 480 0
DWIDTH 6 0
BBX 6 5 0 0
BITMAP
28
44
F8
40
20
ENDCHAR
STARTCHAR DOWNWARDS
ENCODING -1
SWIDTH 480 0
DWIDTH 6 0
BBX 6 7 0 0
BITMAP
04
04
24
44
F8
40
20
ENDCHAR
STARTCHAR NORTH
ENCODING -1
SWIDTH 480 0
DWIDTH 6 0
BBX 6 8 0 -1
BITMAP
FC
00
F0
C0
A0
90
08
04
ENDCHAR
STARTCHAR LEFTWARDS
ENCODING -1
SWIDTH 480 0
DWIDTH 6 0
BBX 6 8 0 -1
BITMAP
90
A0
FC
A4
94
FC
14
24
ENDCHAR
STARTCHAR LEFTWARDS
ENCODING -1
SWIDTH 480 0
DWIDTH 6 0
BBX 6 8 0 -1
BITMAP
20
40
FC
50
28
FC
08
10
ENDCHAR
STARTCHAR LEFTWARDS
ENCODING -1
SWIDTH 480 0
DWIDTH 6 0
BBX 6 5 0 1
BITMAP
20
7C
80
7C
20
ENDCHAR
STARTCHAR UPWARDS
ENCODING -1
SWIDTH 480 0
DWIDTH 6 0
BBX 5 8 1 0
BITMAP
20
50
D8
50
50
50
50
50
ENDCHAR
STARTCHAR RIGHTWARDS
ENCODING -1
SWIDTH 480 0
DWIDTH 6 0
BBX 6 5 0 1
BITMAP
10
F8
04
F8
10
ENDCHAR
STARTCHAR DOWNWARDS
ENCODING -1
SWIDTH 480 0
DWIDTH 6 0
BBX 5 8 1 0
BITMAP
50
50
50
50
50
D8
50
20
ENDCHAR
STARTCHAR LEFT
ENCODING -1
SWIDTH 480 0
DWIDTH 6 0
BBX 6 5 0 1
BITMAP
20
78
84
78
10
ENDCHAR
STARTCHAR UP
ENCODING -1
SWIDTH 480 0
DWIDTH 6 0
BBX 5 8 1 0
BITMAP
20
50
D8
50
50
D8
50
20
ENDCHAR
STARTCHAR UPWARDS
ENCODING -1
SWIDTH 480 0
DWIDTH 6 0
BBX 5 8 1 0
BITMAP
20
70
A8
20
70
20
70
20
ENDCHAR
STARTCHAR DOWNWARDS
ENCODING -1
SWIDTH 480 0
DWIDTH 6 0
BBX 5 8 1 0
BITMAP
20
70
20
70
20
A8
70
20
ENDCHAR
STARTCHAR LEFTWARDS
ENCODING -1
SWIDTH 480 0
DWIDTH 6 0
BBX 6 5 0 1
BITMAP
90
A0
FC
A0
90
ENDCHAR
STARTCHAR RIGHTWARDS
ENCODING -1
SWIDTH 480 0
DWIDTH 6 0
BBX 6 5 0 1
BITMAP
24
14
FC
14
24
ENDCHAR
STARTCHAR UPWARDS
ENCODING -1
SWIDTH 480 0
DWIDTH 6 0
BBX 5 7 1 0
BITMAP
20
50
88
D8
50
50
70
ENDCHAR
STARTCHAR UPWARDS
ENCODING -1
SWIDTH 480 0
DWIDTH 6 0
BBX 5 8 1 -1
BITMAP
20
50
88
D8
50
70
50
70
ENDCHAR
STARTCHAR NORTH
ENCODING -1
SWIDTH 480 0
DWIDTH 6 0
BBX 6 6 0 0
BITMAP
F8
80
B8
B0
A8
04
ENDCHAR
STARTCHAR SOUTH
ENCODING -1
SWIDTH 480 0
DWIDTH 6 0
BBX 6 6 0 0
BITMAP
80
54
34
74
04
7C
ENDCHAR
STARTCHAR THERE
ENCODING -1
SWIDTH 480 0
DWIDTH 6 0
BBX 5 7 1 0
BITMAP
F8
08
08
38
08
08
F8
ENDCHAR
STARTCHAR EMPTY
ENCODING -1
SWIDTH 480 0
DWIDTH 6 0
BBX 6 6 0 0
BITMAP
7C
8C
94
A4
C4
F8
ENDCHAR
STARTCHAR ELEMENT
ENCODING -1
SWIDTH 480 0
DWIDTH 6 0
BBX 5 5 1 0
BITMAP
78
80
F8
80
78
ENDCHAR
STARTCHAR RIGHT
ENCODING -1
SWIDTH 480 0
DWIDTH 6 0
BBX 5 5 1 0
BITMAP
80
80
80
80
F8
ENDCHAR
STARTCHAR LOGICAL
ENCODING -1
SWIDTH 480 0
DWIDTH 6 0
BBX 5 6 1 0
BITMAP
20
20
50
50
88
88
ENDCHAR
STARTCHAR LOGICAL
ENCODING -1
SWIDTH 480 0
DWIDTH 6 0
BBX 5 6 1 0
BITMAP
88
88
50
50
20
20
ENDCHAR
STARTCHAR UNION
ENCODING -1
SWIDTH 480 0
DWIDTH 6 0
BBX 5 6 1 0
BITMAP
88
88
88
88
88
70
ENDCHAR
STARTCHAR NOT
ENCODING -1
SWIDTH 480 0
DWIDTH 6 0
BBX 5 5 1 1
BITMAP
10
F8
20
F8
40
ENDCHAR
STARTCHAR CIRCLED
ENCODING -1
SWIDTH 480 0
DWIDTH 6 0
BBX 5 7 1 0
BITMAP
70
88
88
F8
88
88
70
ENDCHAR
STARTCHAR CIRCLED
ENCODING -1
SWIDTH 480 0
DWIDTH 6 0
BBX 5 7 1 0
BITMAP
70
88
D8
A8
D8
88
70
ENDCHAR
STARTCHAR CIRCLED
ENCODING -1
SWIDTH 480 0
DWIDTH 6 0
BBX 5 7 1 0
BITMAP
70
88
88
F8
88
88
70
ENDCHAR
STARTCHAR HOUSE
ENCODING -1
SWIDTH 480 0
DWIDTH 6 0
BBX 5 7 1 0
BITMAP
20
50
88
88
88
88
F8
ENDCHAR
STARTCHAR UP
ENCODING -1
SWIDTH 480 0
DWIDTH 6 0
BBX 5 3 1 4
BITMAP
20
50
88
ENDCHAR
STARTCHAR PROJECTIVE
ENCODING -1
SWIDTH 480 0
DWIDTH 6 0
BBX 5 5 1 2
BITMAP
F8
00
20
50
88
ENDCHAR
STARTCHAR PLACE
ENCODING -1
SWIDTH 480 0
DWIDTH 6 0
BBX 6 6 0 0
BITMAP
CC
FC
48
48
FC
CC
ENDCHAR
STARTCHAR UP
ENCODING -1
SWIDTH 480 0
DWIDTH 6 0
BBX 5 4 1 3
BITMAP
D8
20
50
88
ENDCHAR
STARTCHAR OPTION
ENCODING -1
SWIDTH 480 0
DWIDTH 6 0
BBX 6 4 0 1
BITMAP
CC
20
10
0C
ENDCHAR
STARTCHAR ERASE
ENCODING -1
SWIDTH 480 0
DWIDTH 6 0
BBX 6 5 0 0
BITMAP
F0
A8
DC
A8
F0
ENDCHAR
STARTCHAR KEYBOARD
ENCODING -1
SWIDTH 480 0
DWIDTH 6 0
BBX 5 5 1 0
BITMAP
A8
00
A8
00
70
ENDCHAR
STARTCHAR ERASE
ENCODING -1
SWIDTH 480 0
DWIDTH 6 0
BBX 6 5 0 0
BITMAP
3C
54
EC
54
3C
ENDCHAR
STARTCHAR APL
ENCODING -1
SWIDTH 480 0
DWIDTH 6 0
BBX 5 9 1 -2
BITMAP
20
20
70
A8
A8
A8
70
20
20
ENDCHAR
STARTCHAR INSERTION
ENCODING -1
SWIDTH 480 0
DWIDTH 6 0
BBX 5 9 1 -1
BITMAP
60
10
70
90
70
00
88
50
20
ENDCHAR
STARTCHAR COMPOSITION
ENCODING -1
SWIDTH 480 0
DWIDTH 6 0
BBX 6 5 0 0
BITMAP
F8
D4
D4
D4
F8
ENDCHAR
STARTCHAR ENTER
ENCODING -1
SWIDTH 480 0
DWIDTH 6 0
BBX 6 5 0 0
BITMAP
24
44
FC
40
20
ENDCHAR
STARTCHAR ALTERNATIVE
ENCODING -1
SWIDTH 480 0
DWIDTH 6 0
BBX 6 4 0 1
BITMAP
0C
10
20
CC
ENDCHAR
STARTCHAR HELM
ENCODING -1
SWIDTH 480 0
DWIDTH 6 0
BBX 5 8 1 -1
BITMAP
20
A8
70
A8
A8
70
A8
20
ENDCHAR
STARTCHAR BROKEN
ENCODING -1
SWIDTH 480 0
DWIDTH 6 0
BBX 6 6 0 0
BITMAP
E0
C8
A4
14
44
38
ENDCHAR
STARTCHAR HORIZONTAL
ENCODING -1
SWIDTH 480 0
DWIDTH 6 0
BBX 6 1 0 9
BITMAP
FC
ENDCHAR
STARTCHAR HORIZONTAL
ENCODING -1
SWIDTH 480 0
DWIDTH 6 0
BBX 6 1 0 6
BITMAP
FC
ENDCHAR
STARTCHAR HORIZONTAL
ENCODING -1
SWIDTH 480 0
DWIDTH 6 0
BBX 6 1 0 1
BITMAP
FC
ENDCHAR
STARTCHAR HORIZONTAL
ENCODING -1
SWIDTH 480 0
DWIDTH 6 0
BBX 6 1 0 -2
BITMAP
FC
ENDCHAR
STARTCHAR RETURN
ENCODING -1
SWIDTH 480 0
DWIDTH 6 0
BBX 6 8 0 -1
BITMAP
1C
14
14
34
54
84
58
20
ENDCHAR
STARTCHAR EJECT
ENCODING -1
SWIDTH 480 0
DWIDTH 6 0
BBX 5 5 1 0
BITMAP
20
70
F8
00
F8
ENDCHAR
STARTCHAR SYMBOL
ENCODING -1
SWIDTH 480 0
DWIDTH 6 0
BBX 6 12 0 -2
BITMAP
90
D0
B0
90
48
48
48
30
20
20
20
3C
ENDCHAR
STARTCHAR SYMBOL
ENCODING -1
SWIDTH 480 0
DWIDTH 6 0
BBX 6 12 0 -2
BITMAP
60
80
40
20
F0
48
48
30
24
24
3C
24
ENDCHAR
STARTCHAR SYMBOL
ENCODING -1
SWIDTH 480 0
DWIDTH 6 0
BBX 6 12 0 -2
BITMAP
60
80
40
20
F8
10
10
10
24
24
3C
24
ENDCHAR
STARTCHAR SYMBOL
ENCODING -1
SWIDTH 480 0
DWIDTH 6 0
BBX 6 12 0 -2
BITMAP
E0
80
C0
80
F8
10
10
10
24
18
18
24
ENDCHAR
STARTCHAR SYMBOL
ENCODING -1
SWIDTH 480 0
DWIDTH 6 0
BBX 6 12 0 -2
BITMAP
E0
80
C0
80
F0
48
48
30
1C
08
08
08
ENDCHAR
STARTCHAR SYMBOL
ENCODING -1
SWIDTH 480 0
DWIDTH 6 0
BBX 6 12 0 -2
BITMAP
E0
80
C0
80
E8
68
58
48
18
24
2C
1C
ENDCHAR
STARTCHAR SYMBOL
ENCODING -1
SWIDTH 480 0
DWIDTH 6 0
BBX 6 12 0 -2
BITMAP
60
90
F0
90
38
40
40
38
24
28
38
24
ENDCHAR
STARTCHAR SYMBOL
ENCODING -1
SWIDTH 480 0
DWIDTH 6 0
BBX 6 12 0 -2
BITMAP
C0
A0
C0
A0
F0
40
60
40
70
20
20
3C
ENDCHAR
STARTCHAR SYMBOL
ENCODING -1
SWIDTH 480 0
DWIDTH 6 0
BBX 6 10 0 -1
BITMAP
C0
A0
C0
A0
C0
0C
10
08
04
18
ENDCHAR
STARTCHAR SYMBOL
ENCODING -1
SWIDTH 480 0
DWIDTH 6 0
BBX 6 10 0 -1
BITMAP
A0
A0
E0
A0
A0
1C
08
08
08
08
ENDCHAR
STARTCHAR SYMBOL
ENCODING -1
SWIDTH 480 0
DWIDTH 6 0
BBX 6 10 0 -1
BITMAP
80
80
80
80
E0
1C
10
18
10
10
ENDCHAR
STARTCHAR SYMBOL
ENCODING -1
SWIDTH 480 0
DWIDTH 6 0
BBX 6 10 0 -1
BITMAP
A0
A0
A0
40
40
1C
08
08
08
08
ENDCHAR
STARTCHAR SYMBOL
ENCODING -1
SWIDTH 480 0
DWIDTH 6 0
BBX 6 10 0 -1
BITMAP
E0
80
C0
80
80
1C
10
18
10
10
ENDCHAR
STARTCHAR SYMBOL
ENCODING -1
SWIDTH 480 0
DWIDTH 6 0
BBX 6 10 0 -1
BITMAP
60
80
80
80
60
18
14
18
14
14
ENDCHAR
STARTCHAR SYMBOL
ENCODING -1
SWIDTH 480 0
DWIDTH 6 0
BBX 6 10 0 -1
BITMAP
60
80
40
20
C0
0C
10
08
04
18
ENDCHAR
STARTCHAR SYMBOL
ENCODING -1
SWIDTH 480 0
DWIDTH 6 0
BBX 6 10 0 -1
BITMAP
60
80
40
20
C0
1C
08
08
08
1C
ENDCHAR
STARTCHAR SYMBOL
ENCODING -1
SWIDTH 480 0
DWIDTH 6 0
BBX 6 12 0 -2
BITMAP
E0
90
90
F0
40
40
70
1C
10
18
10
1C
ENDCHAR
STARTCHAR SYMBOL
ENCODING -1
SWIDTH 480 0
DWIDTH 6 0
BBX 6 12 0 -2
BITMAP
E0
90
90
E0
38
40
40
38
04
0C
04
04
ENDCHAR
STARTCHAR SYMBOL
ENCODING -1
SWIDTH 480 0
DWIDTH 6 0
BBX 6 12 0 -2
BITMAP
E0
90
90
E0
38
40
40
38
18
04
08
1C
ENDCHAR
STARTCHAR SYMBOL
ENCODING -1
SWIDTH 480 0
DWIDTH 6 0
BBX 6 12 0 -2
BITMAP
E0
90
90
E0
38
40
40
38
04
08
04
18
ENDCHAR
STARTCHAR SYMBOL
ENCODING -1
SWIDTH 480 0
DWIDTH 6 0
BBX 6 12 0 -2
BITMAP
E0
90
90
E0
38
40
40
3C
0C
14
3C
04
ENDCHAR
STARTCHAR SYMBOL
ENCODING -1
SWIDTH 480 0
DWIDTH 6 0
BBX 6 12 0 -2
BITMAP
90
D0
B0
90
30
48
78
48
24
28
38
24
ENDCHAR
STARTCHAR SYMBOL
ENCODING -1
SWIDTH 480 0
DWIDTH 6 0
BBX 6 12 0 -2
BITMAP
60
80
40
20
E8
28
10
10
24
34
2C
24
ENDCHAR
STARTCHAR SYMBOL
ENCODING -1
SWIDTH 480 0
DWIDTH 6 0
BBX 6 12 0 -2
BITMAP
E0
80
DC
88
E8
08
00
18
14
18
14
18
ENDCHAR
STARTCHAR SYMBOL
ENCODING -1
SWIDTH 480 0
DWIDTH 6 0
BBX 6 12 0 -2
BITMAP
70
80
80
70
30
48
78
48
24
34
2C
24
ENDCHAR
STARTCHAR SYMBOL
ENCODING -1
SWIDTH 480 0
DWIDTH 6 0
BBX 6 10 0 -1
BITMAP
E0
80
C0
80
E0
44
6C
54
44
44
ENDCHAR
STARTCHAR SYMBOL
ENCODING -1
SWIDTH 480 0
DWIDTH 6 0
BBX 6 12 0 -2
BITMAP
60
80
54
34
D4
1C
00
18
14
18
14
18
ENDCHAR
STARTCHAR SYMBOL
ENCODING -1
SWIDTH 480 0
DWIDTH 6 0
BBX 6 12 0 -2
BITMAP
E0
80
C0
80
F0
40
20
10
6C
10
10
0C
ENDCHAR
STARTCHAR SYMBOL
ENCODING -1
SWIDTH 480 0
DWIDTH 6 0
BBX 6 10 0 -1
BITMAP
E0
80
C0
80
80
0C
10
08
04
18
ENDCHAR
STARTCHAR SYMBOL
ENCODING -1
SWIDTH 480 0
DWIDTH 6 0
BBX 6 10 0 -1
BITMAP
60
80
A0
A0
60
0C
10
08
04
18
ENDCHAR
STARTCHAR SYMBOL
ENCODING -1
SWIDTH 480 0
DWIDTH 6 0
BBX 6 10 0 -1
BITMAP
C0
A0
C0
A0
A0
0C
10
08
04
18
ENDCHAR
STARTCHAR SYMBOL
ENCODING -1
SWIDTH 480 0
DWIDTH 6 0
BBX 6 10 0 -1
BITMAP
90
90
90
90
60
0C
10
08
04
18
ENDCHAR
STARTCHAR SYMBOL
ENCODING -1
SWIDTH 480 0
DWIDTH 6 0
BBX 6 10 0 -1
BITMAP
60
80
40
20
C0
18
14
18
10
10
ENDCHAR
STARTCHAR SYMBOL
ENCODING -1
SWIDTH 480 0
DWIDTH 6 0
BBX 6 12 0 -2
BITMAP
C0
A0
A0
C0
70
40
60
40
70
20
20
3C
ENDCHAR
STARTCHAR BLANK
ENCODING -1
SWIDTH 480 0
DWIDTH 6 0
BBX 6 8 0 0
BITMAP
50
60
C0
78
44
44
44
78
ENDCHAR
STARTCHAR OPEN
ENCODING -1
SWIDTH 480 0
DWIDTH 6 0
BBX 5 2 1 -1
BITMAP
88
F8
ENDCHAR
STARTCHAR SYMBOL
ENCODING -1
SWIDTH 480 0
DWIDTH 6 0
BBX 6 10 0 -1
BITMAP
90
D0
B0
90
90
20
20
20
20
3C
ENDCHAR
STARTCHAR SYMBOL
ENCODING -1
SWIDTH 480 0
DWIDTH 6 0
BBX 5 5 1 0
BITMAP
48
90
20
48
90
ENDCHAR
STARTCHAR SYMBOL
ENCODING -1
SWIDTH 480 0
DWIDTH 6 0
BBX 5 7 1 0
BITMAP
78
80
80
40
20
00
20
ENDCHAR
STARTCHAR WHITE
ENCODING -1
SWIDTH 480 0
DWIDTH 6 0
BBX 5 5 1 1
BITMAP
F8
88
88
88
F8
ENDCHAR
STARTCHAR SQUARE
ENCODING -1
SWIDTH 480 0
DWIDTH 6 0
BBX 5 5 1 0
BITMAP
F8
00
F8
00
F8
ENDCHAR
STARTCHAR BLACK
ENCODING -1
SWIDTH 480 0
DWIDTH 6 0
BBX 3 3 2 2
BITMAP
E0
E0
E0
ENDCHAR
STARTCHAR WHITE
ENCODING -1
SWIDTH 480 0
DWIDTH 6 0
BBX 3 3 2 2
BITMAP
E0
A0
E0
ENDCHAR
STARTCHAR BLACK
ENCODING -1
SWIDTH 480 0
DWIDTH 6 0
BBX 6 4 0 0
BITMAP
FC
FC
FC
FC
ENDCHAR
STARTCHAR BLACK
ENCODING -1
SWIDTH 480 0
DWIDTH 6 0
BBX 6 12 0 -2
BITMAP
30
30
30
30
78
78
78
78
FC
FC
FC
FC
ENDCHAR
STARTCHAR BLACK
ENCODING -1
SWIDTH 480 0
DWIDTH 6 0
BBX 5 7 1 0
BITMAP
C0
E0
F0
F8
F0
E0
C0
ENDCHAR
STARTCHAR WHITE
ENCODING -1
SWIDTH 480 0
DWIDTH 6 0
BBX 5 7 1 0
BITMAP
C0
A0
90
88
90
A0
C0
ENDCHAR
STARTCHAR BLACK
ENCODING -1
SWIDTH 480 0
DWIDTH 6 0
BBX 3 5 2 0
BITMAP
80
C0
E0
C0
80
ENDCHAR
STARTCHAR BLACK
ENCODING -1
SWIDTH 480 0
DWIDTH 6 0
BBX 6 12 0 -2
BITMAP
80
C0
E0
F0
F8
FC
FC
F8
F0
E0
C0
80
ENDCHAR
STARTCHAR BLACK
ENCODING -1
SWIDTH 480 0
DWIDTH 6 0
BBX 6 12 0 -2
BITMAP
FC
FC
FC
FC
78
78
78
78
30
30
30
30
ENDCHAR
STARTCHAR WHITE
ENCODING -1
SWIDTH 480 0
DWIDTH 6 0
BBX 5 7 1 0
BITMAP
18
28
48
88
48
28
18
ENDCHAR
STARTCHAR BLACK
ENCODING -1
SWIDTH 480 0
DWIDTH 6 0
BBX 6 12 0 -2
BITMAP
04
0C
1C
3C
7C
FC
FC
7C
3C
1C
0C
04
ENDCHAR
STARTCHAR BLACK
ENCODING -1
SWIDTH 480 0
DWIDTH 6 0
BBX 5 6 1 0
BITMAP
20
70
F8
F8
70
20
ENDCHAR
STARTCHAR WHITE
ENCODING -1
SWIDTH 480 0
DWIDTH 6 0
BBX 5 6 1 0
BITMAP
20
50
88
88
50
20
ENDCHAR
STARTCHAR LOZENGE
ENCODING -1
SWIDTH 480 0
DWIDTH 6 0
BBX 5 10 1 -1
BITMAP
20
20
50
50
88
88
50
50
20
20
ENDCHAR
STARTCHAR WHITE
ENCODING -1
SWIDTH 480 0
DWIDTH 6 0
BBX 4 4 1 2
BITMAP
60
90
90
60
ENDCHAR
STARTCHAR BLACK
ENCODING -1
SWIDTH 480 0
DWIDTH 6 0
BBX 4 4 1 2
BITMAP
60
F0
F0
60
ENDCHAR
STARTCHAR INVERSE
ENCODING -1
SWIDTH 480 0
DWIDTH 6 0
BBX 6 12 0 -2
BITMAP
FC
FC
FC
FC
CC
84
84
CC
FC
FC
FC
FC
ENDCHAR
STARTCHAR INVERSE
ENCODING -1
SWIDTH 480 0
DWIDTH 6 0
BBX 6 12 0 -2
BITMAP
FC
FC
FC
FC
CC
B4
B4
CC
FC
FC
FC
FC
ENDCHAR
STARTCHAR LARGE
ENCODING -1
SWIDTH 480 0
DWIDTH 6 0
BBX 6 7 0 0
BITMAP
78
84
84
84
84
84
78
ENDCHAR
STARTCHAR BALLOT
ENCODING -1
SWIDTH 480 0
DWIDTH 6 0
BBX 6 6 0 0
BITMAP
FC
84
84
84
84
FC
ENDCHAR
STARTCHAR BALLOT
ENCODING -1
SWIDTH 480 0
DWIDTH 6 0
BBX 6 6 0 0
BITMAP
FC
84
8C
D4
A4
FC
ENDCHAR
STARTCHAR BALLOT
ENCODING -1
SWIDTH 480 0
DWIDTH 6 0
BBX 6 6 0 0
BITMAP
FC
84
D4
A4
D4
FC
ENDCHAR
STARTCHAR WHITE
ENCODING -1
SWIDTH 480 0
DWIDTH 6 0
BBX 5 6 1 0
BITMAP
50
00
00
00
88
70
ENDCHAR
STARTCHAR BLACK
ENCODING -1
SWIDTH 480 0
DWIDTH 6 0
BBX 5 10 1 -2
BITMAP
70
F8
A8
F8
F8
F8
70
88
F8
70
ENDCHAR
STARTCHAR WHITE
ENCODING -1
SWIDTH 480 0
DWIDTH 6 0
BBX 5 5 1 1
BITMAP
A8
70
D8
70
A8
ENDCHAR
STARTCHAR FEMALE
ENCODING -1
SWIDTH 480 0
DWIDTH 6 0
BBX 5 8 1 0
BITMAP
70
88
88
88
70
20
70
20
ENDCHAR
STARTCHAR MALE
ENCODING -1
SWIDTH 480 0
DWIDTH 6 0
BBX 5 8 1 0
BITMAP
38
18
28
70
88
88
88
70
ENDCHAR
STARTCHAR BLACK
ENCODING -1
SWIDTH 480 0
DWIDTH 6 0
BBX 5 6 1 0
BITMAP
20
70
F8
D8
20
70
ENDCHAR
STARTCHAR BLACK
ENCODING -1
SWIDTH 480 0
DWIDTH 6 0
BBX 5 6 1 0
BITMAP
70
70
F8
D8
20
70
ENDCHAR
STARTCHAR BLACK
ENCODING -1
SWIDTH 480 0
DWIDTH 6 0
BBX 5 6 1 0
BITMAP
50
F8
F8
F8
70
20
ENDCHAR
STARTCHAR BLACK
ENCODING -1
SWIDTH 480 0
DWIDTH 6 0
BBX 5 6 1 0
BITMAP
20
70
F8
F8
70
20
ENDCHAR
STARTCHAR EIGHTH
ENCODING -1
SWIDTH 480 0
DWIDTH 6 0
BBX 5 8 1 0
BITMAP
20
30
28
28
20
20
E0
E0
ENDCHAR
STARTCHAR BEAMED
ENCODING -1
SWIDTH 480 0
DWIDTH 6 0
BBX 5 9 1 -1
BITMAP
60
58
48
48
48
48
C8
D8
18
ENDCHAR
STARTCHAR CHECK
ENCODING -1
SWIDTH 480 0
DWIDTH 6 0
BBX 5 5 1 0
BITMAP
08
90
A0
C0
80
ENDCHAR
STARTCHAR BALLOT
ENCODING -1
SWIDTH 480 0
DWIDTH 6 0
BBX 5 5 1 0
BITMAP
88
50
20
50
88
ENDCHAR
STARTCHAR BLACK
ENCODING -1
SWIDTH 480 0
DWIDTH 6 0
BBX 5 7 1 0
BITMAP
20
20
70
F8
70
20
20
ENDCHAR
STARTCHAR WHITE
ENCODING -1
SWIDTH 480 0
DWIDTH 6 0
BBX 5 7 1 0
BITMAP
20
20
50
88
50
20
20
ENDCHAR
STARTCHAR OPEN
ENCODING -1
SWIDTH 480 0
DWIDTH 6 0
BBX 5 5 1 1
BITMAP
50
20
D8
20
50
ENDCHAR
STARTCHAR BLACK
ENCODING -1
SWIDTH 480 0
DWIDTH 6 0
BBX 5 7 1 0
BITMAP
20
70
A8
D8
A8
70
20
ENDCHAR
STARTCHAR BRAILLE
ENCODING -1
SWIDTH 480 0
DWIDTH 6 0
BBX 1 1 5 -2
BITMAP
00
ENDCHAR
STARTCHAR BRAILLE
ENCODING -1
SWIDTH 480 0
DWIDTH 6 0
BBX 2 2 1 7
BITMAP
C0
C0
ENDCHAR
STARTCHAR BRAILLE
ENCODING -1
SWIDTH 480 0
DWIDTH 6 0
BBX 2 2 1 4
BITMAP
C0
C0
ENDCHAR
STARTCHAR BRAILLE
ENCODING -1
SWIDTH 480 0
DWIDTH 6 0
BBX 2 5 1 4
BITMAP
C0
C0
00
C0
C0
ENDCHAR
STARTCHAR BRAILLE
ENCODING -1
SWIDTH 480 0
DWIDTH 6 0
BBX 2 2 1 1
BITMAP
C0
C0
ENDCHAR
STARTCHAR BRAILLE
ENCODING -1
SWIDTH 480 0
DWIDTH 6 0
BBX 2 8 1 1
BITMAP
C0
C0
00
00
00
00
C0
C0
ENDCHAR
STARTCHAR BRAILLE
ENCODING -1
SWIDTH 480 0
DWIDTH 6 0
BBX 2 5 1 1
BITMAP
C0
C0
00
C0
C0
ENDCHAR
STARTCHAR BRAILLE
ENCODING -1
SWIDTH 480 0
DWIDTH 6 0
BBX 2 8 1 1
BITMAP
C0
C0
00
C0
C0
00
C0
C0
ENDCHAR
STARTCHAR BRAILLE
ENCODING -1
SWIDTH 480 0
DWIDTH 6 0
BBX 2 2 4 7
BITMAP
C0
C0
ENDCHAR
STARTCHAR BRAILLE
ENCODING -1
SWIDTH 480 0
DWIDTH 6 0
BBX 5 2 1 7
BITMAP
D8
D8
ENDCHAR
STARTCHAR BRAILLE
ENCODING -1
SWIDTH 480 0
DWIDTH 6 0
BBX 5 5 1 4
BITMAP
18
18
00
C0
C0
ENDCHAR
STARTCHAR BRAILLE
ENCODING -1
SWIDTH 480 0
DWIDTH 6 0
BBX 5 5 1 4
BITMAP
D8
D8
00
C0
C0
ENDCHAR
STARTCHAR BRAILLE
ENCODING -1
SWIDTH 480 0
DWIDTH 6 0
BBX 5 8 1 1
BITMAP
18
18
00
00
00
00
C0
C0
ENDCHAR
STARTCHAR BRAILLE
ENCODING -1
SWIDTH 480 0
DWIDTH 6 0
BBX 5 8 1 1
BITMAP
D8
D8
00
00
00
00
C0
C0
ENDCHAR
STARTCHAR BRAILLE
ENCODING -1
SWIDTH 480 0
DWIDTH 6 0
BBX 5 8 1 1
BITMAP
18
18
00
C0
C0
00
C0
C0
ENDCHAR
STARTCHAR BRAILLE
ENCODING -1
SWIDTH 480 0
DWIDTH 6 0
BBX 5 8 1 1
BITMAP
D8
D8
00
C0
C0
00
C0
C0
ENDCHAR
STARTCHAR BRAILLE
ENCODING -1
SWIDTH 480 0
DWIDTH 6 0
BBX 2 2 4 4
BITMAP
C0
C0
ENDCHAR
STARTCHAR BRAILLE
ENCODING -1
SWIDTH 480 0
DWIDTH 6 0
BBX 5 5 1 4
BITMAP
C0
C0
00
18
18
ENDCHAR
STARTCHAR BRAILLE
ENCODING -1
SWIDTH 480 0
DWIDTH 6 0
BBX 5 2 1 4
BITMAP
D8
D8
ENDCHAR
STARTCHAR BRAILLE
ENCODING -1
SWIDTH 480 0
DWIDTH 6 0
BBX 5 5 1 4
BITMAP
C0
C0
00
D8
D8
ENDCHAR
STARTCHAR BRAILLE
ENCODING -1
SWIDTH 480 0
DWIDTH 6 0
BBX 5 5 1 1
BITMAP
18
18
00
C0
C0
ENDCHAR
STARTCHAR BRAILLE
ENCODING -1
SWIDTH 480 0
DWIDTH 6 0
BBX 5 8 1 1
BITMAP
C0
C0
00
18
18
00
C0
C0
ENDCHAR
STARTCHAR BRAILLE
ENCODING -1
SWIDTH 480 0
DWIDTH 6 0
BBX 5 5 1 1
BITMAP
D8
D8
00
C0
C0
ENDCHAR
STARTCHAR BRAILLE
ENCODING -1
SWIDTH 480 0
DWIDTH 6 0
BBX 5 8 1 1
BITMAP
C0
C0
00
D8
D8
00
C0
C0
ENDCHAR
STARTCHAR BRAILLE
ENCODING -1
SWIDTH 480 0
DWIDTH 6 0
BBX 2 5 4 4
BITMAP
C0
C0
00
C0
C0
ENDCHAR
STARTCHAR BRAILLE
ENCODING -1
SWIDTH 480 0
DWIDTH 6 0
BBX 5 5 1 4
BITMAP
D8
D8
00
18
18
ENDCHAR
STARTCHAR BRAILLE
ENCODING -1
SWIDTH 480 0
DWIDTH 6 0
BBX 5 5 1 4
BITMAP
18
18
00
D8
D8
ENDCHAR
STARTCHAR BRAILLE
ENCODING -1
SWIDTH 480 0
DWIDTH 6 0
BBX 5 5 1 4
BITMAP
D8
D8
00
D8
D8
ENDCHAR
STARTCHAR BRAILLE
ENCODING -1
SWIDTH 480 0
DWIDTH 6 0
BBX 5 8 1 1
BITMAP
18
18
00
18
18
00
C0
C0
ENDCHAR
STARTCHAR BRAILLE
ENCODING -1
SWIDTH 480 0
DWIDTH 6 0
BBX 5 8 1 1
BITMAP
D8
D8
00
18
18
00
C0
C0
ENDCHAR
STARTCHAR BRAILLE
ENCODING -1
SWIDTH 480 0
DWIDTH 6 0
BBX 5 8 1 1
BITMAP
18
18
00
D8
D8
00
C0
C0
ENDCHAR
STARTCHAR BRAILLE
ENCODING -1
SWIDTH 480 0
DWIDTH 6 0
BBX 5 8 1 1
BITMAP
D8
D8
00
D8
D8
00
C0
C0
ENDCHAR
STARTCHAR BRAILLE
ENCODING -1
SWIDTH 480 0
DWIDTH 6 0
BBX 2 2 4 1
BITMAP
C0
C0
ENDCHAR
STARTCHAR BRAILLE
ENCODING -1
SWIDTH 480 0
DWIDTH 6 0
BBX 5 8 1 1
BITMAP
C0
C0
00
00
00
00
18
18
ENDCHAR
STARTCHAR BRAILLE
ENCODING -1
SWIDTH 480 0
DWIDTH 6 0
BBX 5 5 1 1
BITMAP
C0
C0
00
18
18
ENDCHAR
STARTCHAR BRAILLE
ENCODING -1
SWIDTH 480 0
DWIDTH 6 0
BBX 5 8 1 1
BITMAP
C0
C0
00
C0
C0
00
18
18
ENDCHAR
STARTCHAR BRAILLE
ENCODING -1
SWIDTH 480 0
DWIDTH 6 0
BBX 5 2 1 1
BITMAP
D8
D8
ENDCHAR
STARTCHAR BRAILLE
ENCODING -1
SWIDTH 480 0
DWIDTH 6 0
BBX 5 8 1 1
BITMAP
C0
C0
00
00
00
00
D8
D8
ENDCHAR
STARTCHAR BRAILLE
ENCODING -1
SWIDTH 480 0
DWIDTH 6 0
BBX 5 5 1 1
BITMAP
C0
C0
00
D8
D8
ENDCHAR
STARTCHAR BRAILLE
ENCODING -1
SWIDTH 480 0
DWIDTH 6 0
BBX 5 8 1 1
BITMAP
C0
C0
00
C0
C0
00
D8
D8
ENDCHAR
STARTCHAR BRAILLE
ENCODING -1
SWIDTH 480 0
DWIDTH 6 0
BBX 2 8 4 1
BITMAP
C0
C0
00
00
00
00
C0
C0
ENDCHAR
STARTCHAR BRAILLE
ENCODING -1
SWIDTH 480 0
DWIDTH 6 0
BBX 5 8 1 1
BITMAP
D8
D8
00
00
00
00
18
18
ENDCHAR
STARTCHAR BRAILLE
ENCODING -1
SWIDTH 480 0
DWIDTH 6 0
BBX 5 8 1 1
BITMAP
18
18
00
C0
C0
00
18
18
ENDCHAR
STARTCHAR BRAILLE
ENCODING -1
SWIDTH 480 0
DWIDTH 6 0
BBX 5 8 1 1
BITMAP
D8
D8
00
C0
C0
00
18
18
ENDCHAR
STARTCHAR BRAILLE
ENCODING -1
SWIDTH 480 0
DWIDTH 6 0
BBX 5 8 1 1
BITMAP
18
18
00
00
00
00
D8
D8
ENDCHAR
STARTCHAR BRAILLE
ENCODING -1
SWIDTH 480 0
DWIDTH 6 0
BBX 5 8 1 1
BITMAP
D8
D8
00
00
00
00
D8
D8
ENDCHAR
STARTCHAR BRAILLE
ENCODING -1
SWIDTH 480 0
DWIDTH 6 0
BBX 5 8 1 1
BITMAP
18
18
00
C0
C0
00
D8
D8
ENDCHAR
STARTCHAR BRAILLE
ENCODING -1
SWIDTH 480 0
DWIDTH 6 0
BBX 5 8 1 1
BITMAP
D8
D8
00
C0
C0
00
D8
D8
ENDCHAR
STARTCHAR BRAILLE
ENCODING -1
SWIDTH 480 0
DWIDTH 6 0
BBX 2 5 4 1
BITMAP
C0
C0
00
C0
C0
ENDCHAR
STARTCHAR BRAILLE
ENCODING -1
SWIDTH 480 0
DWIDTH 6 0
BBX 5 8 1 1
BITMAP
C0
C0
00
18
18
00
18
18
ENDCHAR
STARTCHAR BRAILLE
ENCODING -1
SWIDTH 480 0
DWIDTH 6 0
BBX 5 5 1 1
BITMAP
D8
D8
00
18
18
ENDCHAR
STARTCHAR BRAILLE
ENCODING -1
SWIDTH 480 0
DWIDTH 6 0
BBX 5 8 1 1
BITMAP
C0
C0
00
D8
D8
00
18
18
ENDCHAR
STARTCHAR BRAILLE
ENCODING -1
SWIDTH 480 0
DWIDTH 6 0
BBX 5 5 1 1
BITMAP
18
18
00
D8
D8
ENDCHAR
STARTCHAR BRAILLE
ENCODING -1
SWIDTH 480 0
DWIDTH 6 0
BBX 5 8 1 1
BITMAP
C0
C0
00
18
18
00
D8
D8
ENDCHAR
STARTCHAR BRAILLE
ENCODING -1
SWIDTH 480 0
DWIDTH 6 0
BBX 5 5 1 1
BITMAP
D8
D8
00
D8
D8
ENDCHAR
STARTCHAR BRAILLE
ENCODING -1
SWIDTH 480 0
DWIDTH 6 0
BBX 5 8 1 1
BITMAP
C0
C0
00
D8
D8
00
D8
D8
ENDCHAR
STARTCHAR BRAILLE
ENCODING -1
SWIDTH 480 0
DWIDTH 6 0
BBX 2 8 4 1
BITMAP
C0
C0
00
C0
C0
00
C0
C0
ENDCHAR
STARTCHAR BRAILLE
ENCODING -1
SWIDTH 480 0
DWIDTH 6 0
BBX 5 8 1 1
BITMAP
D8
D8
00
18
18
00
18
18
ENDCHAR
STARTCHAR BRAILLE
ENCODING -1
SWIDTH 480 0
DWIDTH 6 0
BBX 5 8 1 1
BITMAP
18
18
00
D8
D8
00
18
18
ENDCHAR
STARTCHAR BRAILLE
ENCODING -1
SWIDTH 480 0
DWIDTH 6 0
BBX 5 8 1 1
BITMAP
D8
D8
00
D8
D8
00
18
18
ENDCHAR
STARTCHAR BRAILLE
ENCODING -1
SWIDTH 480 0
DWIDTH 6 0
BBX 5 8 1 1
BITMAP
18
18
00
18
18
00
D8
D8
ENDCHAR
STARTCHAR BRAILLE
ENCODING -1
SWIDTH 480 0
DWIDTH 6 0
BBX 5 8 1 1
BITMAP
D8
D8
00
18
18
00
D8
D8
ENDCHAR
STARTCHAR BRAILLE
ENCODING -1
SWIDTH 480 0
DWIDTH 6 0
BBX 5 8 1 1
BITMAP
18
18
00
D8
D8
00
D8
D8
ENDCHAR
STARTCHAR BRAILLE
ENCODING -1
SWIDTH 480 0
DWIDTH 6 0
BBX 5 8 1 1
BITMAP
D8
D8
00
D8
D8
00
D8
D8
ENDCHAR
STARTCHAR BRAILLE
ENCODING -1
SWIDTH 480 0
DWIDTH 6 0
BBX 2 2 1 -2
BITMAP
C0
C0
ENDCHAR
STARTCHAR BRAILLE
ENCODING -1
SWIDTH 480 0
DWIDTH 6 0
BBX 2 11 1 -2
BITMAP
C0
C0
00
00
00
00
00
00
00
C0
C0
ENDCHAR
STARTCHAR BRAILLE
ENCODING -1
SWIDTH 480 0
DWIDTH 6 0
BBX 2 8 1 -2
BITMAP
C0
C0
00
00
00
00
C0
C0
ENDCHAR
STARTCHAR BRAILLE
ENCODING -1
SWIDTH 480 0
DWIDTH 6 0
BBX 2 11 1 -2
BITMAP
C0
C0
00
C0
C0
00
00
00
00
C0
C0
ENDCHAR
STARTCHAR BRAILLE
ENCODING -1
SWIDTH 480 0
DWIDTH 6 0
BBX 2 5 1 -2
BITMAP
C0
C0
00
C0
C0
ENDCHAR
STARTCHAR BRAILLE
ENCODING -1
SWIDTH 480 0
DWIDTH 6 0
BBX 2 11 1 -2
BITMAP
C0
C0
00
00
00
00
C0
C0
00
C0
C0
ENDCHAR
STARTCHAR BRAILLE
ENCODING -1
SWIDTH 480 0
DWIDTH 6 0
BBX 2 8 1 -2
BITMAP
C0
C0
00
C0
C0
00
C0
C0
ENDCHAR
STARTCHAR BRAILLE
ENCODING -1
SWIDTH 480 0
DWIDTH 6 0
BBX 2 11 1 -2
BITMAP
C0
C0
00
C0
C0
00
C0
C0
00
C0
C0
ENDCHAR
STARTCHAR BRAILLE
ENCODING -1
SWIDTH 480 0
DWIDTH 6 0
BBX 5 11 1 -2
BITMAP
18
18
00
00
00
00
00
00
00
C0
C0
ENDCHAR
STARTCHAR BRAILLE
ENCODING -1
SWIDTH 480 0
DWIDTH 6 0
BBX 5 11 1 -2
BITMAP
D8
D8
00
00
00
00
00
00
00
C0
C0
ENDCHAR
STARTCHAR BRAILLE
ENCODING -1
SWIDTH 480 0
DWIDTH 6 0
BBX 5 11 1 -2
BITMAP
18
18
00
C0
C0
00
00
00
00
C0
C0
ENDCHAR
STARTCHAR BRAILLE
ENCODING -1
SWIDTH 480 0
DWIDTH 6 0
BBX 5 11 1 -2
BITMAP
D8
D8
00
C0
C0
00
00
00
00
C0
C0
ENDCHAR
STARTCHAR BRAILLE
ENCODING -1
SWIDTH 480 0
DWIDTH 6 0
BBX 5 11 1 -2
BITMAP
18
18
00
00
00
00
C0
C0
00
C0
C0
ENDCHAR
STARTCHAR BRAILLE
ENCODING -1
SWIDTH 480 0
DWIDTH 6 0
BBX 5 11 1 -2
BITMAP
D8
D8
00
00
00
00
C0
C0
00
C0
C0
ENDCHAR
STARTCHAR BRAILLE
ENCODING -1
SWIDTH 480 0
DWIDTH 6 0
BBX 5 11 1 -2
BITMAP
18
18
00
C0
C0
00
C0
C0
00
C0
C0
ENDCHAR
STARTCHAR BRAILLE
ENCODING -1
SWIDTH 480 0
DWIDTH 6 0
BBX 5 11 1 -2
BITMAP
D8
D8
00
C0
C0
00
C0
C0
00
C0
C0
ENDCHAR
STARTCHAR BRAILLE
ENCODING -1
SWIDTH 480 0
DWIDTH 6 0
BBX 5 8 1 -2
BITMAP
18
18
00
00
00
00
C0
C0
ENDCHAR
STARTCHAR BRAILLE
ENCODING -1
SWIDTH 480 0
DWIDTH 6 0
BBX 5 11 1 -2
BITMAP
C0
C0
00
18
18
00
00
00
00
C0
C0
ENDCHAR
STARTCHAR BRAILLE
ENCODING -1
SWIDTH 480 0
DWIDTH 6 0
BBX 5 8 1 -2
BITMAP
D8
D8
00
00
00
00
C0
C0
ENDCHAR
STARTCHAR BRAILLE
ENCODING -1
SWIDTH 480 0
DWIDTH 6 0
BBX 5 11 1 -2
BITMAP
C0
C0
00
D8
D8
00
00
00
00
C0
C0
ENDCHAR
STARTCHAR BRAILLE
ENCODING -1
SWIDTH 480 0
DWIDTH 6 0
BBX 5 8 1 -2
BITMAP
18
18
00
C0
C0
00
C0
C0
ENDCHAR
STARTCHAR BRAILLE
ENCODING -1
SWIDTH 480 0
DWIDTH 6 0
BBX 5 11 1 -2
BITMAP
C0
C0
00
18
18
00
C0
C0
00
C0
C0
ENDCHAR
STARTCHAR BRAILLE
ENCODING -1
SWIDTH 480 0
DWIDTH 6 0
BBX 5 8 1 -2
BITMAP
D8
D8
00
C0
C0
00
C0
C0
ENDCHAR
STARTCHAR BRAILLE
ENCODING -1
SWIDTH 480 0
DWIDTH 6 0
BBX 5 11 1 -2
BITMAP
C0
C0
00
D8
D8
00
C0
C0
00
C0
C0
ENDCHAR
STARTCHAR BRAILLE
ENCODING -1
SWIDTH 480 0
DWIDTH 6 0
BBX 5 11 1 -2
BITMAP
18
18
00
18
18
00
00
00
00
C0
C0
ENDCHAR
STARTCHAR BRAILLE
ENCODING -1
SWIDTH 480 0
DWIDTH 6 0
BBX 5 11 1 -2
BITMAP
D8
D8
00
18
18
00
00
00
00
C0
C0
ENDCHAR
STARTCHAR BRAILLE
ENCODING -1
SWIDTH 480 0
DWIDTH 6 0
BBX 5 11 1 -2
BITMAP
18
18
00
D8
D8
00
00
00
00
C0
C0
ENDCHAR
STARTCHAR BRAILLE
ENCODING -1
SWIDTH 480 0
DWIDTH 6 0
BBX 5 11 1 -2
BITMAP
D8
D8
00
D8
D8
00
00
00
00
C0
C0
ENDCHAR
STARTCHAR BRAILLE
ENCODING -1
SWIDTH 480 0
DWIDTH 6 0
BBX 5 11 1 -2
BITMAP
18
18
00
18
18
00
C0
C0
00
C0
C0
ENDCHAR
STARTCHAR BRAILLE
ENCODING -1
SWIDTH 480 0
DWIDTH 6 0
BBX 5 11 1 -2
BITMAP
D8
D8
00
18
18
00
C0
C0
00
C0
C0
ENDCHAR
STARTCHAR BRAILLE
ENCODING -1
SWIDTH 480 0
DWIDTH 6 0
BBX 5 11 1 -2
BITMAP
18
18
00
D8
D8
00
C0
C0
00
C0
C0
ENDCHAR
STARTCHAR BRAILLE
ENCODING -1
SWIDTH 480 0
DWIDTH 6 0
BBX 5 11 1 -2
BITMAP
D8
D8
00
D8
D8
00
C0
C0
00
C0
C0
ENDCHAR
STARTCHAR BRAILLE
ENCODING -1
SWIDTH 480 0
DWIDTH 6 0
BBX 5 5 1 -2
BITMAP
18
18
00
C0
C0
ENDCHAR
STARTCHAR BRAILLE
ENCODING -1
SWIDTH 480 0
DWIDTH 6 0
BBX 5 11 1 -2
BITMAP
C0
C0
00
00
00
00
18
18
00
C0
C0
ENDCHAR
STARTCHAR BRAILLE
ENCODING -1
SWIDTH 480 0
DWIDTH 6 0
BBX 5 8 1 -2
BITMAP
C0
C0
00
18
18
00
C0
C0
ENDCHAR
STARTCHAR BRAILLE
ENCODING -1
SWIDTH 480 0
DWIDTH 6 0
BBX 5 11 1 -2
BITMAP
C0
C0
00
C0
C0
00
18
18
00
C0
C0
ENDCHAR
STARTCHAR BRAILLE
ENCODING -1
SWIDTH 480 0
DWIDTH 6 0
BBX 5 5 1 -2
BITMAP
D8
D8
00
C0
C0
ENDCHAR
STARTCHAR BRAILLE
ENCODING -1
SWIDTH 480 0
DWIDTH 6 0
BBX 5 11 1 -2
BITMAP
C0
C0
00
00
00
00
D8
D8
00
C0
C0
ENDCHAR
STARTCHAR BRAILLE
ENCODING -1
SWIDTH 480 0
DWIDTH 6 0
BBX 5 8 1 -2
BITMAP
C0
C0
00
D8
D8
00
C0
C0
ENDCHAR
STARTCHAR BRAILLE
ENCODING -1
SWIDTH 480 0
DWIDTH 6 0
BBX 5 11 1 -2
BITMAP
C0
C0
00
C0
C0
00
D8
D8
00
C0
C0
ENDCHAR
STARTCHAR BRAILLE
ENCODING -1
SWIDTH 480 0
DWIDTH 6 0
BBX 5 11 1 -2
BITMAP
18
18
00
00
00
00
18
18
00
C0
C0
ENDCHAR
STARTCHAR BRAILLE
ENCODING -1
SWIDTH 480 0
DWIDTH 6 0
BBX 5 11 1 -2
BITMAP
D8
D8
00
00
00
00
18
18
00
C0
C0
ENDCHAR
STARTCHAR BRAILLE
ENCODING -1
SWIDTH 480 0
DWIDTH 6 0
BBX 5 11 1 -2
BITMAP
18
18
00
C0
C0
00
18
18
00
C0
C0
ENDCHAR
STARTCHAR BRAILLE
ENCODING -1
SWIDTH 480 0
DWIDTH 6 0
BBX 5 11 1 -2
BITMAP
D8
D8
00
C0
C0
00
18
18
00
C0
C0
ENDCHAR
STARTCHAR BRAILLE
ENCODING -1
SWIDTH 480 0
DWIDTH 6 0
BBX 5 11 1 -2
BITMAP
18
18
00
00
00
00
D8
D8
00
C0
C0
ENDCHAR
STARTCHAR BRAILLE
ENCODING -1
SWIDTH 480 0
DWIDTH 6 0
BBX 5 11 1 -2
BITMAP
D8
D8
00
00
00
00
D8
D8
00
C0
C0
ENDCHAR
STARTCHAR BRAILLE
ENCODING -1
SWIDTH 480 0
DWIDTH 6 0
BBX 5 11 1 -2
BITMAP
18
18
00
C0
C0
00
D8
D8
00
C0
C0
ENDCHAR
STARTCHAR BRAILLE
ENCODING -1
SWIDTH 480 0
DWIDTH 6 0
BBX 5 11 1 -2
BITMAP
D8
D8
00
C0
C0
00
D8
D8
00
C0
C0
ENDCHAR
STARTCHAR BRAILLE
ENCODING -1
SWIDTH 480 0
DWIDTH 6 0
BBX 5 8 1 -2
BITMAP
18
18
00
18
18
00
C0
C0
ENDCHAR
STARTCHAR BRAILLE
ENCODING -1
SWIDTH 480 0
DWIDTH 6 0
BBX 5 11 1 -2
BITMAP
C0
C0
00
18
18
00
18
18
00
C0
C0
ENDCHAR
STARTCHAR BRAILLE
ENCODING -1
SWIDTH 480 0
DWIDTH 6 0
BBX 5 8 1 -2
BITMAP
D8
D8
00
18
18
00
C0
C0
ENDCHAR
STARTCHAR BRAILLE
ENCODING -1
SWIDTH 480 0
DWIDTH 6 0
BBX 5 11 1 -2
BITMAP
C0
C0
00
D8
D8
00
18
18
00
C0
C0
ENDCHAR
STARTCHAR BRAILLE
ENCODING -1
SWIDTH 480 0
DWIDTH 6 0
BBX 5 8 1 -2
BITMAP
18
18
00
D8
D8
00
C0
C0
ENDCHAR
STARTCHAR BRAILLE
ENCODING -1
SWIDTH 480 0
DWIDTH 6 0
BBX 5 11 1 -2
BITMAP
C0
C0
00
18
18
00
D8
D8
00
C0
C0
ENDCHAR
STARTCHAR BRAILLE
ENCODING -1
SWIDTH 480 0
DWIDTH 6 0
BBX 5 8 1 -2
BITMAP
D8
D8
00
D8
D8
00
C0
C0
ENDCHAR
STARTCHAR BRAILLE
ENCODING -1
SWIDTH 480 0
DWIDTH 6 0
BBX 5 11 1 -2
BITMAP
C0
C0
00
D8
D8
00
D8
D8
00
C0
C0
ENDCHAR
STARTCHAR BRAILLE
ENCODING -1
SWIDTH 480 0
DWIDTH 6 0
BBX 5 11 1 -2
BITMAP
18
18
00
18
18
00
18
18
00
C0
C0
ENDCHAR
STARTCHAR BRAILLE
ENCODING -1
SWIDTH 480 0
DWIDTH 6 0
BBX 5 11 1 -2
BITMAP
D8
D8
00
18
18
00
18
18
00
C0
C0
ENDCHAR
STARTCHAR BRAILLE
ENCODING -1
SWIDTH 480 0
DWIDTH 6 0
BBX 5 11 1 -2
BITMAP
18
18
00
D8
D8
00
18
18
00
C0
C0
ENDCHAR
STARTCHAR BRAILLE
ENCODING -1
SWIDTH 480 0
DWIDTH 6 0
BBX 5 11 1 -2
BITMAP
D8
D8
00
D8
D8
00
18
18
00
C0
C0
ENDCHAR
STARTCHAR BRAILLE
ENCODING -1
SWIDTH 480 0
DWIDTH 6 0
BBX 5 11 1 -2
BITMAP
18
18
00
18
18
00
D8
D8
00
C0
C0
ENDCHAR
STARTCHAR BRAILLE
ENCODING -1
SWIDTH 480 0
DWIDTH 6 0
BBX 5 11 1 -2
BITMAP
D8
D8
00
18
18
00
D8
D8
00
C0
C0
ENDCHAR
STARTCHAR BRAILLE
ENCODING -1
SWIDTH 480 0
DWIDTH 6 0
BBX 5 11 1 -2
BITMAP
18
18
00
D8
D8
00
D8
D8
00
C0
C0
ENDCHAR
STARTCHAR BRAILLE
ENCODING -1
SWIDTH 480 0
DWIDTH 6 0
BBX 5 11 1 -2
BITMAP
D8
D8
00
D8
D8
00
D8
D8
00
C0
C0
ENDCHAR
STARTCHAR BRAILLE
ENCODING -1
SWIDTH 480 0
DWIDTH 6 0
BBX 2 2 4 -2
BITMAP
C0
C0
ENDCHAR
STARTCHAR BRAILLE
ENCODING -1
SWIDTH 480 0
DWIDTH 6 0
BBX 5 11 1 -2
BITMAP
C0
C0
00
00
00
00
00
00
00
18
18
ENDCHAR
STARTCHAR BRAILLE
ENCODING -1
SWIDTH 480 0
DWIDTH 6 0
BBX 5 8 1 -2
BITMAP
C0
C0
00
00
00
00
18
18
ENDCHAR
STARTCHAR BRAILLE
ENCODING -1
SWIDTH 480 0
DWIDTH 6 0
BBX 5 11 1 -2
BITMAP
C0
C0
00
C0
C0
00
00
00
00
18
18
ENDCHAR
STARTCHAR BRAILLE
ENCODING -1
SWIDTH 480 0
DWIDTH 6 0
BBX 5 5 1 -2
BITMAP
C0
C0
00
18
18
ENDCHAR
STARTCHAR BRAILLE
ENCODING -1
SWIDTH 480 0
DWIDTH 6 0
BBX 5 11 1 -2
BITMAP
C0
C0
00
00
00
00
C0
C0
00
18
18
ENDCHAR
STARTCHAR BRAILLE
ENCODING -1
SWIDTH 480 0
DWIDTH 6 0
BBX 5 8 1 -2
BITMAP
C0
C0
00
C0
C0
00
18
18
ENDCHAR
STARTCHAR BRAILLE
ENCODING -1
SWIDTH 480 0
DWIDTH 6 0
BBX 5 11 1 -2
BITMAP
C0
C0
00
C0
C0
00
C0
C0
00
18
18
ENDCHAR
STARTCHAR BRAILLE
ENCODING -1
SWIDTH 480 0
DWIDTH 6 0
BBX 2 11 4 -2
BITMAP
C0
C0
00
00
00
00
00
00
00
C0
C0
ENDCHAR
STARTCHAR BRAILLE
ENCODING -1
SWIDTH 480 0
DWIDTH 6 0
BBX 5 11 1 -2
BITMAP
D8
D8
00
00
00
00
00
00
00
18
18
ENDCHAR
STARTCHAR BRAILLE
ENCODING -1
SWIDTH 480 0
DWIDTH 6 0
BBX 5 11 1 -2
BITMAP
18
18
00
C0
C0
00
00
00
00
18
18
ENDCHAR
STARTCHAR BRAILLE
ENCODING -1
SWIDTH 480 0
DWIDTH 6 0
BBX 5 11 1 -2
BITMAP
D8
D8
00
C0
C0
00
00
00
00
18
18
ENDCHAR
STARTCHAR BRAILLE
ENCODING -1
SWIDTH 480 0
DWIDTH 6 0
BBX 5 11 1 -2
BITMAP
18
18
00
00
00
00
C0
C0
00
18
18
ENDCHAR
STARTCHAR BRAILLE
ENCODING -1
SWIDTH 480 0
DWIDTH 6 0
BBX 5 11 1 -2
BITMAP
D8
D8
00
00
00
00
C0
C0
00
18
18
ENDCHAR
STARTCHAR BRAILLE
ENCODING -1
SWIDTH 480 0
DWIDTH 6 0
BBX 5 11 1 -2
BITMAP
18
18
00
C0
C0
00
C0
C0
00
18
18
ENDCHAR
STARTCHAR BRAILLE
ENCODING -1
SWIDTH 480 0
DWIDTH 6 0
BBX 5 11 1 -2
BITMAP
D8
D8
00
C0
C0
00
C0
C0
00
18
18
ENDCHAR
STARTCHAR BRAILLE
ENCODING -1
SWIDTH 480 0
DWIDTH 6 0
BBX 2 8 4 -2
BITMAP
C0
C0
00
00
00
00
C0
C0
ENDCHAR
STARTCHAR BRAILLE
ENCODING -1
SWIDTH 480 0
DWIDTH 6 0
BBX 5 11 1 -2
BITMAP
C0
C0
00
18
18
00
00
00
00
18
18
ENDCHAR
STARTCHAR BRAILLE
ENCODING -1
SWIDTH 480 0
DWIDTH 6 0
BBX 5 8 1 -2
BITMAP
D8
D8
00
00
00
00
18
18
ENDCHAR
STARTCHAR BRAILLE
ENCODING -1
SWIDTH 480 0
DWIDTH 6 0
BBX 5 11 1 -2
BITMAP
C0
C0
00
D8
D8
00
00
00
00
18
18
ENDCHAR
STARTCHAR BRAILLE
ENCODING -1
SWIDTH 480 0
DWIDTH 6 0
BBX 5 8 1 -2
BITMAP
18
18
00
C0
C0
00
18
18
ENDCHAR
STARTCHAR BRAILLE
ENCODING -1
SWIDTH 480 0
DWIDTH 6 0
BBX 5 11 1 -2
BITMAP
C0
C0
00
18
18
00
C0
C0
00
18
18
ENDCHAR
STARTCHAR BRAILLE
ENCODING -1
SWIDTH 480 0
DWIDTH 6 0
BBX 5 8 1 -2
BITMAP
D8
D8
00
C0
C0
00
18
18
ENDCHAR
STARTCHAR BRAILLE
ENCODING -1
SWIDTH 480 0
DWIDTH 6 0
BBX 5 11 1 -2
BITMAP
C0
C0
00
D8
D8
00
C0
C0
00
18
18
ENDCHAR
STARTCHAR BRAILLE
ENCODING -1
SWIDTH 480 0
DWIDTH 6 0
BBX 2 11 4 -2
BITMAP
C0
C0
00
C0
C0
00
00
00
00
C0
C0
ENDCHAR
STARTCHAR BRAILLE
ENCODING -1
SWIDTH 480 0
DWIDTH 6 0
BBX 5 11 1 -2
BITMAP
D8
D8
00
18
18
00
00
00
00
18
18
ENDCHAR
STARTCHAR BRAILLE
ENCODING -1
SWIDTH 480 0
DWIDTH 6 0
BBX 5 11 1 -2
BITMAP
18
18
00
D8
D8
00
00
00
00
18
18
ENDCHAR
STARTCHAR BRAILLE
ENCODING -1
SWIDTH 480 0
DWIDTH 6 0
BBX 5 11 1 -2
BITMAP
D8
D8
00
D8
D8
00
00
00
00
18
18
ENDCHAR
STARTCHAR BRAILLE
ENCODING -1
SWIDTH 480 0
DWIDTH 6 0
BBX 5 11 1 -2
BITMAP
18
18
00
18
18
00
C0
C0
00
18
18
ENDCHAR
STARTCHAR BRAILLE
ENCODING -1
SWIDTH 480 0
DWIDTH 6 0
BBX 5 11 1 -2
BITMAP
D8
D8
00
18
18
00
C0
C0
00
18
18
ENDCHAR
STARTCHAR BRAILLE
ENCODING -1
SWIDTH 480 0
DWIDTH 6 0
BBX 5 11 1 -2
BITMAP
18
18
00
D8
D8
00
C0
C0
00
18
18
ENDCHAR
STARTCHAR BRAILLE
ENCODING -1
SWIDTH 480 0
DWIDTH 6 0
BBX 5 11 1 -2
BITMAP
D8
D8
00
D8
D8
00
C0
C0
00
18
18
ENDCHAR
STARTCHAR BRAILLE
ENCODING -1
SWIDTH 480 0
DWIDTH 6 0
BBX 2 5 4 -2
BITMAP
C0
C0
00
C0
C0
ENDCHAR
STARTCHAR BRAILLE
ENCODING -1
SWIDTH 480 0
DWIDTH 6 0
BBX 5 11 1 -2
BITMAP
C0
C0
00
00
00
00
18
18
00
18
18
ENDCHAR
STARTCHAR BRAILLE
ENCODING -1
SWIDTH 480 0
DWIDTH 6 0
BBX 5 8 1 -2
BITMAP
C0
C0
00
18
18
00
18
18
ENDCHAR
STARTCHAR BRAILLE
ENCODING -1
SWIDTH 480 0
DWIDTH 6 0
BBX 5 11 1 -2
BITMAP
C0
C0
00
C0
C0
00
18
18
00
18
18
ENDCHAR
STARTCHAR BRAILLE
ENCODING -1
SWIDTH 480 0
DWIDTH 6 0
BBX 5 5 1 -2
BITMAP
D8
D8
00
18
18
ENDCHAR
STARTCHAR BRAILLE
ENCODING -1
SWIDTH 480 0
DWIDTH 6 0
BBX 5 11 1 -2
BITMAP
C0
C0
00
00
00
00
D8
D8
00
18
18
ENDCHAR
STARTCHAR BRAILLE
ENCODING -1
SWIDTH 480 0
DWIDTH 6 0
BBX 5 8 1 -2
BITMAP
C0
C0
00
D8
D8
00
18
18
ENDCHAR
STARTCHAR BRAILLE
ENCODING -1
SWIDTH 480 0
DWIDTH 6 0
BBX 5 11 1 -2
BITMAP
C0
C0
00
C0
C0
00
D8
D8
00
18
18
ENDCHAR
STARTCHAR BRAILLE
ENCODING -1
SWIDTH 480 0
DWIDTH 6 0
BBX 2 11 4 -2
BITMAP
C0
C0
00
00
00
00
C0
C0
00
C0
C0
ENDCHAR
STARTCHAR BRAILLE
ENCODING -1
SWIDTH 480 0
DWIDTH 6 0
BBX 5 11 1 -2
BITMAP
D8
D8
00
00
00
00
18
18
00
18
18
ENDCHAR
STARTCHAR BRAILLE
ENCODING -1
SWIDTH 480 0
DWIDTH 6 0
BBX 5 11 1 -2
BITMAP
18
18
00
C0
C0
00
18
18
00
18
18
ENDCHAR
STARTCHAR BRAILLE
ENCODING -1
SWIDTH 480 0
DWIDTH 6 0
BBX 5 11 1 -2
BITMAP
D8
D8
00
C0
C0
00
18
18
00
18
18
ENDCHAR
STARTCHAR BRAILLE
ENCODING -1
SWIDTH 480 0
DWIDTH 6 0
BBX 5 11 1 -2
BITMAP
18
18
00
00
00
00
D8
D8
00
18
18
ENDCHAR
STARTCHAR BRAILLE
ENCODING -1
SWIDTH 480 0
DWIDTH 6 0
BBX 5 11 1 -2
BITMAP
D8
D8
00
00
00
00
D8
D8
00
18
18
ENDCHAR
STARTCHAR BRAILLE
ENCODING -1
SWIDTH 480 0
DWIDTH 6 0
BBX 5 11 1 -2
BITMAP
18
18
00
C0
C0
00
D8
D8
00
18
18
ENDCHAR
STARTCHAR BRAILLE
ENCODING -1
SWIDTH 480 0
DWIDTH 6 0
BBX 5 11 1 -2
BITMAP
D8
D8
00
C0
C0
00
D8
D8
00
18
18
ENDCHAR
STARTCHAR BRAILLE
ENCODING -1
SWIDTH 480 0
DWIDTH 6 0
BBX 2 8 4 -2
BITMAP
C0
C0
00
C0
C0
00
C0
C0
ENDCHAR
STARTCHAR BRAILLE
ENCODING -1
SWIDTH 480 0
DWIDTH 6 0
BBX 5 11 1 -2
BITMAP
C0
C0
00
18
18
00
18
18
00
18
18
ENDCHAR
STARTCHAR BRAILLE
ENCODING -1
SWIDTH 480 0
DWIDTH 6 0
BBX 5 8 1 -2
BITMAP
D8
D8
00
18
18
00
18
18
ENDCHAR
STARTCHAR BRAILLE
ENCODING -1
SWIDTH 480 0
DWIDTH 6 0
BBX 5 11 1 -2
BITMAP
C0
C0
00
D8
D8
00
18
18
00
18
18
ENDCHAR
STARTCHAR BRAILLE
ENCODING -1
SWIDTH 480 0
DWIDTH 6 0
BBX 5 8 1 -2
BITMAP
18
18
00
D8
D8
00
18
18
ENDCHAR
STARTCHAR BRAILLE
ENCODING -1
SWIDTH 480 0
DWIDTH 6 0
BBX 5 11 1 -2
BITMAP
C0
C0
00
18
18
00
D8
D8
00
18
18
ENDCHAR
STARTCHAR BRAILLE
ENCODING -1
SWIDTH 480 0
DWIDTH 6 0
BBX 5 8 1 -2
BITMAP
D8
D8
00
D8
D8
00
18
18
ENDCHAR
STARTCHAR BRAILLE
ENCODING -1
SWIDTH 480 0
DWIDTH 6 0
BBX 5 11 1 -2
BITMAP
C0
C0
00
D8
D8
00
D8
D8
00
18
18
ENDCHAR
STARTCHAR BRAILLE
ENCODING -1
SWIDTH 480 0
DWIDTH 6 0
BBX 2 11 4 -2
BITMAP
C0
C0
00
C0
C0
00
C0
C0
00
C0
C0
ENDCHAR
STARTCHAR BRAILLE
ENCODING -1
SWIDTH 480 0
DWIDTH 6 0
BBX 5 11 1 -2
BITMAP
D8
D8
00
18
18
00
18
18
00
18
18
ENDCHAR
STARTCHAR BRAILLE
ENCODING -1
SWIDTH 480 0
DWIDTH 6 0
BBX 5 11 1 -2
BITMAP
18
18
00
D8
D8
00
18
18
00
18
18
ENDCHAR
STARTCHAR BRAILLE
ENCODING -1
SWIDTH 480 0
DWIDTH 6 0
BBX 5 11 1 -2
BITMAP
D8
D8
00
D8
D8
00
18
18
00
18
18
ENDCHAR
STARTCHAR BRAILLE
ENCODING -1
SWIDTH 480 0
DWIDTH 6 0
BBX 5 11 1 -2
BITMAP
18
18
00
18
18
00
D8
D8
00
18
18
ENDCHAR
STARTCHAR BRAILLE
ENCODING -1
SWIDTH 480 0
DWIDTH 6 0
BBX 5 11 1 -2
BITMAP
D8
D8
00
18
18
00
D8
D8
00
18
18
ENDCHAR
STARTCHAR BRAILLE
ENCODING -1
SWIDTH 480 0
DWIDTH 6 0
BBX 5 11 1 -2
BITMAP
18
18
00
D8
D8
00
D8
D8
00
18
18
ENDCHAR
STARTCHAR BRAILLE
ENCODING -1
SWIDTH 480 0
DWIDTH 6 0
BBX 5 11 1 -2
BITMAP
D8
D8
00
D8
D8
00
D8
D8
00
18
18
ENDCHAR
STARTCHAR BRAILLE
ENCODING -1
SWIDTH 480 0
DWIDTH 6 0
BBX 5 2 1 -2
BITMAP
D8
D8
ENDCHAR
STARTCHAR BRAILLE
ENCODING -1
SWIDTH 480 0
DWIDTH 6 0
BBX 5 11 1 -2
BITMAP
C0
C0
00
00
00
00
00
00
00
D8
D8
ENDCHAR
STARTCHAR BRAILLE
ENCODING -1
SWIDTH 480 0
DWIDTH 6 0
BBX 5 8 1 -2
BITMAP
C0
C0
00
00
00
00
D8
D8
ENDCHAR
STARTCHAR BRAILLE
ENCODING -1
SWIDTH 480 0
DWIDTH 6 0
BBX 5 11 1 -2
BITMAP
C0
C0
00
C0
C0
00
00
00
00
D8
D8
ENDCHAR
STARTCHAR BRAILLE
ENCODING -1
SWIDTH 480 0
DWIDTH 6 0
BBX 5 5 1 -2
BITMAP
C0
C0
00
D8
D8
ENDCHAR
STARTCHAR BRAILLE
ENCODING -1
SWIDTH 480 0
DWIDTH 6 0
BBX 5 11 1 -2
BITMAP
C0
C0
00
00
00
00
C0
C0
00
D8
D8
ENDCHAR
STARTCHAR BRAILLE
ENCODING -1
SWIDTH 480 0
DWIDTH 6 0
BBX 5 8 1 -2
BITMAP
C0
C0
00
C0
C0
00
D8
D8
ENDCHAR
STARTCHAR BRAILLE
ENCODING -1
SWIDTH 480 0
DWIDTH 6 0
BBX 5 11 1 -2
BITMAP
C0
C0
00
C0
C0
00
C0
C0
00
D8
D8
ENDCHAR
STARTCHAR BRAILLE
ENCODING -1
SWIDTH 480 0
DWIDTH 6 0
BBX 5 11 1 -2
BITMAP
18
18
00
00
00
00
00
00
00
D8
D8
ENDCHAR
STARTCHAR BRAILLE
ENCODING -1
SWIDTH 480 0
DWIDTH 6 0
BBX 5 11 1 -2
BITMAP
D8
D8
00
00
00
00
00
00
00
D8
D8
ENDCHAR
STARTCHAR BRAILLE
ENCODING -1
SWIDTH 480 0
DWIDTH 6 0
BBX 5 11 1 -2
BITMAP
18
18
00
C0
C0
00
00
00
00
D8
D8
ENDCHAR
STARTCHAR BRAILLE
ENCODING -1
SWIDTH 480 0
DWIDTH 6 0
BBX 5 11 1 -2
BITMAP
D8
D8
00
C0
C0
00
00
00
00
D8
D8
ENDCHAR
STARTCHAR BRAILLE
ENCODING -1
SWIDTH 480 0
DWIDTH 6 0
BBX 5 11 1 -2
BITMAP
18
18
00
00
00
00
C0
C0
00
D8
D8
ENDCHAR
STARTCHAR BRAILLE
ENCODING -1
SWIDTH 480 0
DWIDTH 6 0
BBX 5 11 1 -2
BITMAP
D8
D8
00
00
00
00
C0
C0
00
D8
D8
ENDCHAR
STARTCHAR BRAILLE
ENCODING -1
SWIDTH 480 0
DWIDTH 6 0
BBX 5 11 1 -2
BITMAP
18
18
00
C0
C0
00
C0
C0
00
D8
D8
ENDCHAR
STARTCHAR BRAILLE
ENCODING -1
SWIDTH 480 0
DWIDTH 6 0
BBX 5 11 1 -2
BITMAP
D8
D8
00
C0
C0
00
C0
C0
00
D8
D8
ENDCHAR
STARTCHAR BRAILLE
ENCODING -1
SWIDTH 480 0
DWIDTH 6 0
BBX 5 8 1 -2
BITMAP
18
18
00
00
00
00
D8
D8
ENDCHAR
STARTCHAR BRAILLE
ENCODING -1
SWIDTH 480 0
DWIDTH 6 0
BBX 5 11 1 -2
BITMAP
C0
C0
00
18
18
00
00
00
00
D8
D8
ENDCHAR
STARTCHAR BRAILLE
ENCODING -1
SWIDTH 480 0
DWIDTH 6 0
BBX 5 8 1 -2
BITMAP
D8
D8
00
00
00
00
D8
D8
ENDCHAR
STARTCHAR BRAILLE
ENCODING -1
SWIDTH 480 0
DWIDTH 6 0
BBX 5 11 1 -2
BITMAP
C0
C0
00
D8
D8
00
00
00
00
D8
D8
ENDCHAR
STARTCHAR BRAILLE
ENCODING -1
SWIDTH 480 0
DWIDTH 6 0
BBX 5 8 1 -2
BITMAP
18
18
00
C0
C0
00
D8
D8
ENDCHAR
STARTCHAR BRAILLE
ENCODING -1
SWIDTH 480 0
DWIDTH 6 0
BBX 5 11 1 -2
BITMAP
C0
C0
00
18
18
00
C0
C0
00
D8
D8
ENDCHAR
STARTCHAR BRAILLE
ENCODING -1
SWIDTH 480 0
DWIDTH 6 0
BBX 5 8 1 -2
BITMAP
D8
D8
00
C0
C0
00
D8
D8
ENDCHAR
STARTCHAR BRAILLE
ENCODING -1
SWIDTH 480 0
DWIDTH 6 0
BBX 5 11 1 -2
BITMAP
C0
C0
00
D8
D8
00
C0
C0
00
D8
D8
ENDCHAR
STARTCHAR BRAILLE
ENCODING -1
SWIDTH 480 0
DWIDTH 6 0
BBX 5 11 1 -2
BITMAP
18
18
00
18
18
00
00
00
00
D8
D8
ENDCHAR
STARTCHAR BRAILLE
ENCODING -1
SWIDTH 480 0
DWIDTH 6 0
BBX 5 11 1 -2
BITMAP
D8
D8
00
18
18
00
00
00
00
D8
D8
ENDCHAR
STARTCHAR BRAILLE
ENCODING -1
SWIDTH 480 0
DWIDTH 6 0
BBX 5 11 1 -2
BITMAP
18
18
00
D8
D8
00
00
00
00
D8
D8
ENDCHAR
STARTCHAR BRAILLE
ENCODING -1
SWIDTH 480 0
DWIDTH 6 0
BBX 5 11 1 -2
BITMAP
D8
D8
00
D8
D8
00
00
00
00
D8
D8
ENDCHAR
STARTCHAR BRAILLE
ENCODING -1
SWIDTH 480 0
DWIDTH 6 0
BBX 5 11 1 -2
BITMAP
18
18
00
18
18
00
C0
C0
00
D8
D8
ENDCHAR
STARTCHAR BRAILLE
ENCODING -1
SWIDTH 480 0
DWIDTH 6 0
BBX 5 11 1 -2
BITMAP
D8
D8
00
18
18
00
C0
C0
00
D8
D8
ENDCHAR
STARTCHAR BRAILLE
ENCODING -1
SWIDTH 480 0
DWIDTH 6 0
BBX 5 11 1 -2
BITMAP
18
18
00
D8
D8
00
C0
C0
00
D8
D8
ENDCHAR
STARTCHAR BRAILLE
ENCODING -1
SWIDTH 480 0
DWIDTH 6 0
BBX 5 11 1 -2
BITMAP
D8
D8
00
D8
D8
00
C0
C0
00
D8
D8
ENDCHAR
STARTCHAR BRAILLE
ENCODING -1
SWIDTH 480 0
DWIDTH 6 0
BBX 5 5 1 -2
BITMAP
18
18
00
D8
D8
ENDCHAR
STARTCHAR BRAILLE
ENCODING -1
SWIDTH 480 0
DWIDTH 6 0
BBX 5 11 1 -2
BITMAP
C0
C0
00
00
00
00
18
18
00
D8
D8
ENDCHAR
STARTCHAR BRAILLE
ENCODING -1
SWIDTH 480 0
DWIDTH 6 0
BBX 5 8 1 -2
BITMAP
C0
C0
00
18
18
00
D8
D8
ENDCHAR
STARTCHAR BRAILLE
ENCODING -1
SWIDTH 480 0
DWIDTH 6 0
BBX 5 11 1 -2
BITMAP
C0
C0
00
C0
C0
00
18
18
00
D8
D8
ENDCHAR
STARTCHAR BRAILLE
ENCODING -1
SWIDTH 480 0
DWIDTH 6 0
BBX 5 5 1 -2
BITMAP
D8
D8
00
D8
D8
ENDCHAR
STARTCHAR BRAILLE
ENCODING -1
SWIDTH 480 0
DWIDTH 6 0
BBX 5 11 1 -2
BITMAP
C0
C0
00
00
00
00
D8
D8
00
D8
D8
ENDCHAR
STARTCHAR BRAILLE
ENCODING -1
SWIDTH 480 0
DWIDTH 6 0
BBX 5 8 1 -2
BITMAP
C0
C0
00
D8
D8
00
D8
D8
ENDCHAR
STARTCHAR BRAILLE
ENCODING -1
SWIDTH 480 0
DWIDTH 6 0
BBX 5 11 1 -2
BITMAP
C0
C0
00
C0
C0
00
D8
D8
00
D8
D8
ENDCHAR
STARTCHAR BRAILLE
ENCODING -1
SWIDTH 480 0
DWIDTH 6 0
BBX 5 11 1 -2
BITMAP
18
18
00
00
00
00
18
18
00
D8
D8
ENDCHAR
STARTCHAR BRAILLE
ENCODING -1
SWIDTH 480 0
DWIDTH 6 0
BBX 5 11 1 -2
BITMAP
D8
D8
00
00
00
00
18
18
00
D8
D8
ENDCHAR
STARTCHAR BRAILLE
ENCODING -1
SWIDTH 480 0
DWIDTH 6 0
BBX 5 11 1 -2
BITMAP
18
18
00
C0
C0
00
18
18
00
D8
D8
ENDCHAR
STARTCHAR BRAILLE
ENCODING -1
SWIDTH 480 0
DWIDTH 6 0
BBX 5 11 1 -2
BITMAP
D8
D8
00
C0
C0
00
18
18
00
D8
D8
ENDCHAR
STARTCHAR BRAILLE
ENCODING -1
SWIDTH 480 0
DWIDTH 6 0
BBX 5 11 1 -2
BITMAP
18
18
00
00
00
00
D8
D8
00
D8
D8
ENDCHAR
STARTCHAR BRAILLE
ENCODING -1
SWIDTH 480 0
DWIDTH 6 0
BBX 5 11 1 -2
BITMAP
D8
D8
00
00
00
00
D8
D8
00
D8
D8
ENDCHAR
STARTCHAR BRAILLE
ENCODING -1
SWIDTH 480 0
DWIDTH 6 0
BBX 5 11 1 -2
BITMAP
18
18
00
C0
C0
00
D8
D8
00
D8
D8
ENDCHAR
STARTCHAR BRAILLE
ENCODING -1
SWIDTH 480 0
DWIDTH 6 0
BBX 5 11 1 -2
BITMAP
D8
D8
00
C0
C0
00
D8
D8
00
D8
D8
ENDCHAR
STARTCHAR BRAILLE
ENCODING -1
SWIDTH 480 0
DWIDTH 6 0
BBX 5 8 1 -2
BITMAP
18
18
00
18
18
00
D8
D8
ENDCHAR
STARTCHAR BRAILLE
ENCODING -1
SWIDTH 480 0
DWIDTH 6 0
BBX 5 11 1 -2
BITMAP
C0
C0
00
18
18
00
18
18
00
D8
D8
ENDCHAR
STARTCHAR BRAILLE
ENCODING -1
SWIDTH 480 0
DWIDTH 6 0
BBX 5 8 1 -2
BITMAP
D8
D8
00
18
18
00
D8
D8
ENDCHAR
STARTCHAR BRAILLE
ENCODING -1
SWIDTH 480 0
DWIDTH 6 0
BBX 5 11 1 -2
BITMAP
C0
C0
00
D8
D8
00
18
18
00
D8
D8
ENDCHAR
STARTCHAR BRAILLE
ENCODING -1
SWIDTH 480 0
DWIDTH 6 0
BBX 5 8 1 -2
BITMAP
18
18
00
D8
D8
00
D8
D8
ENDCHAR
STARTCHAR BRAILLE
ENCODING -1
SWIDTH 480 0
DWIDTH 6 0
BBX 5 11 1 -2
BITMAP
C0
C0
00
18
18
00
D8
D8
00
D8
D8
ENDCHAR
STARTCHAR BRAILLE
ENCODING -1
SWIDTH 480 0
DWIDTH 6 0
BBX 5 8 1 -2
BITMAP
D8
D8
00
D8
D8
00
D8
D8
ENDCHAR
STARTCHAR BRAILLE
ENCODING -1
SWIDTH 480 0
DWIDTH 6 0
BBX 5 11 1 -2
BITMAP
C0
C0
00
D8
D8
00
D8
D8
00
D8
D8
ENDCHAR
STARTCHAR BRAILLE
ENCODING -1
SWIDTH 480 0
DWIDTH 6 0
BBX 5 11 1 -2
BITMAP
18
18
00
18
18
00
18
18
00
D8
D8
ENDCHAR
STARTCHAR BRAILLE
ENCODING -1
SWIDTH 480 0
DWIDTH 6 0
BBX 5 11 1 -2
BITMAP
D8
D8
00
18
18
00
18
18
00
D8
D8
ENDCHAR
STARTCHAR BRAILLE
ENCODING -1
SWIDTH 480 0
DWIDTH 6 0
BBX 5 11 1 -2
BITMAP
18
18
00
D8
D8
00
18
18
00
D8
D8
ENDCHAR
STARTCHAR BRAILLE
ENCODING -1
SWIDTH 480 0
DWIDTH 6 0
BBX 5 11 1 -2
BITMAP
D8
D8
00
D8
D8
00
18
18
00
D8
D8
ENDCHAR
STARTCHAR BRAILLE
ENCODING -1
SWIDTH 480 0
DWIDTH 6 0
BBX 5 11 1 -2
BITMAP
18
18
00
18
18
00
D8
D8
00
D8
D8
ENDCHAR
STARTCHAR BRAILLE
ENCODING -1
SWIDTH 480 0
DWIDTH 6 0
BBX 5 11 1 -2
BITMAP
D8
D8
00
18
18
00
D8
D8
00
D8
D8
ENDCHAR
STARTCHAR BRAILLE
ENCODING -1
SWIDTH 480 0
DWIDTH 6 0
BBX 5 11 1 -2
BITMAP
18
18
00
D8
D8
00
D8
D8
00
D8
D8
ENDCHAR
STARTCHAR BRAILLE
ENCODING -1
SWIDTH 480 0
DWIDTH 6 0
BBX 5 11 1 -2
BITMAP
D8
D8
00
D8
D8
00
D8
D8
00
D8
D8
ENDCHAR
STARTCHAR CYRILLIC
ENCODING -1
SWIDTH 480 0
DWIDTH 6 0
BBX 5 9 1 -2
BITMAP
F8
08
10
20
40
80
F8
08
70
ENDCHAR
STARTCHAR CYRILLIC
ENCODING -1
SWIDTH 480 0
DWIDTH 6 0
BBX 5 7 1 -2
BITMAP
F8
10
20
40
F8
08
70
ENDCHAR
STARTCHAR CYRILLIC
ENCODING -1
SWIDTH 480 0
DWIDTH 6 0
BBX 5 9 1 -2
BITMAP
F8
08
10
F8
40
80
F8
08
70
ENDCHAR
STARTCHAR CYRILLIC
ENCODING -1
SWIDTH 480 0
DWIDTH 6 0
BBX 5 7 1 -2
BITMAP
F8
10
F8
40
F8
08
70
ENDCHAR
STARTCHAR CYRILLIC
ENCODING -1
SWIDTH 480 0
DWIDTH 6 0
BBX 5 7 1 0
BITMAP
88
50
20
70
A8
88
70
ENDCHAR
STARTCHAR CYRILLIC
ENCODING -1
SWIDTH 480 0
DWIDTH 6 0
BBX 5 8 1 0
BITMAP
88
88
50
20
50
88
88
70
ENDCHAR
STARTCHAR CYRILLIC
ENCODING -1
SWIDTH 480 0
DWIDTH 6 0
BBX 6 7 0 0
BITMAP
C4
44
44
74
4C
4C
74
ENDCHAR
STARTCHAR CYRILLIC
ENCODING -1
SWIDTH 480 0
DWIDTH 6 0
BBX 6 5 0 0
BITMAP
C4
44
74
4C
74
ENDCHAR
STARTCHAR CYRILLIC
ENCODING -1
SWIDTH 480 0
DWIDTH 6 0
BBX 5 7 1 0
BITMAP
90
A8
A8
E8
B8
A8
A8
ENDCHAR
STARTCHAR CYRILLIC
ENCODING -1
SWIDTH 480 0
DWIDTH 6 0
BBX 5 5 1 0
BITMAP
B0
88
F8
C8
B8
ENDCHAR
STARTCHAR LATIN
ENCODING -1
SWIDTH 480 0
DWIDTH 6 0
BBX 5 8 1 -1
BITMAP
88
88
C8
A8
98
88
88
08
ENDCHAR
STARTCHAR LATIN
ENCODING -1
SWIDTH 480 0
DWIDTH 6 0
BBX 5 6 1 -1
BITMAP
F0
88
88
88
88
08
ENDCHAR
STARTCHAR Private
ENCODING -1
SWIDTH 480 0
DWIDTH 6 0
BBX 6 8 0 0
BITMAP
80
80
80
84
88
8C
88
64
ENDCHAR
STARTCHAR char57345
ENCODING -1
SWIDTH 480 0
DWIDTH 6 0
BBX 6 5 0 0
BITMAP
C4
28
E8
08
C4
ENDCHAR
STARTCHAR char57346
ENCODING -1
SWIDTH 480 0
DWIDTH 6 0
BBX 6 7 0 -2
BITMAP
E4
28
28
28
E4
20
C0
ENDCHAR
STARTCHAR char57347
ENCODING -1
SWIDTH 480 0
DWIDTH 6 0
BBX 6 9 0 -2
BITMAP
04
00
EC
24
24
24
E4
20
C0
ENDCHAR
STARTCHAR char57348
ENCODING -1
SWIDTH 480 0
DWIDTH 6 0
BBX 5 5 1 0
BITMAP
70
88
F8
80
70
ENDCHAR
STARTCHAR char57349
ENCODING -1
SWIDTH 480 0
DWIDTH 6 0
BBX 5 7 1 0
BITMAP
F8
D8
00
20
00
88
70
ENDCHAR
STARTCHAR BATTERY
ENCODING -1
SWIDTH 480 0
DWIDTH 6 0
BBX 6 12 0 -2
BITMAP
30
FC
84
84
84
84
84
84
84
84
84
FC
ENDCHAR
STARTCHAR BATTERY
ENCODING -1
SWIDTH 480 0
DWIDTH 6 0
BBX 6 12 0 -2
BITMAP
30
FC
84
84
84
84
84
84
84
84
FC
FC
ENDCHAR
STARTCHAR BATTERY
ENCODING -1
SWIDTH 480 0
DWIDTH 6 0
BBX 6 12 0 -2
BITMAP
30
FC
84
84
84
84
84
84
84
FC
FC
FC
ENDCHAR
STARTCHAR BATTERY
ENCODING -1
SWIDTH 480 0
DWIDTH 6 0
BBX 6 12 0 -2
BITMAP
30
FC
84
84
84
84
84
84
FC
FC
FC
FC
ENDCHAR
STARTCHAR BATTERY
ENCODING -1
SWIDTH 480 0
DWIDTH 6 0
BBX 6 12 0 -2
BITMAP
30
FC
84
84
84
84
84
FC
FC
FC
FC
FC
ENDCHAR
STARTCHAR BATTERY
ENCODING -1
SWIDTH 480 0
DWIDTH 6 0
BBX 6 12 0 -2
BITMAP
30
FC
84
84
84
84
FC
FC
FC
FC
FC
FC
ENDCHAR
STARTCHAR BATTERY
ENCODING -1
SWIDTH 480 0
DWIDTH 6 0
BBX 6 12 0 -2
BITMAP
30
FC
84
84
84
FC
FC
FC
FC
FC
FC
FC
ENDCHAR
STARTCHAR BATTERY
ENCODING -1
SWIDTH 480 0
DWIDTH 6 0
BBX 6 12 0 -2
BITMAP
30
FC
84
84
FC
FC
FC
FC
FC
FC
FC
FC
ENDCHAR
STARTCHAR BATTERY
ENCODING -1
SWIDTH 480 0
DWIDTH 6 0
BBX 6 12 0 -2
BITMAP
30
FC
84
FC
FC
FC
FC
FC
FC
FC
FC
FC
ENDCHAR
STARTCHAR BATTERY
ENCODING -1
SWIDTH 480 0
DWIDTH 6 0
BBX 6 12 0 -2
BITMAP
30
FC
FC
FC
FC
FC
FC
FC
FC
FC
FC
FC
ENDCHAR
STARTCHAR BATTERY
ENCODING -1
SWIDTH 480 0
DWIDTH 6 0
BBX 6 12 0 -2
BITMAP
30
FC
FC
FC
B4
FC
FC
B4
CC
FC
FC
FC
ENDCHAR
STARTCHAR SIGNAL
ENCODING -1
SWIDTH 480 0
DWIDTH 6 0
BBX 5 5 1 0
BITMAP
A8
48
A8
08
F8
ENDCHAR
STARTCHAR SIGNAL
ENCODING -1
SWIDTH 480 0
DWIDTH 6 0
BBX 1 1 1 0
BITMAP
80
ENDCHAR
STARTCHAR SIGNAL
ENCODING -1
SWIDTH 480 0
DWIDTH 6 0
BBX 2 2 1 0
BITMAP
40
C0
ENDCHAR
STARTCHAR SIGNAL
ENCODING -1
SWIDTH 480 0
DWIDTH 6 0
BBX 3 3 1 0
BITMAP
20
60
E0
ENDCHAR
STARTCHAR SIGNAL
ENCODING -1
SWIDTH 480 0
DWIDTH 6 0
BBX 4 4 1 0
BITMAP
10
30
70
F0
ENDCHAR
STARTCHAR SIGNAL
ENCODING -1
SWIDTH 480 0
DWIDTH 6 0
BBX 5 5 1 0
BITMAP
08
18
38
78
F8
ENDCHAR
STARTCHAR VOLUME
ENCODING -1
SWIDTH 480 0
DWIDTH 6 0
BBX 6 11 0 -2
BITMAP
08
04
14
30
74
E8
54
24
54
04
08
ENDCHAR
STARTCHAR VOLUME
ENCODING -1
SWIDTH 480 0
DWIDTH 6 0
BBX 1 1 0 3
BITMAP
80
ENDCHAR
STARTCHAR VOLUME
ENCODING -1
SWIDTH 480 0
DWIDTH 6 0
BBX 3 5 0 1
BITMAP
40
20
A0
20
40
ENDCHAR
STARTCHAR VOLUME
ENCODING -1
SWIDTH 480 0
DWIDTH 6 0
BBX 4 7 0 0
BITMAP
20
10
50
D0
50
10
20
ENDCHAR
STARTCHAR VOLUME
ENCODING -1
SWIDTH 480 0
DWIDTH 6 0
BBX 5 9 0 -1
BITMAP
10
08
28
68
E8
68
28
08
10
ENDCHAR
STARTCHAR VOLUME
ENCODING -1
SWIDTH 480 0
DWIDTH 6 0
BBX 6 11 0 -2
BITMAP
08
04
14
34
74
F4
74
34
14
04
08
ENDCHAR
STARTCHAR MUTED
ENCODING -1
SWIDTH 480 0
DWIDTH 6 0
BBX 5 7 1 -1
BITMAP
68
90
A8
48
98
58
50
ENDCHAR
STARTCHAR HEADPHONES
ENCODING -1
SWIDTH 480 0
DWIDTH 6 0
BBX 5 7 1 -1
BITMAP
70
88
88
88
D8
D8
50
ENDCHAR
STARTCHAR MUTED
ENCODING -1
SWIDTH 480 0
DWIDTH 6 0
BBX 5 9 1 -2
BITMAP
08
10
28
90
A8
48
A8
18
08
ENDCHAR
STARTCHAR SPEAKER
ENCODING -1
SWIDTH 480 0
DWIDTH 6 0
BBX 5 9 1 -2
BITMAP
08
18
28
C8
C8
C8
28
18
08
ENDCHAR
STARTCHAR POWERLINE
ENCODING -1
SWIDTH 480 0
DWIDTH 6 0
BBX 6 12 0 -2
BITMAP
80
80
90
B8
D4
90
90
20
40
80
80
80
ENDCHAR
STARTCHAR POWERLINE
ENCODING -1
SWIDTH 480 0
DWIDTH 6 0
BBX 5 11 1 -2
BITMAP
80
80
80
80
F0
00
48
68
58
48
48
ENDCHAR
STARTCHAR POWERLINE
ENCODING -1
SWIDTH 480 0
DWIDTH 6 0
BBX 5 9 1 -1
BITMAP
70
88
88
F8
D8
D8
F8
F8
70
ENDCHAR
STARTCHAR POWERLINE
ENCODING -1
SWIDTH 480 0
DWIDTH 6 0
BBX 6 12 0 -2
BITMAP
80
C0
E0
F0
F8
FC
FC
F8
F0
E0
C0
80
ENDCHAR
STARTCHAR POWERLINE
ENCODING -1
SWIDTH 480 0
DWIDTH 6 0
BBX 6 12 0 -2
BITMAP
80
40
20
10
08
04
04
08
10
20
40
80
ENDCHAR
STARTCHAR POWERLINE
ENCODING -1
SWIDTH 480 0
DWIDTH 6 0
BBX 6 12 0 -2
BITMAP
04
0C
1C
3C
7C
FC
FC
7C
3C
1C
0C
04
ENDCHAR
STARTCHAR POWERLINE
ENCODING -1
SWIDTH 480 0
DWIDTH 6 0
BBX 6 12 0 -2
BITMAP
04
08
10
20
40
80
80
40
20
10
08
04
ENDCHAR
STARTCHAR KEYBOARD
ENCODING -1
SWIDTH 480 0
DWIDTH 6 0
BBX 5 5 1 0
BITMAP
D8
D8
00
D8
D8
ENDCHAR
STARTCHAR LATIN
ENCODING -1
SWIDTH 480 0
DWIDTH 6 0
BBX 5 8 1 0
BITMAP
60
88
80
D8
88
88
88
88
ENDCHAR
STARTCHAR LATIN
ENCODING -1
SWIDTH 480 0
DWIDTH 6 0
BBX 5 8 1 0
BITMAP
70
90
90
D0
90
90
90
88
ENDCHAR
STARTCHAR DEC
ENCODING -1
SWIDTH 480 0
DWIDTH 6 0
BBX 6 1 0 9
BITMAP
FC
ENDCHAR
STARTCHAR DEC
ENCODING -1
SWIDTH 480 0
DWIDTH 6 0
BBX 6 1 0 6
BITMAP
FC
ENDCHAR
STARTCHAR DEC
ENCODING -1
SWIDTH 480 0
DWIDTH 6 0
BBX 6 1 0 1
BITMAP
FC
ENDCHAR
STARTCHAR DEC
ENCODING -1
SWIDTH 480 0
DWIDTH 6 0
BBX 6 1 0 -2
BITMAP
FC
ENDCHAR
STARTCHAR KEYBOARD
ENCODING -1
SWIDTH 480 0
DWIDTH 6 0
BBX 5 5 1 0
BITMAP
D8
D8
00
D8
D8
ENDCHAR
STARTCHAR KEYBOARD
ENCODING -1
SWIDTH 480 0
DWIDTH 6 0
BBX 5 5 1 0
BITMAP
F8
00
F8
00
F8
ENDCHAR
STARTCHAR KEYBOARD
ENCODING -1
SWIDTH 480 0
DWIDTH 6 0
BBX 6 8 0 0
BITMAP
10
10
78
84
88
88
84
78
ENDCHAR
STARTCHAR KEYBOARD
ENCODING -1
SWIDTH 480 0
DWIDTH 6 0
BBX 6 8 0 0
BITMAP
10
10
78
FC
F8
F8
FC
78
ENDCHAR
STARTCHAR Private
ENCODING -1
SWIDTH 480 0
DWIDTH 6 0
BBX 6 8 0 0
BITMAP
10
10
78
FC
F8
F8
FC
78
ENDCHAR
STARTCHAR LATIN
ENCODING -1
SWIDTH 480 0
DWIDTH 6 0
BBX 5 8 1 0
BITMAP
68
90
90
D8
90
90
90
90
ENDCHAR
STARTCHAR LATIN
ENCODING -1
SWIDTH 480 0
DWIDTH 6 0
BBX 5 8 1 0
BITMAP
60
88
80
D8
88
88
88
88
ENDCHAR
STARTCHAR LATIN
ENCODING -1
SWIDTH 480 0
DWIDTH 6 0
BBX 5 8 1 0
BITMAP
70
90
90
D0
90
90
90
88
ENDCHAR
STARTCHAR LATIN
ENCODING -1
SWIDTH 480 0
DWIDTH 6 0
BBX 5 8 1 0
BITMAP
78
A0
A0
F8
A8
A8
A8
A8
ENDCHAR
STARTCHAR LATIN
ENCODING -1
SWIDTH 480 0
DWIDTH 6 0
BBX 5 8 1 0
BITMAP
78
A8
A8
F8
A8
A8
A8
A8
ENDCHAR
STARTCHAR LATIN
ENCODING -1
SWIDTH 480 0
DWIDTH 6 0
BBX 5 8 1 0
BITMAP
60
A0
A0
B0
A0
A0
A0
98
ENDCHAR
STARTCHAR LATIN
ENCODING -1
SWIDTH 480 0
DWIDTH 6 0
BBX 5 8 1 0
BITMAP
10
10
10
78
90
50
30
C8
ENDCHAR
STARTCHAR ARMENIAN
ENCODING -1
SWIDTH 480 0
DWIDTH 6 0
BBX 5 7 1 0
BITMAP
50
A0
68
28
A8
A8
58
ENDCHAR
STARTCHAR ARMENIAN
ENCODING -1
SWIDTH 480 0
DWIDTH 6 0
BBX 5 8 1 0
BITMAP
20
60
20
B8
A0
A8
A8
78
ENDCHAR
STARTCHAR ARMENIAN
ENCODING -1
SWIDTH 480 0
DWIDTH 6 0
BBX 5 10 1 -2
BITMAP
20
60
20
B0
A8
A8
A8
68
08
08
ENDCHAR
STARTCHAR ARMENIAN
ENCODING -1
SWIDTH 480 0
DWIDTH 6 0
BBX 5 10 1 -2
BITMAP
60
A0
60
28
A8
A8
A8
78
20
30
ENDCHAR
STARTCHAR ARMENIAN
ENCODING -1
SWIDTH 480 0
DWIDTH 6 0
BBX 6 10 0 -2
BITMAP
20
60
20
B4
B4
BC
AC
6C
20
20
ENDCHAR
STARTCHAR SMALL
ENCODING -1
SWIDTH 480 0
DWIDTH 6 0
BBX 2 2 2 0
BITMAP
40
80
ENDCHAR
STARTCHAR SMALL
ENCODING -1
SWIDTH 480 0
DWIDTH 6 0
BBX 2 2 2 1
BITMAP
80
40
ENDCHAR
STARTCHAR SMALL
ENCODING -1
SWIDTH 480 0
DWIDTH 6 0
BBX 1 1 3 0
BITMAP
80
ENDCHAR
STARTCHAR SMALL
ENCODING -1
SWIDTH 480 0
DWIDTH 6 0
BBX 2 4 2 0
BITMAP
40
00
40
80
ENDCHAR
STARTCHAR SMALL
ENCODING -1
SWIDTH 480 0
DWIDTH 6 0
BBX 1 4 3 0
BITMAP
80
00
00
80
ENDCHAR
STARTCHAR SMALL
ENCODING -1
SWIDTH 480 0
DWIDTH 6 0
BBX 5 5 1 0
BITMAP
F0
08
30
00
20
ENDCHAR
STARTCHAR SMALL
ENCODING -1
SWIDTH 480 0
DWIDTH 6 0
BBX 1 5 3 0
BITMAP
80
80
80
00
80
ENDCHAR
STARTCHAR SMALL
ENCODING -1
SWIDTH 480 0
DWIDTH 6 0
BBX 6 1 0 1
BITMAP
FC
ENDCHAR
STARTCHAR SMALL
ENCODING -1
SWIDTH 480 0
DWIDTH 6 0
BBX 2 5 3 0
BITMAP
40
80
80
80
40
ENDCHAR
STARTCHAR SMALL
ENCODING -1
SWIDTH 480 0
DWIDTH 6 0
BBX 2 5 2 0
BITMAP
80
40
40
40
80
ENDCHAR
STARTCHAR SMALL
ENCODING -1
SWIDTH 480 0
DWIDTH 6 0
BBX 3 5 2 0
BITMAP
60
40
80
40
60
ENDCHAR
STARTCHAR SMALL
ENCODING -1
SWIDTH 480 0
DWIDTH 6 0
BBX 3 5 2 0
BITMAP
C0
40
20
40
C0
ENDCHAR
STARTCHAR SMALL
ENCODING -1
SWIDTH 480 0
DWIDTH 6 0
BBX 2 5 3 0
BITMAP
C0
80
80
80
C0
ENDCHAR
STARTCHAR SMALL
ENCODING -1
SWIDTH 480 0
DWIDTH 6 0
BBX 2 5 2 0
BITMAP
C0
40
40
40
C0
ENDCHAR
STARTCHAR SMALL
ENCODING -1
SWIDTH 480 0
DWIDTH 6 0
BBX 5 5 1 0
BITMAP
50
F8
50
F8
50
ENDCHAR
STARTCHAR SMALL
ENCODING -1
SWIDTH 480 0
DWIDTH 6 0
BBX 5 5 1 0
BITMAP
60
90
68
90
68
ENDCHAR
STARTCHAR SMALL
ENCODING -1
SWIDTH 480 0
DWIDTH 6 0
BBX 3 3 2 1
BITMAP
A0
40
A0
ENDCHAR
STARTCHAR SMALL
ENCODING -1
SWIDTH 480 0
DWIDTH 6 0
BBX 3 3 2 1
BITMAP
40
E0
40
ENDCHAR
STARTCHAR SMALL
ENCODING -1
SWIDTH 480 0
DWIDTH 6 0
BBX 3 1 2 2
BITMAP
E0
ENDCHAR
STARTCHAR SMALL
ENCODING -1
SWIDTH 480 0
DWIDTH 6 0
BBX 3 5 2 0
BITMAP
20
40
80
40
20
ENDCHAR
STARTCHAR SMALL
ENCODING -1
SWIDTH 480 0
DWIDTH 6 0
BBX 3 5 2 0
BITMAP
80
40
20
40
80
ENDCHAR
STARTCHAR SMALL
ENCODING -1
SWIDTH 480 0
DWIDTH 6 0
BBX 3 3 2 1
BITMAP
E0
00
E0
ENDCHAR
STARTCHAR SMALL
ENCODING -1
SWIDTH 480 0
DWIDTH 6 0
BBX 5 5 1 0
BITMAP
80
40
20
10
08
ENDCHAR
STARTCHAR SMALL
ENCODING -1
SWIDTH 480 0
DWIDTH 6 0
BBX 5 5 1 0
BITMAP
78
A0
70
28
F0
ENDCHAR
STARTCHAR SMALL
ENCODING -1
SWIDTH 480 0
DWIDTH 6 0
BBX 5 5 1 0
BITMAP
C8
D0
20
58
98
ENDCHAR
STARTCHAR SMALL
ENCODING -1
SWIDTH 480 0
DWIDTH 6 0
BBX 5 5 1 0
BITMAP
70
A8
A8
90
40
ENDCHAR
STARTCHAR REPLACEMENT
ENCODING -1
SWIDTH 480 0
DWIDTH 6 0
BBX 6 11 0 -2
BITMAP
30
78
8C
F4
F4
EC
DC
FC
DC
78
30
ENDCHAR
STARTCHAR UNIMPLEMENTED
ENCODING -1
SWIDTH 480 0
DWIDTH 6 0
BBX 5 10 1 -1
BITMAP
F8
88
D8
D8
A8
A8
D8
D8
88
F8
ENDCHAR
ENDFONT
